<svg xmlns="http://www.w3.org/2000/svg" xmlns:xlink="http://www.w3.org/1999/xlink" id="body_6" preserveAspectRatio="xMinYMin meet" viewBox="0 0 793 1123"><defs><clipPath id="1"><path id="" clip-rule="evenodd" transform="matrix(1 0 0 1 0 0)" d="M0 842L0 0L0 0L595 0L595 0L595 842L595 842L0 842z" /></clipPath><clipPath id="2"><path id="" clip-rule="evenodd" transform="matrix(1 0 0 1 0 0)" d="M28.5 28.5L566.25 28.5L566.25 28.5L566.25 813.6151L566.25 813.6151L28.5 813.6151L28.5 813.6151L28.5 28.5z" /></clipPath><clipPath id="3"><path id="" clip-rule="evenodd" transform="matrix(1 0 0 1 0 0)" d="M28.5 28.5L566.25 28.5L566.25 28.5L566.25 813.6151L566.25 813.6151L28.5 813.6151L28.5 813.6151L28.5 28.5z" /></clipPath><clipPath id="4"><path id="" clip-rule="evenodd" transform="matrix(1 0 0 1 0 0)" d="M28.5 9.678772L566.25 9.678772L566.25 9.678772L566.25 244.6755L566.25 244.6755L28.5 244.6755L28.5 244.6755L28.5 9.678772z" /></clipPath><clipPath id="5"><path id="" clip-rule="evenodd" transform="matrix(1 0 0 1 0 0)" d="M28.5 28.5L566.25 28.5L566.25 28.5L566.25 813.6151L566.25 813.6151L28.5 813.6151L28.5 813.6151L28.5 28.5z" /></clipPath><clipPath id="6"><path id="" clip-rule="evenodd" transform="matrix(1 0 0 1 0 0)" d="M28.5 9.678772L566.25 9.678772L566.25 9.678772L566.25 244.6755L566.25 244.6755L28.5 244.6755L28.5 244.6755L28.5 9.678772z" /></clipPath><clipPath id="7"><path id="" clip-rule="evenodd" transform="matrix(1 0 0 1 0 0)" d="M60.765 41.94373L533.985 41.94373L533.985 41.94373L533.985 60.76501L533.985 60.76501L60.765 60.76501L60.765 60.76501L60.765 41.94373z" /></clipPath><clipPath id="8"><path id="" clip-rule="evenodd" transform="matrix(1 0 0 1 0 0)" d="M28.5 28.5L566.25 28.5L566.25 28.5L566.25 813.6151L566.25 813.6151L28.5 813.6151L28.5 813.6151L28.5 28.5z" /></clipPath><clipPath id="9"><path id="" clip-rule="evenodd" transform="matrix(1 0 0 1 0 0)" d="M28.5 9.678772L566.25 9.678772L566.25 9.678772L566.25 244.6755L566.25 244.6755L28.5 244.6755L28.5 244.6755L28.5 9.678772z" /></clipPath><clipPath id="10"><path id="" clip-rule="evenodd" transform="matrix(1 0 0 1 0 0)" d="M60.765 41.94373L533.985 41.94373L533.985 41.94373L533.985 60.76501L533.985 60.76501L60.765 60.76501L60.765 60.76501L60.765 41.94373z" /></clipPath><clipPath id="11"><path id="" clip-rule="evenodd" transform="matrix(1 0 0 1 0 0)" d="M124.7572 49.47223L533.985 49.47223L533.985 49.47223L533.985 51.08551L533.985 51.08551L124.7572 51.08551L124.7572 51.08551L124.7572 49.47223z" /></clipPath><clipPath id="12"><path id="" clip-rule="evenodd" transform="matrix(1 0 0 1 0 0)" d="M28.5 28.5L566.25 28.5L566.25 28.5L566.25 813.6151L566.25 813.6151L28.5 813.6151L28.5 813.6151L28.5 28.5z" /></clipPath><clipPath id="13"><path id="" clip-rule="evenodd" transform="matrix(1 0 0 1 0 0)" d="M28.5 28.5L566.25 28.5L566.25 28.5L566.25 813.6151L566.25 813.6151L28.5 813.6151L28.5 813.6151L28.5 28.5z" /></clipPath><clipPath id="14"><path id="" clip-rule="evenodd" transform="matrix(1 0 0 1 0 0)" d="M28.5 9.678772L566.25 9.678772L566.25 9.678772L566.25 244.6755L566.25 244.6755L28.5 244.6755L28.5 244.6755L28.5 9.678772z" /></clipPath><clipPath id="15"><path id="" clip-rule="evenodd" transform="matrix(1 0 0 1 0 0)" d="M28.5 28.5L566.25 28.5L566.25 28.5L566.25 813.6151L566.25 813.6151L28.5 813.6151L28.5 813.6151L28.5 28.5z" /></clipPath><clipPath id="16"><path id="" clip-rule="evenodd" transform="matrix(1 0 0 1 0 0)" d="M28.5 9.678772L566.25 9.678772L566.25 9.678772L566.25 244.6755L566.25 244.6755L28.5 244.6755L28.5 244.6755L28.5 9.678772z" /></clipPath><clipPath id="17"><path id="" clip-rule="evenodd" transform="matrix(1 0 0 1 0 0)" d="M60.765 41.94373L533.985 41.94373L533.985 41.94373L533.985 60.76501L533.985 60.76501L60.765 60.76501L60.765 60.76501L60.765 41.94373z" /></clipPath><clipPath id="18"><path id="" clip-rule="evenodd" transform="matrix(1 0 0 1 0 0)" d="M28.5 28.5L566.25 28.5L566.25 28.5L566.25 813.6151L566.25 813.6151L28.5 813.6151L28.5 813.6151L28.5 28.5z" /></clipPath><clipPath id="19"><path id="" clip-rule="evenodd" transform="matrix(1 0 0 1 0 0)" d="M28.5 28.5L566.25 28.5L566.25 28.5L566.25 813.6151L566.25 813.6151L28.5 813.6151L28.5 813.6151L28.5 28.5z" /></clipPath><clipPath id="20"><path id="" clip-rule="evenodd" transform="matrix(1 0 0 1 0 0)" d="M28.5 9.678772L566.25 9.678772L566.25 9.678772L566.25 244.6755L566.25 244.6755L28.5 244.6755L28.5 244.6755L28.5 9.678772z" /></clipPath><clipPath id="21"><path id="" clip-rule="evenodd" transform="matrix(1 0 0 1 0 0)" d="M28.5 28.5L566.25 28.5L566.25 28.5L566.25 813.6151L566.25 813.6151L28.5 813.6151L28.5 813.6151L28.5 28.5z" /></clipPath><clipPath id="22"><path id="" clip-rule="evenodd" transform="matrix(1 0 0 1 0 0)" d="M28.5 28.5L566.25 28.5L566.25 28.5L566.25 813.6151L566.25 813.6151L28.5 813.6151L28.5 813.6151L28.5 28.5z" /></clipPath><clipPath id="23"><path id="" clip-rule="evenodd" transform="matrix(1 0 0 1 0 0)" d="M28.5 9.678772L566.25 9.678772L566.25 9.678772L566.25 244.6755L566.25 244.6755L28.5 244.6755L28.5 244.6755L28.5 9.678772z" /></clipPath><clipPath id="24"><path id="" clip-rule="evenodd" transform="matrix(1 0 0 1 0 0)" d="M28.5 28.5L566.25 28.5L566.25 28.5L566.25 813.6151L566.25 813.6151L28.5 813.6151L28.5 813.6151L28.5 28.5z" /></clipPath><clipPath id="25"><path id="" clip-rule="evenodd" transform="matrix(1 0 0 1 0 0)" d="M28.5 9.678772L566.25 9.678772L566.25 9.678772L566.25 244.6755L566.25 244.6755L28.5 244.6755L28.5 244.6755L28.5 9.678772z" /></clipPath><clipPath id="26"><path id="" clip-rule="evenodd" transform="matrix(1 0 0 1 0 0)" d="M60.765 41.94373L533.985 41.94373L533.985 41.94373L533.985 60.76501L533.985 60.76501L60.765 60.76501L60.765 60.76501L60.765 41.94373z" /></clipPath><clipPath id="27"><path id="" clip-rule="evenodd" transform="matrix(1 0 0 1 0 0)" d="M28.5 28.5L566.25 28.5L566.25 28.5L566.25 813.6151L566.25 813.6151L28.5 813.6151L28.5 813.6151L28.5 28.5z" /></clipPath><clipPath id="28"><path id="" clip-rule="evenodd" transform="matrix(1 0 0 1 0 0)" d="M28.5 9.678772L566.25 9.678772L566.25 9.678772L566.25 244.6755L566.25 244.6755L28.5 244.6755L28.5 244.6755L28.5 9.678772z" /></clipPath><clipPath id="29"><path id="" clip-rule="evenodd" transform="matrix(1 0 0 1 0 0)" d="M60.765 41.94373L533.985 41.94373L533.985 41.94373L533.985 60.76501L533.985 60.76501L60.765 60.76501L60.765 60.76501L60.765 41.94373z" /></clipPath><clipPath id="30"><path id="" clip-rule="evenodd" transform="matrix(1 0 0 1 0 0)" d="M124.7572 49.47223L533.985 49.47223L533.985 49.47223L533.985 51.08551L533.985 51.08551L124.7572 51.08551L124.7572 51.08551L124.7572 49.47223z" /></clipPath><clipPath id="31"><path id="" clip-rule="evenodd" transform="matrix(1 0 0 1 0 0)" d="M28.5 28.5L566.25 28.5L566.25 28.5L566.25 813.6151L566.25 813.6151L28.5 813.6151L28.5 813.6151L28.5 28.5z" /></clipPath><clipPath id="32"><path id="" clip-rule="evenodd" transform="matrix(1 0 0 1 0 0)" d="M28.5 28.5L566.25 28.5L566.25 28.5L566.25 813.6151L566.25 813.6151L28.5 813.6151L28.5 813.6151L28.5 28.5z" /></clipPath><clipPath id="33"><path id="" clip-rule="evenodd" transform="matrix(1 0 0 1 0 0)" d="M28.5 9.678772L566.25 9.678772L566.25 9.678772L566.25 244.6755L566.25 244.6755L28.5 244.6755L28.5 244.6755L28.5 9.678772z" /></clipPath><clipPath id="34"><path id="" clip-rule="evenodd" transform="matrix(1 0 0 1 0 0)" d="M28.5 28.5L566.25 28.5L566.25 28.5L566.25 813.6151L566.25 813.6151L28.5 813.6151L28.5 813.6151L28.5 28.5z" /></clipPath><clipPath id="35"><path id="" clip-rule="evenodd" transform="matrix(1 0 0 1 0 0)" d="M28.5 9.678772L566.25 9.678772L566.25 9.678772L566.25 244.6755L566.25 244.6755L28.5 244.6755L28.5 244.6755L28.5 9.678772z" /></clipPath><clipPath id="36"><path id="" clip-rule="evenodd" transform="matrix(1 0 0 1 0 0)" d="M60.765 41.94373L533.985 41.94373L533.985 41.94373L533.985 60.76501L533.985 60.76501L60.765 60.76501L60.765 60.76501L60.765 41.94373z" /></clipPath><clipPath id="37"><path id="" clip-rule="evenodd" transform="matrix(1 0 0 1 0 0)" d="M28.5 28.5L566.25 28.5L566.25 28.5L566.25 813.6151L566.25 813.6151L28.5 813.6151L28.5 813.6151L28.5 28.5z" /></clipPath><clipPath id="38"><path id="" clip-rule="evenodd" transform="matrix(1 0 0 1 0 0)" d="M28.5 28.5L566.25 28.5L566.25 28.5L566.25 813.6151L566.25 813.6151L28.5 813.6151L28.5 813.6151L28.5 28.5z" /></clipPath><clipPath id="39"><path id="" clip-rule="evenodd" transform="matrix(1 0 0 1 0 0)" d="M28.5 9.678772L566.25 9.678772L566.25 9.678772L566.25 244.6755L566.25 244.6755L28.5 244.6755L28.5 244.6755L28.5 9.678772z" /></clipPath><clipPath id="40"><path id="" clip-rule="evenodd" transform="matrix(1 0 0 1 0 0)" d="M28.5 28.5L566.25 28.5L566.25 28.5L566.25 813.6151L566.25 813.6151L28.5 813.6151L28.5 813.6151L28.5 28.5z" /></clipPath><clipPath id="41"><path id="" clip-rule="evenodd" transform="matrix(1 0 0 1 0 0)" d="M28.5 28.5L566.25 28.5L566.25 28.5L566.25 813.6151L566.25 813.6151L28.5 813.6151L28.5 813.6151L28.5 28.5z" /></clipPath><clipPath id="42"><path id="" clip-rule="evenodd" transform="matrix(1 0 0 1 0 0)" d="M28.5 9.678772L566.25 9.678772L566.25 9.678772L566.25 244.6755L566.25 244.6755L28.5 244.6755L28.5 244.6755L28.5 9.678772z" /></clipPath><clipPath id="43"><path id="" clip-rule="evenodd" transform="matrix(1 0 0 1 0 0)" d="M28.5 28.5L566.25 28.5L566.25 28.5L566.25 813.6151L566.25 813.6151L28.5 813.6151L28.5 813.6151L28.5 28.5z" /></clipPath><clipPath id="44"><path id="" clip-rule="evenodd" transform="matrix(1 0 0 1 0 0)" d="M28.5 9.678772L566.25 9.678772L566.25 9.678772L566.25 244.6755L566.25 244.6755L28.5 244.6755L28.5 244.6755L28.5 9.678772z" /></clipPath><clipPath id="45"><path id="" clip-rule="evenodd" transform="matrix(1 0 0 1 0 0)" d="M60.765 41.94373L533.985 41.94373L533.985 41.94373L533.985 60.76501L533.985 60.76501L60.765 60.76501L60.765 60.76501L60.765 41.94373z" /></clipPath><clipPath id="46"><path id="" clip-rule="evenodd" transform="matrix(1 0 0 1 0 0)" d="M28.5 28.5L566.25 28.5L566.25 28.5L566.25 813.6151L566.25 813.6151L28.5 813.6151L28.5 813.6151L28.5 28.5z" /></clipPath><clipPath id="47"><path id="" clip-rule="evenodd" transform="matrix(1 0 0 1 0 0)" d="M28.5 9.678772L566.25 9.678772L566.25 9.678772L566.25 244.6755L566.25 244.6755L28.5 244.6755L28.5 244.6755L28.5 9.678772z" /></clipPath><clipPath id="48"><path id="" clip-rule="evenodd" transform="matrix(1 0 0 1 0 0)" d="M60.765 41.94373L533.985 41.94373L533.985 41.94373L533.985 60.76501L533.985 60.76501L60.765 60.76501L60.765 60.76501L60.765 41.94373z" /></clipPath><clipPath id="49"><path id="" clip-rule="evenodd" transform="matrix(1 0 0 1 0 0)" d="M124.7572 49.47223L533.985 49.47223L533.985 49.47223L533.985 51.08551L533.985 51.08551L124.7572 51.08551L124.7572 51.08551L124.7572 49.47223z" /></clipPath><clipPath id="50"><path id="" clip-rule="evenodd" transform="matrix(1 0 0 1 0 0)" d="M28.5 28.5L566.25 28.5L566.25 28.5L566.25 813.6151L566.25 813.6151L28.5 813.6151L28.5 813.6151L28.5 28.5z" /></clipPath><clipPath id="51"><path id="" clip-rule="evenodd" transform="matrix(1 0 0 1 0 0)" d="M28.5 28.5L566.25 28.5L566.25 28.5L566.25 813.6151L566.25 813.6151L28.5 813.6151L28.5 813.6151L28.5 28.5z" /></clipPath><clipPath id="52"><path id="" clip-rule="evenodd" transform="matrix(1 0 0 1 0 0)" d="M28.5 9.678772L566.25 9.678772L566.25 9.678772L566.25 244.6755L566.25 244.6755L28.5 244.6755L28.5 244.6755L28.5 9.678772z" /></clipPath><clipPath id="53"><path id="" clip-rule="evenodd" transform="matrix(1 0 0 1 0 0)" d="M28.5 28.5L566.25 28.5L566.25 28.5L566.25 813.6151L566.25 813.6151L28.5 813.6151L28.5 813.6151L28.5 28.5z" /></clipPath><clipPath id="54"><path id="" clip-rule="evenodd" transform="matrix(1 0 0 1 0 0)" d="M28.5 9.678772L566.25 9.678772L566.25 9.678772L566.25 244.6755L566.25 244.6755L28.5 244.6755L28.5 244.6755L28.5 9.678772z" /></clipPath><clipPath id="55"><path id="" clip-rule="evenodd" transform="matrix(1 0 0 1 0 0)" d="M60.765 41.94373L533.985 41.94373L533.985 41.94373L533.985 60.76501L533.985 60.76501L60.765 60.76501L60.765 60.76501L60.765 41.94373z" /></clipPath><clipPath id="56"><path id="" clip-rule="evenodd" transform="matrix(1 0 0 1 0 0)" d="M28.5 28.5L566.25 28.5L566.25 28.5L566.25 813.6151L566.25 813.6151L28.5 813.6151L28.5 813.6151L28.5 28.5z" /></clipPath><clipPath id="57"><path id="" clip-rule="evenodd" transform="matrix(1 0 0 1 0 0)" d="M28.5 28.5L566.25 28.5L566.25 28.5L566.25 813.6151L566.25 813.6151L28.5 813.6151L28.5 813.6151L28.5 28.5z" /></clipPath><clipPath id="58"><path id="" clip-rule="evenodd" transform="matrix(1 0 0 1 0 0)" d="M28.5 9.678772L566.25 9.678772L566.25 9.678772L566.25 244.6755L566.25 244.6755L28.5 244.6755L28.5 244.6755L28.5 9.678772z" /></clipPath><clipPath id="59"><path id="" clip-rule="evenodd" transform="matrix(1 0 0 1 0 0)" d="M28.5 28.5L566.25 28.5L566.25 28.5L566.25 813.6151L566.25 813.6151L28.5 813.6151L28.5 813.6151L28.5 28.5z" /></clipPath><clipPath id="60"><path id="" clip-rule="evenodd" transform="matrix(1 0 0 1 0 0)" d="M28.5 28.5L566.25 28.5L566.25 28.5L566.25 813.6151L566.25 813.6151L28.5 813.6151L28.5 813.6151L28.5 28.5z" /></clipPath><clipPath id="61"><path id="" clip-rule="evenodd" transform="matrix(1 0 0 1 0 0)" d="M28.5 9.678772L566.25 9.678772L566.25 9.678772L566.25 244.6755L566.25 244.6755L28.5 244.6755L28.5 244.6755L28.5 9.678772z" /></clipPath><clipPath id="62"><path id="" clip-rule="evenodd" transform="matrix(1 0 0 1 0 0)" d="M28.5 28.5L566.25 28.5L566.25 28.5L566.25 813.6151L566.25 813.6151L28.5 813.6151L28.5 813.6151L28.5 28.5z" /></clipPath><clipPath id="63"><path id="" clip-rule="evenodd" transform="matrix(1 0 0 1 0 0)" d="M28.5 9.678772L566.25 9.678772L566.25 9.678772L566.25 244.6755L566.25 244.6755L28.5 244.6755L28.5 244.6755L28.5 9.678772z" /></clipPath><clipPath id="64"><path id="" clip-rule="evenodd" transform="matrix(1 0 0 1 0 0)" d="M60.765 41.94373L533.985 41.94373L533.985 41.94373L533.985 60.76501L533.985 60.76501L60.765 60.76501L60.765 60.76501L60.765 41.94373z" /></clipPath><clipPath id="65"><path id="" clip-rule="evenodd" transform="matrix(1 0 0 1 0 0)" d="M28.5 28.5L566.25 28.5L566.25 28.5L566.25 813.6151L566.25 813.6151L28.5 813.6151L28.5 813.6151L28.5 28.5z" /></clipPath><clipPath id="66"><path id="" clip-rule="evenodd" transform="matrix(1 0 0 1 0 0)" d="M28.5 9.678772L566.25 9.678772L566.25 9.678772L566.25 244.6755L566.25 244.6755L28.5 244.6755L28.5 244.6755L28.5 9.678772z" /></clipPath><clipPath id="67"><path id="" clip-rule="evenodd" transform="matrix(1 0 0 1 0 0)" d="M60.765 41.94373L533.985 41.94373L533.985 41.94373L533.985 60.76501L533.985 60.76501L60.765 60.76501L60.765 60.76501L60.765 41.94373z" /></clipPath><clipPath id="68"><path id="" clip-rule="evenodd" transform="matrix(1 0 0 1 0 0)" d="M124.7572 49.47223L533.985 49.47223L533.985 49.47223L533.985 51.08551L533.985 51.08551L124.7572 51.08551L124.7572 51.08551L124.7572 49.47223z" /></clipPath><clipPath id="69"><path id="" clip-rule="evenodd" transform="matrix(1 0 0 1 0 0)" d="M28.5 28.5L566.25 28.5L566.25 28.5L566.25 813.6151L566.25 813.6151L28.5 813.6151L28.5 813.6151L28.5 28.5z" /></clipPath><clipPath id="70"><path id="" clip-rule="evenodd" transform="matrix(1 0 0 1 0 0)" d="M28.5 28.5L566.25 28.5L566.25 28.5L566.25 813.6151L566.25 813.6151L28.5 813.6151L28.5 813.6151L28.5 28.5z" /></clipPath><clipPath id="71"><path id="" clip-rule="evenodd" transform="matrix(1 0 0 1 0 0)" d="M28.5 9.678772L566.25 9.678772L566.25 9.678772L566.25 244.6755L566.25 244.6755L28.5 244.6755L28.5 244.6755L28.5 9.678772z" /></clipPath><clipPath id="72"><path id="" clip-rule="evenodd" transform="matrix(1 0 0 1 0 0)" d="M28.5 28.5L566.25 28.5L566.25 28.5L566.25 813.6151L566.25 813.6151L28.5 813.6151L28.5 813.6151L28.5 28.5z" /></clipPath><clipPath id="73"><path id="" clip-rule="evenodd" transform="matrix(1 0 0 1 0 0)" d="M28.5 9.678772L566.25 9.678772L566.25 9.678772L566.25 244.6755L566.25 244.6755L28.5 244.6755L28.5 244.6755L28.5 9.678772z" /></clipPath><clipPath id="74"><path id="" clip-rule="evenodd" transform="matrix(1 0 0 1 0 0)" d="M60.765 41.94373L533.985 41.94373L533.985 41.94373L533.985 60.76501L533.985 60.76501L60.765 60.76501L60.765 60.76501L60.765 41.94373z" /></clipPath><clipPath id="75"><path id="" clip-rule="evenodd" transform="matrix(1 0 0 1 0 0)" d="M28.5 28.5L566.25 28.5L566.25 28.5L566.25 813.6151L566.25 813.6151L28.5 813.6151L28.5 813.6151L28.5 28.5z" /></clipPath><clipPath id="76"><path id="" clip-rule="evenodd" transform="matrix(1 0 0 1 0 0)" d="M28.5 28.5L566.25 28.5L566.25 28.5L566.25 813.6151L566.25 813.6151L28.5 813.6151L28.5 813.6151L28.5 28.5z" /></clipPath><clipPath id="77"><path id="" clip-rule="evenodd" transform="matrix(1 0 0 1 0 0)" d="M28.5 9.678772L566.25 9.678772L566.25 9.678772L566.25 244.6755L566.25 244.6755L28.5 244.6755L28.5 244.6755L28.5 9.678772z" /></clipPath><clipPath id="78"><path id="" clip-rule="evenodd" transform="matrix(1 0 0 1 0 0)" d="M28.5 28.5L566.25 28.5L566.25 28.5L566.25 813.6151L566.25 813.6151L28.5 813.6151L28.5 813.6151L28.5 28.5z" /></clipPath></defs><g transform="matrix(1.333333 0 0 1.333333 0 0)"><g clip-path="url(#1)"><g clip-path="url(#2)"></g><g clip-path="url(#3)"><g clip-path="url(#4)"></g></g><g clip-path="url(#5)"><g clip-path="url(#6)"><g clip-path="url(#7)"><path id="1" transform="matrix(1 0 0 -1 0 842)" d="M124.7572 792.5273L533.985 792.5273L533.985 790.9141L124.7572 790.9141z" stroke="none" fill="#37A574" fill-rule="nonzero" /></g></g></g><g clip-path="url(#8)"><g clip-path="url(#9)"><g clip-path="url(#10)"><g clip-path="url(#11)"></g></g></g></g><g clip-path="url(#12)"></g><g clip-path="url(#13)"><g clip-path="url(#14)"></g></g><g clip-path="url(#15)"><g clip-path="url(#16)"><g clip-path="url(#17)"></g></g></g><g clip-path="url(#18)"></g><g clip-path="url(#19)"><g clip-path="url(#20)"></g></g><g clip-path="url(#21)"></g><g clip-path="url(#22)"><g clip-path="url(#23)"></g></g><g clip-path="url(#24)"><g clip-path="url(#25)"><g clip-path="url(#26)"></g></g></g><g clip-path="url(#27)"><g clip-path="url(#28)"><g clip-path="url(#29)"><g clip-path="url(#30)"></g></g></g></g><g clip-path="url(#31)"></g><g clip-path="url(#32)"><g clip-path="url(#33)"></g></g><g clip-path="url(#34)"><g clip-path="url(#35)"><g clip-path="url(#36)"></g></g></g><g clip-path="url(#37)"></g><g clip-path="url(#38)"><g clip-path="url(#39)"></g></g><g clip-path="url(#40)"></g><g clip-path="url(#41)"><g clip-path="url(#42)"></g></g><g clip-path="url(#43)"><g clip-path="url(#44)"><g clip-path="url(#45)"></g></g></g><g clip-path="url(#46)"><g clip-path="url(#47)"><g clip-path="url(#48)"><g clip-path="url(#49)"></g></g></g></g><g clip-path="url(#50)"></g><g clip-path="url(#51)"><g clip-path="url(#52)"></g></g><g clip-path="url(#53)"><g clip-path="url(#54)"><g clip-path="url(#55)"></g></g></g><g clip-path="url(#56)"></g><g clip-path="url(#57)"><g clip-path="url(#58)"></g></g><g clip-path="url(#59)"></g><g clip-path="url(#60)"><g clip-path="url(#61)"></g></g><g clip-path="url(#62)"><g clip-path="url(#63)"><g clip-path="url(#64)"></g></g></g><g clip-path="url(#65)"><g clip-path="url(#66)"><g clip-path="url(#67)"><g clip-path="url(#68)"></g></g></g></g><g clip-path="url(#69)"></g><g clip-path="url(#70)"><g clip-path="url(#71)"></g></g><g clip-path="url(#72)"><g clip-path="url(#73)"><g clip-path="url(#74)"></g></g></g><g clip-path="url(#75)"></g><g clip-path="url(#76)"><g clip-path="url(#77)"></g></g><g clip-path="url(#78)"><path id="496" transform="matrix(1 0 0 -1 0 842)" d="M28.5 71.40479L566.25 71.40479L566.25 60.64941L28.5 60.64941z" stroke="none" fill="#37A574" fill-rule="nonzero" /></g></g></g></svg>