<svg xmlns="http://www.w3.org/2000/svg" xmlns:xlink="http://www.w3.org/1999/xlink" id="body_1" preserveAspectRatio="xMinYMin meet" viewBox="0 0 793 1123"><defs><clipPath id="1"><path id="" clip-rule="evenodd" transform="matrix(1 0 0 1 0 0)" d="M0 842L0 0L0 0L595 0L595 0L595 842L595 842L0 842z" /></clipPath><clipPath id="2"><path id="" clip-rule="evenodd" transform="matrix(1 0 0 1 0 0)" d="M28.5 28.5L566.25 28.5L566.25 28.5L566.25 813.6151L566.25 813.6151L28.5 813.6151L28.5 813.6151L28.5 28.5z" /></clipPath><clipPath id="3"><path id="" clip-rule="evenodd" transform="matrix(1 0 0 1 0 0)" d="M28.5 28.5L566.25 28.5L566.25 28.5L566.25 813.6151L566.25 813.6151L28.5 813.6151L28.5 813.6151L28.5 28.5z" /></clipPath><clipPath id="4"><path id="" clip-rule="evenodd" transform="matrix(1 0 0 1 0 0)" d="M28.5 216.7125L566.25 216.7125L566.25 216.7125L566.25 425.3595L566.25 425.3595L28.5 425.3595L28.5 425.3595L28.5 216.7125z" /></clipPath><clipPath id="5"><path id="" clip-rule="evenodd" transform="matrix(1 0 0 1 0 0)" d="M28.5 28.5L566.25 28.5L566.25 28.5L566.25 813.6151L566.25 813.6151L28.5 813.6151L28.5 813.6151L28.5 28.5z" /></clipPath><clipPath id="6"><path id="" clip-rule="evenodd" transform="matrix(1 0 0 1 0 0)" d="M28.5 28.5L566.25 28.5L566.25 28.5L566.25 813.6151L566.25 813.6151L28.5 813.6151L28.5 813.6151L28.5 28.5z" /></clipPath><clipPath id="7"><path id="" clip-rule="evenodd" transform="matrix(1 0 0 1 0 0)" d="M28.5 425.3595L566.25 425.3595L566.25 425.3595L566.25 1038.395L566.25 1038.395L28.5 1038.395L28.5 1038.395L28.5 425.3595z" /></clipPath><clipPath id="8"><path id="" clip-rule="evenodd" transform="matrix(1 0 0 1 0 0)" d="M28.5 28.5L566.25 28.5L566.25 28.5L566.25 813.6151L566.25 813.6151L28.5 813.6151L28.5 813.6151L28.5 28.5z" /></clipPath><clipPath id="9"><path id="" clip-rule="evenodd" transform="matrix(1 0 0 1 0 0)" d="M28.5 425.3595L566.25 425.3595L566.25 425.3595L566.25 1038.395L566.25 1038.395L28.5 1038.395L28.5 1038.395L28.5 425.3595z" /></clipPath><clipPath id="10"><path id="" clip-rule="evenodd" transform="matrix(1 0 0 1 0 0)" d="M60.765 457.6245L533.985 457.6245L533.985 457.6245L533.985 476.4457L533.985 476.4457L60.765 476.4457L60.765 476.4457L60.765 457.6245z" /></clipPath><clipPath id="11"><path id="" clip-rule="evenodd" transform="matrix(1 0 0 1 0 0)" d="M28.5 28.5L566.25 28.5L566.25 28.5L566.25 813.6151L566.25 813.6151L28.5 813.6151L28.5 813.6151L28.5 28.5z" /></clipPath><clipPath id="12"><path id="" clip-rule="evenodd" transform="matrix(1 0 0 1 0 0)" d="M28.5 425.3595L566.25 425.3595L566.25 425.3595L566.25 1038.395L566.25 1038.395L28.5 1038.395L28.5 1038.395L28.5 425.3595z" /></clipPath><clipPath id="13"><path id="" clip-rule="evenodd" transform="matrix(1 0 0 1 0 0)" d="M60.765 457.6245L533.985 457.6245L533.985 457.6245L533.985 476.4457L533.985 476.4457L60.765 476.4457L60.765 476.4457L60.765 457.6245z" /></clipPath><clipPath id="14"><path id="" clip-rule="evenodd" transform="matrix(1 0 0 1 0 0)" d="M124.7572 465.153L533.985 465.153L533.985 465.153L533.985 466.7662L533.985 466.7662L124.7572 466.7662L124.7572 466.7662L124.7572 465.153z" /></clipPath><clipPath id="15"><path id="" clip-rule="evenodd" transform="matrix(1 0 0 1 0 0)" d="M28.5 28.5L566.25 28.5L566.25 28.5L566.25 813.6151L566.25 813.6151L28.5 813.6151L28.5 813.6151L28.5 28.5z" /></clipPath><clipPath id="16"><path id="" clip-rule="evenodd" transform="matrix(1 0 0 1 0 0)" d="M28.5 28.5L566.25 28.5L566.25 28.5L566.25 813.6151L566.25 813.6151L28.5 813.6151L28.5 813.6151L28.5 28.5z" /></clipPath><clipPath id="17"><path id="" clip-rule="evenodd" transform="matrix(1 0 0 1 0 0)" d="M28.5 425.3595L566.25 425.3595L566.25 425.3595L566.25 1038.395L566.25 1038.395L28.5 1038.395L28.5 1038.395L28.5 425.3595z" /></clipPath><clipPath id="18"><path id="" clip-rule="evenodd" transform="matrix(1 0 0 1 0 0)" d="M28.5 28.5L566.25 28.5L566.25 28.5L566.25 813.6151L566.25 813.6151L28.5 813.6151L28.5 813.6151L28.5 28.5z" /></clipPath><clipPath id="19"><path id="" clip-rule="evenodd" transform="matrix(1 0 0 1 0 0)" d="M28.5 425.3595L566.25 425.3595L566.25 425.3595L566.25 1038.395L566.25 1038.395L28.5 1038.395L28.5 1038.395L28.5 425.3595z" /></clipPath><clipPath id="20"><path id="" clip-rule="evenodd" transform="matrix(1 0 0 1 0 0)" d="M60.765 457.6245L533.985 457.6245L533.985 457.6245L533.985 476.4457L533.985 476.4457L60.765 476.4457L60.765 476.4457L60.765 457.6245z" /></clipPath><clipPath id="21"><path id="" clip-rule="evenodd" transform="matrix(1 0 0 1 0 0)" d="M28.5 28.5L566.25 28.5L566.25 28.5L566.25 813.6151L566.25 813.6151L28.5 813.6151L28.5 813.6151L28.5 28.5z" /></clipPath><clipPath id="22"><path id="" clip-rule="evenodd" transform="matrix(1 0 0 1 0 0)" d="M28.5 28.5L566.25 28.5L566.25 28.5L566.25 813.6151L566.25 813.6151L28.5 813.6151L28.5 813.6151L28.5 28.5z" /></clipPath><clipPath id="23"><path id="" clip-rule="evenodd" transform="matrix(1 0 0 1 0 0)" d="M28.5 425.3595L566.25 425.3595L566.25 425.3595L566.25 1038.395L566.25 1038.395L28.5 1038.395L28.5 1038.395L28.5 425.3595z" /></clipPath><clipPath id="24"><path id="" clip-rule="evenodd" transform="matrix(1 0 0 1 0 0)" d="M28.5 28.5L566.25 28.5L566.25 28.5L566.25 813.6151L566.25 813.6151L28.5 813.6151L28.5 813.6151L28.5 28.5z" /></clipPath><clipPath id="25"><path id="" clip-rule="evenodd" transform="matrix(1 0 0 1 0 0)" d="M28.5 28.5L566.25 28.5L566.25 28.5L566.25 813.6151L566.25 813.6151L28.5 813.6151L28.5 813.6151L28.5 28.5z" /></clipPath><clipPath id="26"><path id="" clip-rule="evenodd" transform="matrix(1 0 0 1 0 0)" d="M28.5 216.7125L566.25 216.7125L566.25 216.7125L566.25 425.3595L566.25 425.3595L28.5 425.3595L28.5 425.3595L28.5 216.7125z" /></clipPath><clipPath id="27"><path id="" clip-rule="evenodd" transform="matrix(1 0 0 1 0 0)" d="M28.5 28.5L566.25 28.5L566.25 28.5L566.25 813.6151L566.25 813.6151L28.5 813.6151L28.5 813.6151L28.5 28.5z" /></clipPath><clipPath id="28"><path id="" clip-rule="evenodd" transform="matrix(1 0 0 1 0 0)" d="M28.5 216.7125L566.25 216.7125L566.25 216.7125L566.25 425.3595L566.25 425.3595L28.5 425.3595L28.5 425.3595L28.5 216.7125z" /></clipPath><clipPath id="29"><path id="" clip-rule="evenodd" transform="matrix(1 0 0 1 0 0)" d="M60.765 245.2133L281.2425 245.2133L281.2425 245.2133L281.2425 264.0345L281.2425 264.0345L60.765 264.0345L60.765 264.0345L60.765 245.2133z" /></clipPath><clipPath id="30"><path id="" clip-rule="evenodd" transform="matrix(1 0 0 1 0 0)" d="M28.5 28.5L566.25 28.5L566.25 28.5L566.25 813.6151L566.25 813.6151L28.5 813.6151L28.5 813.6151L28.5 28.5z" /></clipPath><clipPath id="31"><path id="" clip-rule="evenodd" transform="matrix(1 0 0 1 0 0)" d="M28.5 216.7125L566.25 216.7125L566.25 216.7125L566.25 425.3595L566.25 425.3595L28.5 425.3595L28.5 425.3595L28.5 216.7125z" /></clipPath><clipPath id="32"><path id="" clip-rule="evenodd" transform="matrix(1 0 0 1 0 0)" d="M60.765 245.2133L281.2425 245.2133L281.2425 245.2133L281.2425 264.0345L281.2425 264.0345L60.765 264.0345L60.765 264.0345L60.765 245.2133z" /></clipPath><clipPath id="33"><path id="" clip-rule="evenodd" transform="matrix(1 0 0 1 0 0)" d="M124.7572 252.7418L281.2425 252.7418L281.2425 252.7418L281.2425 254.355L281.2425 254.355L124.7572 254.355L124.7572 254.355L124.7572 252.7418z" /></clipPath><clipPath id="34"><path id="" clip-rule="evenodd" transform="matrix(1 0 0 1 0 0)" d="M28.5 28.5L566.25 28.5L566.25 28.5L566.25 813.6151L566.25 813.6151L28.5 813.6151L28.5 813.6151L28.5 28.5z" /></clipPath><clipPath id="35"><path id="" clip-rule="evenodd" transform="matrix(1 0 0 1 0 0)" d="M28.5 28.5L566.25 28.5L566.25 28.5L566.25 813.6151L566.25 813.6151L28.5 813.6151L28.5 813.6151L28.5 28.5z" /></clipPath><clipPath id="36"><path id="" clip-rule="evenodd" transform="matrix(1 0 0 1 0 0)" d="M28.5 216.7125L566.25 216.7125L566.25 216.7125L566.25 425.3595L566.25 425.3595L28.5 425.3595L28.5 425.3595L28.5 216.7125z" /></clipPath><clipPath id="37"><path id="" clip-rule="evenodd" transform="matrix(1 0 0 1 0 0)" d="M28.5 28.5L566.25 28.5L566.25 28.5L566.25 813.6151L566.25 813.6151L28.5 813.6151L28.5 813.6151L28.5 28.5z" /></clipPath><clipPath id="38"><path id="" clip-rule="evenodd" transform="matrix(1 0 0 1 0 0)" d="M28.5 216.7125L566.25 216.7125L566.25 216.7125L566.25 425.3595L566.25 425.3595L28.5 425.3595L28.5 425.3595L28.5 216.7125z" /></clipPath><clipPath id="39"><path id="" clip-rule="evenodd" transform="matrix(1 0 0 1 0 0)" d="M60.765 245.2133L281.2425 245.2133L281.2425 245.2133L281.2425 264.0345L281.2425 264.0345L60.765 264.0345L60.765 264.0345L60.765 245.2133z" /></clipPath><clipPath id="40"><path id="" clip-rule="evenodd" transform="matrix(1 0 0 1 0 0)" d="M28.5 28.5L566.25 28.5L566.25 28.5L566.25 813.6151L566.25 813.6151L28.5 813.6151L28.5 813.6151L28.5 28.5z" /></clipPath><clipPath id="41"><path id="" clip-rule="evenodd" transform="matrix(1 0 0 1 0 0)" d="M28.5 28.5L566.25 28.5L566.25 28.5L566.25 813.6151L566.25 813.6151L28.5 813.6151L28.5 813.6151L28.5 28.5z" /></clipPath><clipPath id="42"><path id="" clip-rule="evenodd" transform="matrix(1 0 0 1 0 0)" d="M28.5 216.7125L566.25 216.7125L566.25 216.7125L566.25 425.3595L566.25 425.3595L28.5 425.3595L28.5 425.3595L28.5 216.7125z" /></clipPath><clipPath id="43"><path id="" clip-rule="evenodd" transform="matrix(1 0 0 1 0 0)" d="M28.5 28.5L566.25 28.5L566.25 28.5L566.25 813.6151L566.25 813.6151L28.5 813.6151L28.5 813.6151L28.5 28.5z" /></clipPath><clipPath id="44"><path id="" clip-rule="evenodd" transform="matrix(1 0 0 1 0 0)" d="M28.5 216.7125L566.25 216.7125L566.25 216.7125L566.25 425.3595L566.25 425.3595L28.5 425.3595L28.5 425.3595L28.5 216.7125z" /></clipPath><clipPath id="45"><path id="" clip-rule="evenodd" transform="matrix(1 0 0 1 0 0)" d="M60.765 245.2133L281.2425 245.2133L281.2425 245.2133L281.2425 264.0345L281.2425 264.0345L60.765 264.0345L60.765 264.0345L60.765 245.2133z" /></clipPath><clipPath id="46"><path id="" clip-rule="evenodd" transform="matrix(1 0 0 1 0 0)" d="M28.5 28.5L566.25 28.5L566.25 28.5L566.25 813.6151L566.25 813.6151L28.5 813.6151L28.5 813.6151L28.5 28.5z" /></clipPath><clipPath id="47"><path id="" clip-rule="evenodd" transform="matrix(1 0 0 1 0 0)" d="M28.5 216.7125L566.25 216.7125L566.25 216.7125L566.25 425.3595L566.25 425.3595L28.5 425.3595L28.5 425.3595L28.5 216.7125z" /></clipPath><clipPath id="48"><path id="" clip-rule="evenodd" transform="matrix(1 0 0 1 0 0)" d="M60.765 245.2133L281.2425 245.2133L281.2425 245.2133L281.2425 264.0345L281.2425 264.0345L60.765 264.0345L60.765 264.0345L60.765 245.2133z" /></clipPath><clipPath id="49"><path id="" clip-rule="evenodd" transform="matrix(1 0 0 1 0 0)" d="M124.7572 252.7418L281.2425 252.7418L281.2425 252.7418L281.2425 254.355L281.2425 254.355L124.7572 254.355L124.7572 254.355L124.7572 252.7418z" /></clipPath><clipPath id="50"><path id="" clip-rule="evenodd" transform="matrix(1 0 0 1 0 0)" d="M28.5 28.5L566.25 28.5L566.25 28.5L566.25 813.6151L566.25 813.6151L28.5 813.6151L28.5 813.6151L28.5 28.5z" /></clipPath><clipPath id="51"><path id="" clip-rule="evenodd" transform="matrix(1 0 0 1 0 0)" d="M28.5 28.5L566.25 28.5L566.25 28.5L566.25 813.6151L566.25 813.6151L28.5 813.6151L28.5 813.6151L28.5 28.5z" /></clipPath><clipPath id="52"><path id="" clip-rule="evenodd" transform="matrix(1 0 0 1 0 0)" d="M28.5 216.7125L566.25 216.7125L566.25 216.7125L566.25 425.3595L566.25 425.3595L28.5 425.3595L28.5 425.3595L28.5 216.7125z" /></clipPath><clipPath id="53"><path id="" clip-rule="evenodd" transform="matrix(1 0 0 1 0 0)" d="M28.5 28.5L566.25 28.5L566.25 28.5L566.25 813.6151L566.25 813.6151L28.5 813.6151L28.5 813.6151L28.5 28.5z" /></clipPath><clipPath id="54"><path id="" clip-rule="evenodd" transform="matrix(1 0 0 1 0 0)" d="M28.5 216.7125L566.25 216.7125L566.25 216.7125L566.25 425.3595L566.25 425.3595L28.5 425.3595L28.5 425.3595L28.5 216.7125z" /></clipPath><clipPath id="55"><path id="" clip-rule="evenodd" transform="matrix(1 0 0 1 0 0)" d="M60.765 245.2133L281.2425 245.2133L281.2425 245.2133L281.2425 264.0345L281.2425 264.0345L60.765 264.0345L60.765 264.0345L60.765 245.2133z" /></clipPath><clipPath id="56"><path id="" clip-rule="evenodd" transform="matrix(1 0 0 1 0 0)" d="M28.5 28.5L566.25 28.5L566.25 28.5L566.25 813.6151L566.25 813.6151L28.5 813.6151L28.5 813.6151L28.5 28.5z" /></clipPath><clipPath id="57"><path id="" clip-rule="evenodd" transform="matrix(1 0 0 1 0 0)" d="M28.5 28.5L566.25 28.5L566.25 28.5L566.25 813.6151L566.25 813.6151L28.5 813.6151L28.5 813.6151L28.5 28.5z" /></clipPath><clipPath id="58"><path id="" clip-rule="evenodd" transform="matrix(1 0 0 1 0 0)" d="M28.5 216.7125L566.25 216.7125L566.25 216.7125L566.25 425.3595L566.25 425.3595L28.5 425.3595L28.5 425.3595L28.5 216.7125z" /></clipPath><clipPath id="59"><path id="" clip-rule="evenodd" transform="matrix(1 0 0 1 0 0)" d="M28.5 28.5L566.25 28.5L566.25 28.5L566.25 813.6151L566.25 813.6151L28.5 813.6151L28.5 813.6151L28.5 28.5z" /></clipPath><clipPath id="60"><path id="" clip-rule="evenodd" transform="matrix(1 0 0 1 0 0)" d="M28.5 216.7125L566.25 216.7125L566.25 216.7125L566.25 425.3595L566.25 425.3595L28.5 425.3595L28.5 425.3595L28.5 216.7125z" /></clipPath><clipPath id="61"><path id="" clip-rule="evenodd" transform="matrix(1 0 0 1 0 0)" d="M60.765 245.2133L281.2425 245.2133L281.2425 245.2133L281.2425 264.0345L281.2425 264.0345L60.765 264.0345L60.765 264.0345L60.765 245.2133z" /></clipPath><clipPath id="62"><path id="" clip-rule="evenodd" transform="matrix(1 0 0 1 0 0)" d="M28.5 28.5L566.25 28.5L566.25 28.5L566.25 813.6151L566.25 813.6151L28.5 813.6151L28.5 813.6151L28.5 28.5z" /></clipPath><clipPath id="63"><path id="" clip-rule="evenodd" transform="matrix(1 0 0 1 0 0)" d="M28.5 216.7125L566.25 216.7125L566.25 216.7125L566.25 425.3595L566.25 425.3595L28.5 425.3595L28.5 425.3595L28.5 216.7125z" /></clipPath><clipPath id="64"><path id="" clip-rule="evenodd" transform="matrix(1 0 0 1 0 0)" d="M60.765 245.2133L281.2425 245.2133L281.2425 245.2133L281.2425 264.0345L281.2425 264.0345L60.765 264.0345L60.765 264.0345L60.765 245.2133z" /></clipPath><clipPath id="65"><path id="" clip-rule="evenodd" transform="matrix(1 0 0 1 0 0)" d="M124.7572 252.7418L281.2425 252.7418L281.2425 252.7418L281.2425 254.355L281.2425 254.355L124.7572 254.355L124.7572 254.355L124.7572 252.7418z" /></clipPath><clipPath id="66"><path id="" clip-rule="evenodd" transform="matrix(1 0 0 1 0 0)" d="M28.5 28.5L566.25 28.5L566.25 28.5L566.25 813.6151L566.25 813.6151L28.5 813.6151L28.5 813.6151L28.5 28.5z" /></clipPath><clipPath id="67"><path id="" clip-rule="evenodd" transform="matrix(1 0 0 1 0 0)" d="M28.5 28.5L566.25 28.5L566.25 28.5L566.25 813.6151L566.25 813.6151L28.5 813.6151L28.5 813.6151L28.5 28.5z" /></clipPath><clipPath id="68"><path id="" clip-rule="evenodd" transform="matrix(1 0 0 1 0 0)" d="M28.5 216.7125L566.25 216.7125L566.25 216.7125L566.25 425.3595L566.25 425.3595L28.5 425.3595L28.5 425.3595L28.5 216.7125z" /></clipPath><clipPath id="69"><path id="" clip-rule="evenodd" transform="matrix(1 0 0 1 0 0)" d="M28.5 28.5L566.25 28.5L566.25 28.5L566.25 813.6151L566.25 813.6151L28.5 813.6151L28.5 813.6151L28.5 28.5z" /></clipPath><clipPath id="70"><path id="" clip-rule="evenodd" transform="matrix(1 0 0 1 0 0)" d="M28.5 216.7125L566.25 216.7125L566.25 216.7125L566.25 425.3595L566.25 425.3595L28.5 425.3595L28.5 425.3595L28.5 216.7125z" /></clipPath><clipPath id="71"><path id="" clip-rule="evenodd" transform="matrix(1 0 0 1 0 0)" d="M60.765 245.2133L281.2425 245.2133L281.2425 245.2133L281.2425 264.0345L281.2425 264.0345L60.765 264.0345L60.765 264.0345L60.765 245.2133z" /></clipPath><clipPath id="72"><path id="" clip-rule="evenodd" transform="matrix(1 0 0 1 0 0)" d="M28.5 28.5L566.25 28.5L566.25 28.5L566.25 813.6151L566.25 813.6151L28.5 813.6151L28.5 813.6151L28.5 28.5z" /></clipPath><clipPath id="73"><path id="" clip-rule="evenodd" transform="matrix(1 0 0 1 0 0)" d="M28.5 28.5L566.25 28.5L566.25 28.5L566.25 813.6151L566.25 813.6151L28.5 813.6151L28.5 813.6151L28.5 28.5z" /></clipPath><clipPath id="74"><path id="" clip-rule="evenodd" transform="matrix(1 0 0 1 0 0)" d="M28.5 216.7125L566.25 216.7125L566.25 216.7125L566.25 425.3595L566.25 425.3595L28.5 425.3595L28.5 425.3595L28.5 216.7125z" /></clipPath><clipPath id="75"><path id="" clip-rule="evenodd" transform="matrix(1 0 0 1 0 0)" d="M28.5 28.5L566.25 28.5L566.25 28.5L566.25 813.6151L566.25 813.6151L28.5 813.6151L28.5 813.6151L28.5 28.5z" /></clipPath><clipPath id="76"><path id="" clip-rule="evenodd" transform="matrix(1 0 0 1 0 0)" d="M28.5 216.7125L566.25 216.7125L566.25 216.7125L566.25 425.3595L566.25 425.3595L28.5 425.3595L28.5 425.3595L28.5 216.7125z" /></clipPath><clipPath id="77"><path id="" clip-rule="evenodd" transform="matrix(1 0 0 1 0 0)" d="M60.765 245.2133L281.2425 245.2133L281.2425 245.2133L281.2425 264.0345L281.2425 264.0345L60.765 264.0345L60.765 264.0345L60.765 245.2133z" /></clipPath><clipPath id="78"><path id="" clip-rule="evenodd" transform="matrix(1 0 0 1 0 0)" d="M28.5 28.5L566.25 28.5L566.25 28.5L566.25 813.6151L566.25 813.6151L28.5 813.6151L28.5 813.6151L28.5 28.5z" /></clipPath><clipPath id="79"><path id="" clip-rule="evenodd" transform="matrix(1 0 0 1 0 0)" d="M28.5 216.7125L566.25 216.7125L566.25 216.7125L566.25 425.3595L566.25 425.3595L28.5 425.3595L28.5 425.3595L28.5 216.7125z" /></clipPath><clipPath id="80"><path id="" clip-rule="evenodd" transform="matrix(1 0 0 1 0 0)" d="M60.765 245.2133L281.2425 245.2133L281.2425 245.2133L281.2425 264.0345L281.2425 264.0345L60.765 264.0345L60.765 264.0345L60.765 245.2133z" /></clipPath><clipPath id="81"><path id="" clip-rule="evenodd" transform="matrix(1 0 0 1 0 0)" d="M124.7572 252.7418L281.2425 252.7418L281.2425 252.7418L281.2425 254.355L281.2425 254.355L124.7572 254.355L124.7572 254.355L124.7572 252.7418z" /></clipPath><clipPath id="82"><path id="" clip-rule="evenodd" transform="matrix(1 0 0 1 0 0)" d="M28.5 28.5L566.25 28.5L566.25 28.5L566.25 813.6151L566.25 813.6151L28.5 813.6151L28.5 813.6151L28.5 28.5z" /></clipPath><clipPath id="83"><path id="" clip-rule="evenodd" transform="matrix(1 0 0 1 0 0)" d="M28.5 28.5L566.25 28.5L566.25 28.5L566.25 813.6151L566.25 813.6151L28.5 813.6151L28.5 813.6151L28.5 28.5z" /></clipPath><clipPath id="84"><path id="" clip-rule="evenodd" transform="matrix(1 0 0 1 0 0)" d="M28.5 216.7125L566.25 216.7125L566.25 216.7125L566.25 425.3595L566.25 425.3595L28.5 425.3595L28.5 425.3595L28.5 216.7125z" /></clipPath><clipPath id="85"><path id="" clip-rule="evenodd" transform="matrix(1 0 0 1 0 0)" d="M28.5 28.5L566.25 28.5L566.25 28.5L566.25 813.6151L566.25 813.6151L28.5 813.6151L28.5 813.6151L28.5 28.5z" /></clipPath><clipPath id="86"><path id="" clip-rule="evenodd" transform="matrix(1 0 0 1 0 0)" d="M28.5 216.7125L566.25 216.7125L566.25 216.7125L566.25 425.3595L566.25 425.3595L28.5 425.3595L28.5 425.3595L28.5 216.7125z" /></clipPath><clipPath id="87"><path id="" clip-rule="evenodd" transform="matrix(1 0 0 1 0 0)" d="M60.765 245.2133L281.2425 245.2133L281.2425 245.2133L281.2425 264.0345L281.2425 264.0345L60.765 264.0345L60.765 264.0345L60.765 245.2133z" /></clipPath><clipPath id="88"><path id="" clip-rule="evenodd" transform="matrix(1 0 0 1 0 0)" d="M28.5 28.5L566.25 28.5L566.25 28.5L566.25 813.6151L566.25 813.6151L28.5 813.6151L28.5 813.6151L28.5 28.5z" /></clipPath><clipPath id="89"><path id="" clip-rule="evenodd" transform="matrix(1 0 0 1 0 0)" d="M28.5 28.5L566.25 28.5L566.25 28.5L566.25 813.6151L566.25 813.6151L28.5 813.6151L28.5 813.6151L28.5 28.5z" /></clipPath><clipPath id="90"><path id="" clip-rule="evenodd" transform="matrix(1 0 0 1 0 0)" d="M28.5 216.7125L566.25 216.7125L566.25 216.7125L566.25 425.3595L566.25 425.3595L28.5 425.3595L28.5 425.3595L28.5 216.7125z" /></clipPath><clipPath id="91"><path id="" clip-rule="evenodd" transform="matrix(1 0 0 1 0 0)" d="M28.5 28.5L566.25 28.5L566.25 28.5L566.25 813.6151L566.25 813.6151L28.5 813.6151L28.5 813.6151L28.5 28.5z" /></clipPath><clipPath id="92"><path id="" clip-rule="evenodd" transform="matrix(1 0 0 1 0 0)" d="M28.5 216.7125L566.25 216.7125L566.25 216.7125L566.25 425.3595L566.25 425.3595L28.5 425.3595L28.5 425.3595L28.5 216.7125z" /></clipPath><clipPath id="93"><path id="" clip-rule="evenodd" transform="matrix(1 0 0 1 0 0)" d="M313.5075 245.2133L533.985 245.2133L533.985 245.2133L533.985 264.0345L533.985 264.0345L313.5075 264.0345L313.5075 264.0345L313.5075 245.2133z" /></clipPath><clipPath id="94"><path id="" clip-rule="evenodd" transform="matrix(1 0 0 1 0 0)" d="M28.5 28.5L566.25 28.5L566.25 28.5L566.25 813.6151L566.25 813.6151L28.5 813.6151L28.5 813.6151L28.5 28.5z" /></clipPath><clipPath id="95"><path id="" clip-rule="evenodd" transform="matrix(1 0 0 1 0 0)" d="M28.5 216.7125L566.25 216.7125L566.25 216.7125L566.25 425.3595L566.25 425.3595L28.5 425.3595L28.5 425.3595L28.5 216.7125z" /></clipPath><clipPath id="96"><path id="" clip-rule="evenodd" transform="matrix(1 0 0 1 0 0)" d="M313.5075 245.2133L533.985 245.2133L533.985 245.2133L533.985 264.0345L533.985 264.0345L313.5075 264.0345L313.5075 264.0345L313.5075 245.2133z" /></clipPath><clipPath id="97"><path id="" clip-rule="evenodd" transform="matrix(1 0 0 1 0 0)" d="M377.4998 252.7418L533.985 252.7418L533.985 252.7418L533.985 254.355L533.985 254.355L377.4998 254.355L377.4998 254.355L377.4998 252.7418z" /></clipPath><clipPath id="98"><path id="" clip-rule="evenodd" transform="matrix(1 0 0 1 0 0)" d="M28.5 28.5L566.25 28.5L566.25 28.5L566.25 813.6151L566.25 813.6151L28.5 813.6151L28.5 813.6151L28.5 28.5z" /></clipPath><clipPath id="99"><path id="" clip-rule="evenodd" transform="matrix(1 0 0 1 0 0)" d="M28.5 28.5L566.25 28.5L566.25 28.5L566.25 813.6151L566.25 813.6151L28.5 813.6151L28.5 813.6151L28.5 28.5z" /></clipPath><clipPath id="100"><path id="" clip-rule="evenodd" transform="matrix(1 0 0 1 0 0)" d="M28.5 216.7125L566.25 216.7125L566.25 216.7125L566.25 425.3595L566.25 425.3595L28.5 425.3595L28.5 425.3595L28.5 216.7125z" /></clipPath><clipPath id="101"><path id="" clip-rule="evenodd" transform="matrix(1 0 0 1 0 0)" d="M28.5 28.5L566.25 28.5L566.25 28.5L566.25 813.6151L566.25 813.6151L28.5 813.6151L28.5 813.6151L28.5 28.5z" /></clipPath><clipPath id="102"><path id="" clip-rule="evenodd" transform="matrix(1 0 0 1 0 0)" d="M28.5 216.7125L566.25 216.7125L566.25 216.7125L566.25 425.3595L566.25 425.3595L28.5 425.3595L28.5 425.3595L28.5 216.7125z" /></clipPath><clipPath id="103"><path id="" clip-rule="evenodd" transform="matrix(1 0 0 1 0 0)" d="M313.5075 245.2133L533.985 245.2133L533.985 245.2133L533.985 264.0345L533.985 264.0345L313.5075 264.0345L313.5075 264.0345L313.5075 245.2133z" /></clipPath><clipPath id="104"><path id="" clip-rule="evenodd" transform="matrix(1 0 0 1 0 0)" d="M28.5 28.5L566.25 28.5L566.25 28.5L566.25 813.6151L566.25 813.6151L28.5 813.6151L28.5 813.6151L28.5 28.5z" /></clipPath><clipPath id="105"><path id="" clip-rule="evenodd" transform="matrix(1 0 0 1 0 0)" d="M28.5 28.5L566.25 28.5L566.25 28.5L566.25 813.6151L566.25 813.6151L28.5 813.6151L28.5 813.6151L28.5 28.5z" /></clipPath><clipPath id="106"><path id="" clip-rule="evenodd" transform="matrix(1 0 0 1 0 0)" d="M28.5 216.7125L566.25 216.7125L566.25 216.7125L566.25 425.3595L566.25 425.3595L28.5 425.3595L28.5 425.3595L28.5 216.7125z" /></clipPath><clipPath id="107"><path id="" clip-rule="evenodd" transform="matrix(1 0 0 1 0 0)" d="M28.5 28.5L566.25 28.5L566.25 28.5L566.25 813.6151L566.25 813.6151L28.5 813.6151L28.5 813.6151L28.5 28.5z" /></clipPath><clipPath id="108"><path id="" clip-rule="evenodd" transform="matrix(1 0 0 1 0 0)" d="M28.5 216.7125L566.25 216.7125L566.25 216.7125L566.25 425.3595L566.25 425.3595L28.5 425.3595L28.5 425.3595L28.5 216.7125z" /></clipPath><clipPath id="109"><path id="" clip-rule="evenodd" transform="matrix(1 0 0 1 0 0)" d="M313.5075 245.2133L533.985 245.2133L533.985 245.2133L533.985 264.0345L533.985 264.0345L313.5075 264.0345L313.5075 264.0345L313.5075 245.2133z" /></clipPath><clipPath id="110"><path id="" clip-rule="evenodd" transform="matrix(1 0 0 1 0 0)" d="M28.5 28.5L566.25 28.5L566.25 28.5L566.25 813.6151L566.25 813.6151L28.5 813.6151L28.5 813.6151L28.5 28.5z" /></clipPath><clipPath id="111"><path id="" clip-rule="evenodd" transform="matrix(1 0 0 1 0 0)" d="M28.5 216.7125L566.25 216.7125L566.25 216.7125L566.25 425.3595L566.25 425.3595L28.5 425.3595L28.5 425.3595L28.5 216.7125z" /></clipPath><clipPath id="112"><path id="" clip-rule="evenodd" transform="matrix(1 0 0 1 0 0)" d="M313.5075 245.2133L533.985 245.2133L533.985 245.2133L533.985 264.0345L533.985 264.0345L313.5075 264.0345L313.5075 264.0345L313.5075 245.2133z" /></clipPath><clipPath id="113"><path id="" clip-rule="evenodd" transform="matrix(1 0 0 1 0 0)" d="M377.4998 252.7418L533.985 252.7418L533.985 252.7418L533.985 254.355L533.985 254.355L377.4998 254.355L377.4998 254.355L377.4998 252.7418z" /></clipPath><clipPath id="114"><path id="" clip-rule="evenodd" transform="matrix(1 0 0 1 0 0)" d="M28.5 28.5L566.25 28.5L566.25 28.5L566.25 813.6151L566.25 813.6151L28.5 813.6151L28.5 813.6151L28.5 28.5z" /></clipPath><clipPath id="115"><path id="" clip-rule="evenodd" transform="matrix(1 0 0 1 0 0)" d="M28.5 28.5L566.25 28.5L566.25 28.5L566.25 813.6151L566.25 813.6151L28.5 813.6151L28.5 813.6151L28.5 28.5z" /></clipPath><clipPath id="116"><path id="" clip-rule="evenodd" transform="matrix(1 0 0 1 0 0)" d="M28.5 216.7125L566.25 216.7125L566.25 216.7125L566.25 425.3595L566.25 425.3595L28.5 425.3595L28.5 425.3595L28.5 216.7125z" /></clipPath><clipPath id="117"><path id="" clip-rule="evenodd" transform="matrix(1 0 0 1 0 0)" d="M28.5 28.5L566.25 28.5L566.25 28.5L566.25 813.6151L566.25 813.6151L28.5 813.6151L28.5 813.6151L28.5 28.5z" /></clipPath><clipPath id="118"><path id="" clip-rule="evenodd" transform="matrix(1 0 0 1 0 0)" d="M28.5 216.7125L566.25 216.7125L566.25 216.7125L566.25 425.3595L566.25 425.3595L28.5 425.3595L28.5 425.3595L28.5 216.7125z" /></clipPath><clipPath id="119"><path id="" clip-rule="evenodd" transform="matrix(1 0 0 1 0 0)" d="M313.5075 245.2133L533.985 245.2133L533.985 245.2133L533.985 264.0345L533.985 264.0345L313.5075 264.0345L313.5075 264.0345L313.5075 245.2133z" /></clipPath><clipPath id="120"><path id="" clip-rule="evenodd" transform="matrix(1 0 0 1 0 0)" d="M28.5 28.5L566.25 28.5L566.25 28.5L566.25 813.6151L566.25 813.6151L28.5 813.6151L28.5 813.6151L28.5 28.5z" /></clipPath><clipPath id="121"><path id="" clip-rule="evenodd" transform="matrix(1 0 0 1 0 0)" d="M28.5 28.5L566.25 28.5L566.25 28.5L566.25 813.6151L566.25 813.6151L28.5 813.6151L28.5 813.6151L28.5 28.5z" /></clipPath><clipPath id="122"><path id="" clip-rule="evenodd" transform="matrix(1 0 0 1 0 0)" d="M28.5 216.7125L566.25 216.7125L566.25 216.7125L566.25 425.3595L566.25 425.3595L28.5 425.3595L28.5 425.3595L28.5 216.7125z" /></clipPath><clipPath id="123"><path id="" clip-rule="evenodd" transform="matrix(1 0 0 1 0 0)" d="M28.5 28.5L566.25 28.5L566.25 28.5L566.25 813.6151L566.25 813.6151L28.5 813.6151L28.5 813.6151L28.5 28.5z" /></clipPath><clipPath id="124"><path id="" clip-rule="evenodd" transform="matrix(1 0 0 1 0 0)" d="M28.5 216.7125L566.25 216.7125L566.25 216.7125L566.25 425.3595L566.25 425.3595L28.5 425.3595L28.5 425.3595L28.5 216.7125z" /></clipPath><clipPath id="125"><path id="" clip-rule="evenodd" transform="matrix(1 0 0 1 0 0)" d="M313.5075 245.2133L533.985 245.2133L533.985 245.2133L533.985 264.0345L533.985 264.0345L313.5075 264.0345L313.5075 264.0345L313.5075 245.2133z" /></clipPath><clipPath id="126"><path id="" clip-rule="evenodd" transform="matrix(1 0 0 1 0 0)" d="M28.5 28.5L566.25 28.5L566.25 28.5L566.25 813.6151L566.25 813.6151L28.5 813.6151L28.5 813.6151L28.5 28.5z" /></clipPath><clipPath id="127"><path id="" clip-rule="evenodd" transform="matrix(1 0 0 1 0 0)" d="M28.5 216.7125L566.25 216.7125L566.25 216.7125L566.25 425.3595L566.25 425.3595L28.5 425.3595L28.5 425.3595L28.5 216.7125z" /></clipPath><clipPath id="128"><path id="" clip-rule="evenodd" transform="matrix(1 0 0 1 0 0)" d="M313.5075 245.2133L533.985 245.2133L533.985 245.2133L533.985 264.0345L533.985 264.0345L313.5075 264.0345L313.5075 264.0345L313.5075 245.2133z" /></clipPath><clipPath id="129"><path id="" clip-rule="evenodd" transform="matrix(1 0 0 1 0 0)" d="M377.4998 252.7418L533.985 252.7418L533.985 252.7418L533.985 254.355L533.985 254.355L377.4998 254.355L377.4998 254.355L377.4998 252.7418z" /></clipPath><clipPath id="130"><path id="" clip-rule="evenodd" transform="matrix(1 0 0 1 0 0)" d="M28.5 28.5L566.25 28.5L566.25 28.5L566.25 813.6151L566.25 813.6151L28.5 813.6151L28.5 813.6151L28.5 28.5z" /></clipPath><clipPath id="131"><path id="" clip-rule="evenodd" transform="matrix(1 0 0 1 0 0)" d="M28.5 28.5L566.25 28.5L566.25 28.5L566.25 813.6151L566.25 813.6151L28.5 813.6151L28.5 813.6151L28.5 28.5z" /></clipPath><clipPath id="132"><path id="" clip-rule="evenodd" transform="matrix(1 0 0 1 0 0)" d="M28.5 216.7125L566.25 216.7125L566.25 216.7125L566.25 425.3595L566.25 425.3595L28.5 425.3595L28.5 425.3595L28.5 216.7125z" /></clipPath><clipPath id="133"><path id="" clip-rule="evenodd" transform="matrix(1 0 0 1 0 0)" d="M28.5 28.5L566.25 28.5L566.25 28.5L566.25 813.6151L566.25 813.6151L28.5 813.6151L28.5 813.6151L28.5 28.5z" /></clipPath><clipPath id="134"><path id="" clip-rule="evenodd" transform="matrix(1 0 0 1 0 0)" d="M28.5 216.7125L566.25 216.7125L566.25 216.7125L566.25 425.3595L566.25 425.3595L28.5 425.3595L28.5 425.3595L28.5 216.7125z" /></clipPath><clipPath id="135"><path id="" clip-rule="evenodd" transform="matrix(1 0 0 1 0 0)" d="M313.5075 245.2133L533.985 245.2133L533.985 245.2133L533.985 264.0345L533.985 264.0345L313.5075 264.0345L313.5075 264.0345L313.5075 245.2133z" /></clipPath><clipPath id="136"><path id="" clip-rule="evenodd" transform="matrix(1 0 0 1 0 0)" d="M28.5 28.5L566.25 28.5L566.25 28.5L566.25 813.6151L566.25 813.6151L28.5 813.6151L28.5 813.6151L28.5 28.5z" /></clipPath><clipPath id="137"><path id="" clip-rule="evenodd" transform="matrix(1 0 0 1 0 0)" d="M28.5 28.5L566.25 28.5L566.25 28.5L566.25 813.6151L566.25 813.6151L28.5 813.6151L28.5 813.6151L28.5 28.5z" /></clipPath><clipPath id="138"><path id="" clip-rule="evenodd" transform="matrix(1 0 0 1 0 0)" d="M28.5 216.7125L566.25 216.7125L566.25 216.7125L566.25 425.3595L566.25 425.3595L28.5 425.3595L28.5 425.3595L28.5 216.7125z" /></clipPath><clipPath id="139"><path id="" clip-rule="evenodd" transform="matrix(1 0 0 1 0 0)" d="M28.5 28.5L566.25 28.5L566.25 28.5L566.25 813.6151L566.25 813.6151L28.5 813.6151L28.5 813.6151L28.5 28.5z" /></clipPath><clipPath id="140"><path id="" clip-rule="evenodd" transform="matrix(1 0 0 1 0 0)" d="M28.5 216.7125L566.25 216.7125L566.25 216.7125L566.25 425.3595L566.25 425.3595L28.5 425.3595L28.5 425.3595L28.5 216.7125z" /></clipPath><clipPath id="141"><path id="" clip-rule="evenodd" transform="matrix(1 0 0 1 0 0)" d="M313.5075 245.2133L533.985 245.2133L533.985 245.2133L533.985 264.0345L533.985 264.0345L313.5075 264.0345L313.5075 264.0345L313.5075 245.2133z" /></clipPath><clipPath id="142"><path id="" clip-rule="evenodd" transform="matrix(1 0 0 1 0 0)" d="M28.5 28.5L566.25 28.5L566.25 28.5L566.25 813.6151L566.25 813.6151L28.5 813.6151L28.5 813.6151L28.5 28.5z" /></clipPath><clipPath id="143"><path id="" clip-rule="evenodd" transform="matrix(1 0 0 1 0 0)" d="M28.5 216.7125L566.25 216.7125L566.25 216.7125L566.25 425.3595L566.25 425.3595L28.5 425.3595L28.5 425.3595L28.5 216.7125z" /></clipPath><clipPath id="144"><path id="" clip-rule="evenodd" transform="matrix(1 0 0 1 0 0)" d="M313.5075 245.2133L533.985 245.2133L533.985 245.2133L533.985 264.0345L533.985 264.0345L313.5075 264.0345L313.5075 264.0345L313.5075 245.2133z" /></clipPath><clipPath id="145"><path id="" clip-rule="evenodd" transform="matrix(1 0 0 1 0 0)" d="M377.4998 252.7418L533.985 252.7418L533.985 252.7418L533.985 254.355L533.985 254.355L377.4998 254.355L377.4998 254.355L377.4998 252.7418z" /></clipPath><clipPath id="146"><path id="" clip-rule="evenodd" transform="matrix(1 0 0 1 0 0)" d="M28.5 28.5L566.25 28.5L566.25 28.5L566.25 813.6151L566.25 813.6151L28.5 813.6151L28.5 813.6151L28.5 28.5z" /></clipPath><clipPath id="147"><path id="" clip-rule="evenodd" transform="matrix(1 0 0 1 0 0)" d="M28.5 28.5L566.25 28.5L566.25 28.5L566.25 813.6151L566.25 813.6151L28.5 813.6151L28.5 813.6151L28.5 28.5z" /></clipPath><clipPath id="148"><path id="" clip-rule="evenodd" transform="matrix(1 0 0 1 0 0)" d="M28.5 216.7125L566.25 216.7125L566.25 216.7125L566.25 425.3595L566.25 425.3595L28.5 425.3595L28.5 425.3595L28.5 216.7125z" /></clipPath><clipPath id="149"><path id="" clip-rule="evenodd" transform="matrix(1 0 0 1 0 0)" d="M28.5 28.5L566.25 28.5L566.25 28.5L566.25 813.6151L566.25 813.6151L28.5 813.6151L28.5 813.6151L28.5 28.5z" /></clipPath><clipPath id="150"><path id="" clip-rule="evenodd" transform="matrix(1 0 0 1 0 0)" d="M28.5 216.7125L566.25 216.7125L566.25 216.7125L566.25 425.3595L566.25 425.3595L28.5 425.3595L28.5 425.3595L28.5 216.7125z" /></clipPath><clipPath id="151"><path id="" clip-rule="evenodd" transform="matrix(1 0 0 1 0 0)" d="M313.5075 245.2133L533.985 245.2133L533.985 245.2133L533.985 264.0345L533.985 264.0345L313.5075 264.0345L313.5075 264.0345L313.5075 245.2133z" /></clipPath><clipPath id="152"><path id="" clip-rule="evenodd" transform="matrix(1 0 0 1 0 0)" d="M28.5 28.5L566.25 28.5L566.25 28.5L566.25 813.6151L566.25 813.6151L28.5 813.6151L28.5 813.6151L28.5 28.5z" /></clipPath><clipPath id="153"><path id="" clip-rule="evenodd" transform="matrix(1 0 0 1 0 0)" d="M28.5 28.5L566.25 28.5L566.25 28.5L566.25 813.6151L566.25 813.6151L28.5 813.6151L28.5 813.6151L28.5 28.5z" /></clipPath><clipPath id="154"><path id="" clip-rule="evenodd" transform="matrix(1 0 0 1 0 0)" d="M28.5 216.7125L566.25 216.7125L566.25 216.7125L566.25 425.3595L566.25 425.3595L28.5 425.3595L28.5 425.3595L28.5 216.7125z" /></clipPath><clipPath id="155"><path id="" clip-rule="evenodd" transform="matrix(1 0 0 1 0 0)" d="M28.5 28.5L566.25 28.5L566.25 28.5L566.25 813.6151L566.25 813.6151L28.5 813.6151L28.5 813.6151L28.5 28.5z" /></clipPath><clipPath id="156"><path id="" clip-rule="evenodd" transform="matrix(1 0 0 1 0 0)" d="M28.5 28.5L566.25 28.5L566.25 28.5L566.25 813.6151L566.25 813.6151L28.5 813.6151L28.5 813.6151L28.5 28.5z" /></clipPath><clipPath id="157"><path id="" clip-rule="evenodd" transform="matrix(1 0 0 1 0 0)" d="M28.5 425.3595L566.25 425.3595L566.25 425.3595L566.25 1038.395L566.25 1038.395L28.5 1038.395L28.5 1038.395L28.5 425.3595z" /></clipPath><clipPath id="158"><path id="" clip-rule="evenodd" transform="matrix(1 0 0 1 0 0)" d="M28.5 28.5L566.25 28.5L566.25 28.5L566.25 813.6151L566.25 813.6151L28.5 813.6151L28.5 813.6151L28.5 28.5z" /></clipPath><clipPath id="159"><path id="" clip-rule="evenodd" transform="matrix(1 0 0 1 0 0)" d="M28.5 425.3595L566.25 425.3595L566.25 425.3595L566.25 1038.395L566.25 1038.395L28.5 1038.395L28.5 1038.395L28.5 425.3595z" /></clipPath><clipPath id="160"><path id="" clip-rule="evenodd" transform="matrix(1 0 0 1 0 0)" d="M60.765 457.6245L533.985 457.6245L533.985 457.6245L533.985 476.4457L533.985 476.4457L60.765 476.4457L60.765 476.4457L60.765 457.6245z" /></clipPath><clipPath id="161"><path id="" clip-rule="evenodd" transform="matrix(1 0 0 1 0 0)" d="M28.5 28.5L566.25 28.5L566.25 28.5L566.25 813.6151L566.25 813.6151L28.5 813.6151L28.5 813.6151L28.5 28.5z" /></clipPath><clipPath id="162"><path id="" clip-rule="evenodd" transform="matrix(1 0 0 1 0 0)" d="M28.5 425.3595L566.25 425.3595L566.25 425.3595L566.25 1038.395L566.25 1038.395L28.5 1038.395L28.5 1038.395L28.5 425.3595z" /></clipPath><clipPath id="163"><path id="" clip-rule="evenodd" transform="matrix(1 0 0 1 0 0)" d="M60.765 457.6245L533.985 457.6245L533.985 457.6245L533.985 476.4457L533.985 476.4457L60.765 476.4457L60.765 476.4457L60.765 457.6245z" /></clipPath><clipPath id="164"><path id="" clip-rule="evenodd" transform="matrix(1 0 0 1 0 0)" d="M124.7572 465.153L533.985 465.153L533.985 465.153L533.985 466.7662L533.985 466.7662L124.7572 466.7662L124.7572 466.7662L124.7572 465.153z" /></clipPath><clipPath id="165"><path id="" clip-rule="evenodd" transform="matrix(1 0 0 1 0 0)" d="M28.5 28.5L566.25 28.5L566.25 28.5L566.25 813.6151L566.25 813.6151L28.5 813.6151L28.5 813.6151L28.5 28.5z" /></clipPath><clipPath id="166"><path id="" clip-rule="evenodd" transform="matrix(1 0 0 1 0 0)" d="M28.5 28.5L566.25 28.5L566.25 28.5L566.25 813.6151L566.25 813.6151L28.5 813.6151L28.5 813.6151L28.5 28.5z" /></clipPath><clipPath id="167"><path id="" clip-rule="evenodd" transform="matrix(1 0 0 1 0 0)" d="M28.5 425.3595L566.25 425.3595L566.25 425.3595L566.25 1038.395L566.25 1038.395L28.5 1038.395L28.5 1038.395L28.5 425.3595z" /></clipPath><clipPath id="168"><path id="" clip-rule="evenodd" transform="matrix(1 0 0 1 0 0)" d="M28.5 28.5L566.25 28.5L566.25 28.5L566.25 813.6151L566.25 813.6151L28.5 813.6151L28.5 813.6151L28.5 28.5z" /></clipPath><clipPath id="169"><path id="" clip-rule="evenodd" transform="matrix(1 0 0 1 0 0)" d="M28.5 425.3595L566.25 425.3595L566.25 425.3595L566.25 1038.395L566.25 1038.395L28.5 1038.395L28.5 1038.395L28.5 425.3595z" /></clipPath><clipPath id="170"><path id="" clip-rule="evenodd" transform="matrix(1 0 0 1 0 0)" d="M60.765 457.6245L533.985 457.6245L533.985 457.6245L533.985 476.4457L533.985 476.4457L60.765 476.4457L60.765 476.4457L60.765 457.6245z" /></clipPath><clipPath id="171"><path id="" clip-rule="evenodd" transform="matrix(1 0 0 1 0 0)" d="M28.5 28.5L566.25 28.5L566.25 28.5L566.25 813.6151L566.25 813.6151L28.5 813.6151L28.5 813.6151L28.5 28.5z" /></clipPath><clipPath id="172"><path id="" clip-rule="evenodd" transform="matrix(1 0 0 1 0 0)" d="M28.5 28.5L566.25 28.5L566.25 28.5L566.25 813.6151L566.25 813.6151L28.5 813.6151L28.5 813.6151L28.5 28.5z" /></clipPath><clipPath id="173"><path id="" clip-rule="evenodd" transform="matrix(1 0 0 1 0 0)" d="M28.5 425.3595L566.25 425.3595L566.25 425.3595L566.25 1038.395L566.25 1038.395L28.5 1038.395L28.5 1038.395L28.5 425.3595z" /></clipPath><clipPath id="174"><path id="" clip-rule="evenodd" transform="matrix(1 0 0 1 0 0)" d="M28.5 28.5L566.25 28.5L566.25 28.5L566.25 813.6151L566.25 813.6151L28.5 813.6151L28.5 813.6151L28.5 28.5z" /></clipPath><clipPath id="175"><path id="" clip-rule="evenodd" transform="matrix(1 0 0 1 0 0)" d="M28.5 28.5L566.25 28.5L566.25 28.5L566.25 813.6151L566.25 813.6151L28.5 813.6151L28.5 813.6151L28.5 28.5z" /></clipPath><clipPath id="176"><path id="" clip-rule="evenodd" transform="matrix(1 0 0 1 0 0)" d="M28.5 216.7125L566.25 216.7125L566.25 216.7125L566.25 425.3595L566.25 425.3595L28.5 425.3595L28.5 425.3595L28.5 216.7125z" /></clipPath><clipPath id="177"><path id="" clip-rule="evenodd" transform="matrix(1 0 0 1 0 0)" d="M28.5 28.5L566.25 28.5L566.25 28.5L566.25 813.6151L566.25 813.6151L28.5 813.6151L28.5 813.6151L28.5 28.5z" /></clipPath><clipPath id="178"><path id="" clip-rule="evenodd" transform="matrix(1 0 0 1 0 0)" d="M28.5 28.5L566.25 28.5L566.25 28.5L566.25 813.6151L566.25 813.6151L28.5 813.6151L28.5 813.6151L28.5 28.5z" /></clipPath><clipPath id="179"><path id="" clip-rule="evenodd" transform="matrix(1 0 0 1 0 0)" d="M28.5 425.3595L566.25 425.3595L566.25 425.3595L566.25 1038.395L566.25 1038.395L28.5 1038.395L28.5 1038.395L28.5 425.3595z" /></clipPath><clipPath id="180"><path id="" clip-rule="evenodd" transform="matrix(1 0 0 1 0 0)" d="M28.5 28.5L566.25 28.5L566.25 28.5L566.25 813.6151L566.25 813.6151L28.5 813.6151L28.5 813.6151L28.5 28.5z" /></clipPath><clipPath id="181"><path id="" clip-rule="evenodd" transform="matrix(1 0 0 1 0 0)" d="M28.5 425.3595L566.25 425.3595L566.25 425.3595L566.25 1038.395L566.25 1038.395L28.5 1038.395L28.5 1038.395L28.5 425.3595z" /></clipPath><clipPath id="182"><path id="" clip-rule="evenodd" transform="matrix(1 0 0 1 0 0)" d="M60.765 457.6245L533.985 457.6245L533.985 457.6245L533.985 476.4457L533.985 476.4457L60.765 476.4457L60.765 476.4457L60.765 457.6245z" /></clipPath><clipPath id="183"><path id="" clip-rule="evenodd" transform="matrix(1 0 0 1 0 0)" d="M28.5 28.5L566.25 28.5L566.25 28.5L566.25 813.6151L566.25 813.6151L28.5 813.6151L28.5 813.6151L28.5 28.5z" /></clipPath><clipPath id="184"><path id="" clip-rule="evenodd" transform="matrix(1 0 0 1 0 0)" d="M28.5 425.3595L566.25 425.3595L566.25 425.3595L566.25 1038.395L566.25 1038.395L28.5 1038.395L28.5 1038.395L28.5 425.3595z" /></clipPath><clipPath id="185"><path id="" clip-rule="evenodd" transform="matrix(1 0 0 1 0 0)" d="M60.765 457.6245L533.985 457.6245L533.985 457.6245L533.985 476.4457L533.985 476.4457L60.765 476.4457L60.765 476.4457L60.765 457.6245z" /></clipPath><clipPath id="186"><path id="" clip-rule="evenodd" transform="matrix(1 0 0 1 0 0)" d="M124.7572 465.153L533.985 465.153L533.985 465.153L533.985 466.7662L533.985 466.7662L124.7572 466.7662L124.7572 466.7662L124.7572 465.153z" /></clipPath><clipPath id="187"><path id="" clip-rule="evenodd" transform="matrix(1 0 0 1 0 0)" d="M28.5 28.5L566.25 28.5L566.25 28.5L566.25 813.6151L566.25 813.6151L28.5 813.6151L28.5 813.6151L28.5 28.5z" /></clipPath><clipPath id="188"><path id="" clip-rule="evenodd" transform="matrix(1 0 0 1 0 0)" d="M28.5 28.5L566.25 28.5L566.25 28.5L566.25 813.6151L566.25 813.6151L28.5 813.6151L28.5 813.6151L28.5 28.5z" /></clipPath><clipPath id="189"><path id="" clip-rule="evenodd" transform="matrix(1 0 0 1 0 0)" d="M28.5 425.3595L566.25 425.3595L566.25 425.3595L566.25 1038.395L566.25 1038.395L28.5 1038.395L28.5 1038.395L28.5 425.3595z" /></clipPath><clipPath id="190"><path id="" clip-rule="evenodd" transform="matrix(1 0 0 1 0 0)" d="M28.5 28.5L566.25 28.5L566.25 28.5L566.25 813.6151L566.25 813.6151L28.5 813.6151L28.5 813.6151L28.5 28.5z" /></clipPath><clipPath id="191"><path id="" clip-rule="evenodd" transform="matrix(1 0 0 1 0 0)" d="M28.5 425.3595L566.25 425.3595L566.25 425.3595L566.25 1038.395L566.25 1038.395L28.5 1038.395L28.5 1038.395L28.5 425.3595z" /></clipPath><clipPath id="192"><path id="" clip-rule="evenodd" transform="matrix(1 0 0 1 0 0)" d="M60.765 457.6245L533.985 457.6245L533.985 457.6245L533.985 476.4457L533.985 476.4457L60.765 476.4457L60.765 476.4457L60.765 457.6245z" /></clipPath><clipPath id="193"><path id="" clip-rule="evenodd" transform="matrix(1 0 0 1 0 0)" d="M28.5 28.5L566.25 28.5L566.25 28.5L566.25 813.6151L566.25 813.6151L28.5 813.6151L28.5 813.6151L28.5 28.5z" /></clipPath><clipPath id="194"><path id="" clip-rule="evenodd" transform="matrix(1 0 0 1 0 0)" d="M28.5 28.5L566.25 28.5L566.25 28.5L566.25 813.6151L566.25 813.6151L28.5 813.6151L28.5 813.6151L28.5 28.5z" /></clipPath><clipPath id="195"><path id="" clip-rule="evenodd" transform="matrix(1 0 0 1 0 0)" d="M28.5 425.3595L566.25 425.3595L566.25 425.3595L566.25 1038.395L566.25 1038.395L28.5 1038.395L28.5 1038.395L28.5 425.3595z" /></clipPath><clipPath id="196"><path id="" clip-rule="evenodd" transform="matrix(1 0 0 1 0 0)" d="M28.5 28.5L566.25 28.5L566.25 28.5L566.25 813.6151L566.25 813.6151L28.5 813.6151L28.5 813.6151L28.5 28.5z" /></clipPath><clipPath id="197"><path id="" clip-rule="evenodd" transform="matrix(1 0 0 1 0 0)" d="M28.5 28.5L566.25 28.5L566.25 28.5L566.25 813.6151L566.25 813.6151L28.5 813.6151L28.5 813.6151L28.5 28.5z" /></clipPath><clipPath id="198"><path id="" clip-rule="evenodd" transform="matrix(1 0 0 1 0 0)" d="M28.5 216.7125L566.25 216.7125L566.25 216.7125L566.25 425.3595L566.25 425.3595L28.5 425.3595L28.5 425.3595L28.5 216.7125z" /></clipPath><clipPath id="199"><path id="" clip-rule="evenodd" transform="matrix(1 0 0 1 0 0)" d="M28.5 28.5L566.25 28.5L566.25 28.5L566.25 813.6151L566.25 813.6151L28.5 813.6151L28.5 813.6151L28.5 28.5z" /></clipPath><clipPath id="200"><path id="" clip-rule="evenodd" transform="matrix(1 0 0 1 0 0)" d="M28.5 28.5L566.25 28.5L566.25 28.5L566.25 813.6151L566.25 813.6151L28.5 813.6151L28.5 813.6151L28.5 28.5z" /></clipPath><clipPath id="201"><path id="" clip-rule="evenodd" transform="matrix(1 0 0 1 0 0)" d="M28.5 425.3595L566.25 425.3595L566.25 425.3595L566.25 1038.395L566.25 1038.395L28.5 1038.395L28.5 1038.395L28.5 425.3595z" /></clipPath><clipPath id="202"><path id="" clip-rule="evenodd" transform="matrix(1 0 0 1 0 0)" d="M28.5 28.5L566.25 28.5L566.25 28.5L566.25 813.6151L566.25 813.6151L28.5 813.6151L28.5 813.6151L28.5 28.5z" /></clipPath><clipPath id="203"><path id="" clip-rule="evenodd" transform="matrix(1 0 0 1 0 0)" d="M28.5 425.3595L566.25 425.3595L566.25 425.3595L566.25 1038.395L566.25 1038.395L28.5 1038.395L28.5 1038.395L28.5 425.3595z" /></clipPath><clipPath id="204"><path id="" clip-rule="evenodd" transform="matrix(1 0 0 1 0 0)" d="M60.765 457.6245L533.985 457.6245L533.985 457.6245L533.985 476.4457L533.985 476.4457L60.765 476.4457L60.765 476.4457L60.765 457.6245z" /></clipPath><clipPath id="205"><path id="" clip-rule="evenodd" transform="matrix(1 0 0 1 0 0)" d="M28.5 28.5L566.25 28.5L566.25 28.5L566.25 813.6151L566.25 813.6151L28.5 813.6151L28.5 813.6151L28.5 28.5z" /></clipPath><clipPath id="206"><path id="" clip-rule="evenodd" transform="matrix(1 0 0 1 0 0)" d="M28.5 425.3595L566.25 425.3595L566.25 425.3595L566.25 1038.395L566.25 1038.395L28.5 1038.395L28.5 1038.395L28.5 425.3595z" /></clipPath><clipPath id="207"><path id="" clip-rule="evenodd" transform="matrix(1 0 0 1 0 0)" d="M60.765 457.6245L533.985 457.6245L533.985 457.6245L533.985 476.4457L533.985 476.4457L60.765 476.4457L60.765 476.4457L60.765 457.6245z" /></clipPath><clipPath id="208"><path id="" clip-rule="evenodd" transform="matrix(1 0 0 1 0 0)" d="M124.7572 465.153L533.985 465.153L533.985 465.153L533.985 466.7662L533.985 466.7662L124.7572 466.7662L124.7572 466.7662L124.7572 465.153z" /></clipPath><clipPath id="209"><path id="" clip-rule="evenodd" transform="matrix(1 0 0 1 0 0)" d="M28.5 28.5L566.25 28.5L566.25 28.5L566.25 813.6151L566.25 813.6151L28.5 813.6151L28.5 813.6151L28.5 28.5z" /></clipPath><clipPath id="210"><path id="" clip-rule="evenodd" transform="matrix(1 0 0 1 0 0)" d="M28.5 28.5L566.25 28.5L566.25 28.5L566.25 813.6151L566.25 813.6151L28.5 813.6151L28.5 813.6151L28.5 28.5z" /></clipPath><clipPath id="211"><path id="" clip-rule="evenodd" transform="matrix(1 0 0 1 0 0)" d="M28.5 425.3595L566.25 425.3595L566.25 425.3595L566.25 1038.395L566.25 1038.395L28.5 1038.395L28.5 1038.395L28.5 425.3595z" /></clipPath><clipPath id="212"><path id="" clip-rule="evenodd" transform="matrix(1 0 0 1 0 0)" d="M28.5 28.5L566.25 28.5L566.25 28.5L566.25 813.6151L566.25 813.6151L28.5 813.6151L28.5 813.6151L28.5 28.5z" /></clipPath><clipPath id="213"><path id="" clip-rule="evenodd" transform="matrix(1 0 0 1 0 0)" d="M28.5 425.3595L566.25 425.3595L566.25 425.3595L566.25 1038.395L566.25 1038.395L28.5 1038.395L28.5 1038.395L28.5 425.3595z" /></clipPath><clipPath id="214"><path id="" clip-rule="evenodd" transform="matrix(1 0 0 1 0 0)" d="M60.765 457.6245L533.985 457.6245L533.985 457.6245L533.985 476.4457L533.985 476.4457L60.765 476.4457L60.765 476.4457L60.765 457.6245z" /></clipPath><clipPath id="215"><path id="" clip-rule="evenodd" transform="matrix(1 0 0 1 0 0)" d="M28.5 28.5L566.25 28.5L566.25 28.5L566.25 813.6151L566.25 813.6151L28.5 813.6151L28.5 813.6151L28.5 28.5z" /></clipPath><clipPath id="216"><path id="" clip-rule="evenodd" transform="matrix(1 0 0 1 0 0)" d="M28.5 28.5L566.25 28.5L566.25 28.5L566.25 813.6151L566.25 813.6151L28.5 813.6151L28.5 813.6151L28.5 28.5z" /></clipPath><clipPath id="217"><path id="" clip-rule="evenodd" transform="matrix(1 0 0 1 0 0)" d="M28.5 425.3595L566.25 425.3595L566.25 425.3595L566.25 1038.395L566.25 1038.395L28.5 1038.395L28.5 1038.395L28.5 425.3595z" /></clipPath><clipPath id="218"><path id="" clip-rule="evenodd" transform="matrix(1 0 0 1 0 0)" d="M28.5 28.5L566.25 28.5L566.25 28.5L566.25 813.6151L566.25 813.6151L28.5 813.6151L28.5 813.6151L28.5 28.5z" /></clipPath><clipPath id="219"><path id="" clip-rule="evenodd" transform="matrix(1 0 0 1 0 0)" d="M28.5 28.5L566.25 28.5L566.25 28.5L566.25 813.6151L566.25 813.6151L28.5 813.6151L28.5 813.6151L28.5 28.5z" /></clipPath><clipPath id="220"><path id="" clip-rule="evenodd" transform="matrix(1 0 0 1 0 0)" d="M28.5 28.5L566.25 28.5L566.25 28.5L566.25 216.7125L566.25 216.7125L28.5 216.7125L28.5 216.7125L28.5 28.5z" /></clipPath><clipPath id="221"><path id="" clip-rule="evenodd" transform="matrix(1 0 0 1 0 0)" d="M28.5 28.5L566.25 28.5L566.25 28.5L566.25 813.6151L566.25 813.6151L28.5 813.6151L28.5 813.6151L28.5 28.5z" /></clipPath><clipPath id="222"><path id="" clip-rule="evenodd" transform="matrix(1 0 0 1 0 0)" d="M28.5 28.5L566.25 28.5L566.25 28.5L566.25 813.6151L566.25 813.6151L28.5 813.6151L28.5 813.6151L28.5 28.5z" /></clipPath><clipPath id="223"><path id="" clip-rule="evenodd" transform="matrix(1 0 0 1 0 0)" d="M28.5 28.5L566.25 28.5L566.25 28.5L566.25 216.7125L566.25 216.7125L28.5 216.7125L28.5 216.7125L28.5 28.5z" /></clipPath><clipPath id="224"><path id="" clip-rule="evenodd" transform="matrix(1 0 0 1 0 0)" d="M28.5 28.5L566.25 28.5L566.25 28.5L566.25 813.6151L566.25 813.6151L28.5 813.6151L28.5 813.6151L28.5 28.5z" /></clipPath><clipPath id="225"><path id="" clip-rule="evenodd" transform="matrix(1 0 0 1 0 0)" d="M28.5 28.5L566.25 28.5L566.25 28.5L566.25 216.7125L566.25 216.7125L28.5 216.7125L28.5 216.7125L28.5 28.5z" /></clipPath><clipPath id="226"><path id="" clip-rule="evenodd" transform="matrix(1 0 0 1 0 0)" d="M297.375 46.78351C 322.3094 46.78351 342.546 67.02014 342.546 91.95453C 342.546 116.8889 322.3094 137.1255 297.375 137.1255C 272.4406 137.1255 252.204 116.8889 252.204 91.95453C 252.204 67.02014 272.4406 46.78351 297.375 46.78351z" /></clipPath><clipPath id="227"><path id="" clip-rule="evenodd" transform="matrix(1 0 0 1 0 0)" d="M28.5 28.5L566.25 28.5L566.25 28.5L566.25 813.6151L566.25 813.6151L28.5 813.6151L28.5 813.6151L28.5 28.5z" /></clipPath><clipPath id="228"><path id="" clip-rule="evenodd" transform="matrix(1 0 0 1 0 0)" d="M28.5 28.5L566.25 28.5L566.25 28.5L566.25 813.6151L566.25 813.6151L28.5 813.6151L28.5 813.6151L28.5 28.5z" /></clipPath><clipPath id="229"><path id="" clip-rule="evenodd" transform="matrix(1 0 0 1 0 0)" d="M28.5 28.5L566.25 28.5L566.25 28.5L566.25 216.7125L566.25 216.7125L28.5 216.7125L28.5 216.7125L28.5 28.5z" /></clipPath><clipPath id="230"><path id="" clip-rule="evenodd" transform="matrix(1 0 0 1 0 0)" d="M28.5 28.5L566.25 28.5L566.25 28.5L566.25 813.6151L566.25 813.6151L28.5 813.6151L28.5 813.6151L28.5 28.5z" /></clipPath><clipPath id="231"><path id="" clip-rule="evenodd" transform="matrix(1 0 0 1 0 0)" d="M28.5 28.5L566.25 28.5L566.25 28.5L566.25 813.6151L566.25 813.6151L28.5 813.6151L28.5 813.6151L28.5 28.5z" /></clipPath><clipPath id="232"><path id="" clip-rule="evenodd" transform="matrix(1 0 0 1 0 0)" d="M28.5 28.5L566.25 28.5L566.25 28.5L566.25 216.7125L566.25 216.7125L28.5 216.7125L28.5 216.7125L28.5 28.5z" /></clipPath><clipPath id="233"><path id="" clip-rule="evenodd" transform="matrix(1 0 0 1 0 0)" d="M28.5 28.5L566.25 28.5L566.25 28.5L566.25 813.6151L566.25 813.6151L28.5 813.6151L28.5 813.6151L28.5 28.5z" /></clipPath><clipPath id="234"><path id="" clip-rule="evenodd" transform="matrix(1 0 0 1 0 0)" d="M28.5 28.5L566.25 28.5L566.25 28.5L566.25 813.6151L566.25 813.6151L28.5 813.6151L28.5 813.6151L28.5 28.5z" /></clipPath><clipPath id="235"><path id="" clip-rule="evenodd" transform="matrix(1 0 0 1 0 0)" d="M28.5 28.5L566.25 28.5L566.25 28.5L566.25 216.7125L566.25 216.7125L28.5 216.7125L28.5 216.7125L28.5 28.5z" /></clipPath><clipPath id="236"><path id="" clip-rule="evenodd" transform="matrix(1 0 0 1 0 0)" d="M28.5 28.5L566.25 28.5L566.25 28.5L566.25 813.6151L566.25 813.6151L28.5 813.6151L28.5 813.6151L28.5 28.5z" /></clipPath><clipPath id="237"><path id="" clip-rule="evenodd" transform="matrix(1 0 0 1 0 0)" d="M28.5 28.5L566.25 28.5L566.25 28.5L566.25 813.6151L566.25 813.6151L28.5 813.6151L28.5 813.6151L28.5 28.5z" /></clipPath><clipPath id="238"><path id="" clip-rule="evenodd" transform="matrix(1 0 0 1 0 0)" d="M28.5 28.5L566.25 28.5L566.25 28.5L566.25 216.7125L566.25 216.7125L28.5 216.7125L28.5 216.7125L28.5 28.5z" /></clipPath><clipPath id="239"><path id="" clip-rule="evenodd" transform="matrix(1 0 0 1 0 0)" d="M28.5 28.5L566.25 28.5L566.25 28.5L566.25 813.6151L566.25 813.6151L28.5 813.6151L28.5 813.6151L28.5 28.5z" /></clipPath><clipPath id="240"><path id="" clip-rule="evenodd" transform="matrix(1 0 0 1 0 0)" d="M28.5 28.5L566.25 28.5L566.25 28.5L566.25 813.6151L566.25 813.6151L28.5 813.6151L28.5 813.6151L28.5 28.5z" /></clipPath><clipPath id="241"><path id="" clip-rule="evenodd" transform="matrix(1 0 0 1 0 0)" d="M28.5 425.3595L566.25 425.3595L566.25 425.3595L566.25 813.6151L566.25 813.6151L28.5 813.6151L28.5 813.6151L28.5 425.3595z" /></clipPath><clipPath id="242"><path id="" clip-rule="evenodd" transform="matrix(1 0 0 1 0 0)" d="M28.5 28.5L566.25 28.5L566.25 28.5L566.25 813.6151L566.25 813.6151L28.5 813.6151L28.5 813.6151L28.5 28.5z" /></clipPath><clipPath id="243"><path id="" clip-rule="evenodd" transform="matrix(1 0 0 1 0 0)" d="M28.5 425.3595L566.25 425.3595L566.25 425.3595L566.25 813.6151L566.25 813.6151L28.5 813.6151L28.5 813.6151L28.5 425.3595z" /></clipPath><clipPath id="244"><path id="" clip-rule="evenodd" transform="matrix(1 0 0 1 0 0)" d="M179.07 492.5782L179.6078 492.5782L179.6078 492.5782L179.6078 604.968L179.6078 604.968L179.07 604.968" /></clipPath><clipPath id="245"><path id="" clip-rule="evenodd" transform="matrix(1 0 0 1 0 0)" d="M28.5 28.5L566.25 28.5L566.25 28.5L566.25 813.6151L566.25 813.6151L28.5 813.6151L28.5 813.6151L28.5 28.5z" /></clipPath><clipPath id="246"><path id="" clip-rule="evenodd" transform="matrix(1 0 0 1 0 0)" d="M28.5 28.5L566.25 28.5L566.25 28.5L566.25 813.6151L566.25 813.6151L28.5 813.6151L28.5 813.6151L28.5 28.5z" /></clipPath><clipPath id="247"><path id="" clip-rule="evenodd" transform="matrix(1 0 0 1 0 0)" d="M28.5 425.3595L566.25 425.3595L566.25 425.3595L566.25 813.6151L566.25 813.6151L28.5 813.6151L28.5 813.6151L28.5 425.3595z" /></clipPath><clipPath id="248"><path id="" clip-rule="evenodd" transform="matrix(1 0 0 1 0 0)" d="M28.5 28.5L566.25 28.5L566.25 28.5L566.25 813.6151L566.25 813.6151L28.5 813.6151L28.5 813.6151L28.5 28.5z" /></clipPath><clipPath id="249"><path id="" clip-rule="evenodd" transform="matrix(1 0 0 1 0 0)" d="M28.5 28.5L566.25 28.5L566.25 28.5L566.25 813.6151L566.25 813.6151L28.5 813.6151L28.5 813.6151L28.5 28.5z" /></clipPath><clipPath id="250"><path id="" clip-rule="evenodd" transform="matrix(1 0 0 1 0 0)" d="M28.5 425.3595L566.25 425.3595L566.25 425.3595L566.25 813.6151L566.25 813.6151L28.5 813.6151L28.5 813.6151L28.5 425.3595z" /></clipPath><clipPath id="251"><path id="" clip-rule="evenodd" transform="matrix(1 0 0 1 0 0)" d="M28.5 28.5L566.25 28.5L566.25 28.5L566.25 813.6151L566.25 813.6151L28.5 813.6151L28.5 813.6151L28.5 28.5z" /></clipPath><clipPath id="252"><path id="" clip-rule="evenodd" transform="matrix(1 0 0 1 0 0)" d="M28.5 28.5L566.25 28.5L566.25 28.5L566.25 813.6151L566.25 813.6151L28.5 813.6151L28.5 813.6151L28.5 28.5z" /></clipPath><clipPath id="253"><path id="" clip-rule="evenodd" transform="matrix(1 0 0 1 0 0)" d="M28.5 425.3595L566.25 425.3595L566.25 425.3595L566.25 813.6151L566.25 813.6151L28.5 813.6151L28.5 813.6151L28.5 425.3595z" /></clipPath><clipPath id="254"><path id="" clip-rule="evenodd" transform="matrix(1 0 0 1 0 0)" d="M28.5 28.5L566.25 28.5L566.25 28.5L566.25 813.6151L566.25 813.6151L28.5 813.6151L28.5 813.6151L28.5 28.5z" /></clipPath><clipPath id="255"><path id="" clip-rule="evenodd" transform="matrix(1 0 0 1 0 0)" d="M28.5 28.5L566.25 28.5L566.25 28.5L566.25 813.6151L566.25 813.6151L28.5 813.6151L28.5 813.6151L28.5 28.5z" /></clipPath><clipPath id="256"><path id="" clip-rule="evenodd" transform="matrix(1 0 0 1 0 0)" d="M28.5 425.3595L566.25 425.3595L566.25 425.3595L566.25 813.6151L566.25 813.6151L28.5 813.6151L28.5 813.6151L28.5 425.3595z" /></clipPath><clipPath id="257"><path id="" clip-rule="evenodd" transform="matrix(1 0 0 1 0 0)" d="M28.5 28.5L566.25 28.5L566.25 28.5L566.25 813.6151L566.25 813.6151L28.5 813.6151L28.5 813.6151L28.5 28.5z" /></clipPath><clipPath id="258"><path id="" clip-rule="evenodd" transform="matrix(1 0 0 1 0 0)" d="M28.5 28.5L566.25 28.5L566.25 28.5L566.25 813.6151L566.25 813.6151L28.5 813.6151L28.5 813.6151L28.5 28.5z" /></clipPath><clipPath id="259"><path id="" clip-rule="evenodd" transform="matrix(1 0 0 1 0 0)" d="M28.5 425.3595L566.25 425.3595L566.25 425.3595L566.25 813.6151L566.25 813.6151L28.5 813.6151L28.5 813.6151L28.5 425.3595z" /></clipPath><clipPath id="260"><path id="" clip-rule="evenodd" transform="matrix(1 0 0 1 0 0)" d="M28.5 28.5L566.25 28.5L566.25 28.5L566.25 813.6151L566.25 813.6151L28.5 813.6151L28.5 813.6151L28.5 28.5z" /></clipPath><clipPath id="261"><path id="" clip-rule="evenodd" transform="matrix(1 0 0 1 0 0)" d="M28.5 28.5L566.25 28.5L566.25 28.5L566.25 813.6151L566.25 813.6151L28.5 813.6151L28.5 813.6151L28.5 28.5z" /></clipPath><clipPath id="262"><path id="" clip-rule="evenodd" transform="matrix(1 0 0 1 0 0)" d="M28.5 425.3595L566.25 425.3595L566.25 425.3595L566.25 813.6151L566.25 813.6151L28.5 813.6151L28.5 813.6151L28.5 425.3595z" /></clipPath><clipPath id="263"><path id="" clip-rule="evenodd" transform="matrix(1 0 0 1 0 0)" d="M28.5 28.5L566.25 28.5L566.25 28.5L566.25 813.6151L566.25 813.6151L28.5 813.6151L28.5 813.6151L28.5 28.5z" /></clipPath><clipPath id="264"><path id="" clip-rule="evenodd" transform="matrix(1 0 0 1 0 0)" d="M28.5 28.5L566.25 28.5L566.25 28.5L566.25 813.6151L566.25 813.6151L28.5 813.6151L28.5 813.6151L28.5 28.5z" /></clipPath><clipPath id="265"><path id="" clip-rule="evenodd" transform="matrix(1 0 0 1 0 0)" d="M28.5 425.3595L566.25 425.3595L566.25 425.3595L566.25 813.6151L566.25 813.6151L28.5 813.6151L28.5 813.6151L28.5 425.3595z" /></clipPath><clipPath id="266"><path id="" clip-rule="evenodd" transform="matrix(1 0 0 1 0 0)" d="M28.5 28.5L566.25 28.5L566.25 28.5L566.25 813.6151L566.25 813.6151L28.5 813.6151L28.5 813.6151L28.5 28.5z" /></clipPath><clipPath id="267"><path id="" clip-rule="evenodd" transform="matrix(1 0 0 1 0 0)" d="M28.5 425.3595L566.25 425.3595L566.25 425.3595L566.25 813.6151L566.25 813.6151L28.5 813.6151L28.5 813.6151L28.5 425.3595z" /></clipPath><clipPath id="268"><path id="" clip-rule="evenodd" transform="matrix(1 0 0 1 0 0)" d="M179.07 604.968L179.6078 604.968L179.6078 604.968L179.6078 736.7167L179.6078 736.7167L179.07 736.7167" /></clipPath><clipPath id="269"><path id="" clip-rule="evenodd" transform="matrix(1 0 0 1 0 0)" d="M28.5 28.5L566.25 28.5L566.25 28.5L566.25 813.6151L566.25 813.6151L28.5 813.6151L28.5 813.6151L28.5 28.5z" /></clipPath><clipPath id="270"><path id="" clip-rule="evenodd" transform="matrix(1 0 0 1 0 0)" d="M28.5 28.5L566.25 28.5L566.25 28.5L566.25 813.6151L566.25 813.6151L28.5 813.6151L28.5 813.6151L28.5 28.5z" /></clipPath><clipPath id="271"><path id="" clip-rule="evenodd" transform="matrix(1 0 0 1 0 0)" d="M28.5 425.3595L566.25 425.3595L566.25 425.3595L566.25 813.6151L566.25 813.6151L28.5 813.6151L28.5 813.6151L28.5 425.3595z" /></clipPath><clipPath id="272"><path id="" clip-rule="evenodd" transform="matrix(1 0 0 1 0 0)" d="M28.5 28.5L566.25 28.5L566.25 28.5L566.25 813.6151L566.25 813.6151L28.5 813.6151L28.5 813.6151L28.5 28.5z" /></clipPath><clipPath id="273"><path id="" clip-rule="evenodd" transform="matrix(1 0 0 1 0 0)" d="M28.5 28.5L566.25 28.5L566.25 28.5L566.25 813.6151L566.25 813.6151L28.5 813.6151L28.5 813.6151L28.5 28.5z" /></clipPath><clipPath id="274"><path id="" clip-rule="evenodd" transform="matrix(1 0 0 1 0 0)" d="M28.5 425.3595L566.25 425.3595L566.25 425.3595L566.25 813.6151L566.25 813.6151L28.5 813.6151L28.5 813.6151L28.5 425.3595z" /></clipPath><clipPath id="275"><path id="" clip-rule="evenodd" transform="matrix(1 0 0 1 0 0)" d="M28.5 28.5L566.25 28.5L566.25 28.5L566.25 813.6151L566.25 813.6151L28.5 813.6151L28.5 813.6151L28.5 28.5z" /></clipPath><clipPath id="276"><path id="" clip-rule="evenodd" transform="matrix(1 0 0 1 0 0)" d="M28.5 28.5L566.25 28.5L566.25 28.5L566.25 813.6151L566.25 813.6151L28.5 813.6151L28.5 813.6151L28.5 28.5z" /></clipPath><clipPath id="277"><path id="" clip-rule="evenodd" transform="matrix(1 0 0 1 0 0)" d="M28.5 425.3595L566.25 425.3595L566.25 425.3595L566.25 813.6151L566.25 813.6151L28.5 813.6151L28.5 813.6151L28.5 425.3595z" /></clipPath><clipPath id="278"><path id="" clip-rule="evenodd" transform="matrix(1 0 0 1 0 0)" d="M28.5 28.5L566.25 28.5L566.25 28.5L566.25 813.6151L566.25 813.6151L28.5 813.6151L28.5 813.6151L28.5 28.5z" /></clipPath><clipPath id="279"><path id="" clip-rule="evenodd" transform="matrix(1 0 0 1 0 0)" d="M28.5 28.5L566.25 28.5L566.25 28.5L566.25 813.6151L566.25 813.6151L28.5 813.6151L28.5 813.6151L28.5 28.5z" /></clipPath><clipPath id="280"><path id="" clip-rule="evenodd" transform="matrix(1 0 0 1 0 0)" d="M28.5 425.3595L566.25 425.3595L566.25 425.3595L566.25 813.6151L566.25 813.6151L28.5 813.6151L28.5 813.6151L28.5 425.3595z" /></clipPath><clipPath id="281"><path id="" clip-rule="evenodd" transform="matrix(1 0 0 1 0 0)" d="M28.5 28.5L566.25 28.5L566.25 28.5L566.25 813.6151L566.25 813.6151L28.5 813.6151L28.5 813.6151L28.5 28.5z" /></clipPath><clipPath id="282"><path id="" clip-rule="evenodd" transform="matrix(1 0 0 1 0 0)" d="M28.5 28.5L566.25 28.5L566.25 28.5L566.25 813.6151L566.25 813.6151L28.5 813.6151L28.5 813.6151L28.5 28.5z" /></clipPath><clipPath id="283"><path id="" clip-rule="evenodd" transform="matrix(1 0 0 1 0 0)" d="M28.5 425.3595L566.25 425.3595L566.25 425.3595L566.25 813.6151L566.25 813.6151L28.5 813.6151L28.5 813.6151L28.5 425.3595z" /></clipPath><clipPath id="284"><path id="" clip-rule="evenodd" transform="matrix(1 0 0 1 0 0)" d="M28.5 28.5L566.25 28.5L566.25 28.5L566.25 813.6151L566.25 813.6151L28.5 813.6151L28.5 813.6151L28.5 28.5z" /></clipPath><clipPath id="285"><path id="" clip-rule="evenodd" transform="matrix(1 0 0 1 0 0)" d="M28.5 28.5L566.25 28.5L566.25 28.5L566.25 813.6151L566.25 813.6151L28.5 813.6151L28.5 813.6151L28.5 28.5z" /></clipPath><clipPath id="286"><path id="" clip-rule="evenodd" transform="matrix(1 0 0 1 0 0)" d="M28.5 425.3595L566.25 425.3595L566.25 425.3595L566.25 813.6151L566.25 813.6151L28.5 813.6151L28.5 813.6151L28.5 425.3595z" /></clipPath><clipPath id="287"><path id="" clip-rule="evenodd" transform="matrix(1 0 0 1 0 0)" d="M28.5 28.5L566.25 28.5L566.25 28.5L566.25 813.6151L566.25 813.6151L28.5 813.6151L28.5 813.6151L28.5 28.5z" /></clipPath><clipPath id="288"><path id="" clip-rule="evenodd" transform="matrix(1 0 0 1 0 0)" d="M28.5 28.5L566.25 28.5L566.25 28.5L566.25 813.6151L566.25 813.6151L28.5 813.6151L28.5 813.6151L28.5 28.5z" /></clipPath><clipPath id="289"><path id="" clip-rule="evenodd" transform="matrix(1 0 0 1 0 0)" d="M28.5 425.3595L566.25 425.3595L566.25 425.3595L566.25 813.6151L566.25 813.6151L28.5 813.6151L28.5 813.6151L28.5 425.3595z" /></clipPath><clipPath id="290"><path id="" clip-rule="evenodd" transform="matrix(1 0 0 1 0 0)" d="M28.5 28.5L566.25 28.5L566.25 28.5L566.25 813.6151L566.25 813.6151L28.5 813.6151L28.5 813.6151L28.5 28.5z" /></clipPath><clipPath id="291"><path id="" clip-rule="evenodd" transform="matrix(1 0 0 1 0 0)" d="M28.5 425.3595L566.25 425.3595L566.25 425.3595L566.25 813.6151L566.25 813.6151L28.5 813.6151L28.5 813.6151L28.5 425.3595z" /></clipPath><clipPath id="292"><path id="" clip-rule="evenodd" transform="matrix(1 0 0 1 0 0)" d="M179.07 736.7167L179.6078 736.7167L179.6078 736.7167L179.6078 870.0787L179.6078 870.0787L179.07 870.0787" /></clipPath><clipPath id="293"><path id="" clip-rule="evenodd" transform="matrix(1 0 0 1 0 0)" d="M28.5 28.5L566.25 28.5L566.25 28.5L566.25 813.6151L566.25 813.6151L28.5 813.6151L28.5 813.6151L28.5 28.5z" /></clipPath><clipPath id="294"><path id="" clip-rule="evenodd" transform="matrix(1 0 0 1 0 0)" d="M28.5 28.5L566.25 28.5L566.25 28.5L566.25 813.6151L566.25 813.6151L28.5 813.6151L28.5 813.6151L28.5 28.5z" /></clipPath><clipPath id="295"><path id="" clip-rule="evenodd" transform="matrix(1 0 0 1 0 0)" d="M28.5 425.3595L566.25 425.3595L566.25 425.3595L566.25 813.6151L566.25 813.6151L28.5 813.6151L28.5 813.6151L28.5 425.3595z" /></clipPath><clipPath id="296"><path id="" clip-rule="evenodd" transform="matrix(1 0 0 1 0 0)" d="M28.5 28.5L566.25 28.5L566.25 28.5L566.25 813.6151L566.25 813.6151L28.5 813.6151L28.5 813.6151L28.5 28.5z" /></clipPath><clipPath id="297"><path id="" clip-rule="evenodd" transform="matrix(1 0 0 1 0 0)" d="M28.5 28.5L566.25 28.5L566.25 28.5L566.25 813.6151L566.25 813.6151L28.5 813.6151L28.5 813.6151L28.5 28.5z" /></clipPath><clipPath id="298"><path id="" clip-rule="evenodd" transform="matrix(1 0 0 1 0 0)" d="M28.5 425.3595L566.25 425.3595L566.25 425.3595L566.25 813.6151L566.25 813.6151L28.5 813.6151L28.5 813.6151L28.5 425.3595z" /></clipPath><clipPath id="299"><path id="" clip-rule="evenodd" transform="matrix(1 0 0 1 0 0)" d="M28.5 28.5L566.25 28.5L566.25 28.5L566.25 813.6151L566.25 813.6151L28.5 813.6151L28.5 813.6151L28.5 28.5z" /></clipPath><clipPath id="300"><path id="" clip-rule="evenodd" transform="matrix(1 0 0 1 0 0)" d="M28.5 28.5L566.25 28.5L566.25 28.5L566.25 813.6151L566.25 813.6151L28.5 813.6151L28.5 813.6151L28.5 28.5z" /></clipPath><clipPath id="301"><path id="" clip-rule="evenodd" transform="matrix(1 0 0 1 0 0)" d="M28.5 425.3595L566.25 425.3595L566.25 425.3595L566.25 813.6151L566.25 813.6151L28.5 813.6151L28.5 813.6151L28.5 425.3595z" /></clipPath><clipPath id="302"><path id="" clip-rule="evenodd" transform="matrix(1 0 0 1 0 0)" d="M28.5 28.5L566.25 28.5L566.25 28.5L566.25 813.6151L566.25 813.6151L28.5 813.6151L28.5 813.6151L28.5 28.5z" /></clipPath><clipPath id="303"><path id="" clip-rule="evenodd" transform="matrix(1 0 0 1 0 0)" d="M28.5 28.5L566.25 28.5L566.25 28.5L566.25 813.6151L566.25 813.6151L28.5 813.6151L28.5 813.6151L28.5 28.5z" /></clipPath><clipPath id="304"><path id="" clip-rule="evenodd" transform="matrix(1 0 0 1 0 0)" d="M28.5 425.3595L566.25 425.3595L566.25 425.3595L566.25 813.6151L566.25 813.6151L28.5 813.6151L28.5 813.6151L28.5 425.3595z" /></clipPath><clipPath id="305"><path id="" clip-rule="evenodd" transform="matrix(1 0 0 1 0 0)" d="M28.5 28.5L566.25 28.5L566.25 28.5L566.25 813.6151L566.25 813.6151L28.5 813.6151L28.5 813.6151L28.5 28.5z" /></clipPath><clipPath id="306"><path id="" clip-rule="evenodd" transform="matrix(1 0 0 1 0 0)" d="M28.5 28.5L566.25 28.5L566.25 28.5L566.25 813.6151L566.25 813.6151L28.5 813.6151L28.5 813.6151L28.5 28.5z" /></clipPath><clipPath id="307"><path id="" clip-rule="evenodd" transform="matrix(1 0 0 1 0 0)" d="M28.5 425.3595L566.25 425.3595L566.25 425.3595L566.25 813.6151L566.25 813.6151L28.5 813.6151L28.5 813.6151L28.5 425.3595z" /></clipPath><clipPath id="308"><path id="" clip-rule="evenodd" transform="matrix(1 0 0 1 0 0)" d="M28.5 28.5L566.25 28.5L566.25 28.5L566.25 813.6151L566.25 813.6151L28.5 813.6151L28.5 813.6151L28.5 28.5z" /></clipPath><clipPath id="309"><path id="" clip-rule="evenodd" transform="matrix(1 0 0 1 0 0)" d="M28.5 28.5L566.25 28.5L566.25 28.5L566.25 813.6151L566.25 813.6151L28.5 813.6151L28.5 813.6151L28.5 28.5z" /></clipPath><clipPath id="310"><path id="" clip-rule="evenodd" transform="matrix(1 0 0 1 0 0)" d="M28.5 425.3595L566.25 425.3595L566.25 425.3595L566.25 813.6151L566.25 813.6151L28.5 813.6151L28.5 813.6151L28.5 425.3595z" /></clipPath><clipPath id="311"><path id="" clip-rule="evenodd" transform="matrix(1 0 0 1 0 0)" d="M28.5 28.5L566.25 28.5L566.25 28.5L566.25 813.6151L566.25 813.6151L28.5 813.6151L28.5 813.6151L28.5 28.5z" /></clipPath><clipPath id="312"><path id="" clip-rule="evenodd" transform="matrix(1 0 0 1 0 0)" d="M28.5 28.5L566.25 28.5L566.25 28.5L566.25 813.6151L566.25 813.6151L28.5 813.6151L28.5 813.6151L28.5 28.5z" /></clipPath><clipPath id="313"><path id="" clip-rule="evenodd" transform="matrix(1 0 0 1 0 0)" d="M28.5 425.3595L566.25 425.3595L566.25 425.3595L566.25 813.6151L566.25 813.6151L28.5 813.6151L28.5 813.6151L28.5 425.3595z" /></clipPath><clipPath id="314"><path id="" clip-rule="evenodd" transform="matrix(1 0 0 1 0 0)" d="M28.5 28.5L566.25 28.5L566.25 28.5L566.25 813.6151L566.25 813.6151L28.5 813.6151L28.5 813.6151L28.5 28.5z" /></clipPath><clipPath id="315"><path id="" clip-rule="evenodd" transform="matrix(1 0 0 1 0 0)" d="M28.5 28.5L566.25 28.5L566.25 28.5L566.25 813.6151L566.25 813.6151L28.5 813.6151L28.5 813.6151L28.5 28.5z" /></clipPath><clipPath id="316"><path id="" clip-rule="evenodd" transform="matrix(1 0 0 1 0 0)" d="M28.5 425.3595L566.25 425.3595L566.25 425.3595L566.25 813.6151L566.25 813.6151L28.5 813.6151L28.5 813.6151L28.5 425.3595z" /></clipPath><clipPath id="317"><path id="" clip-rule="evenodd" transform="matrix(1 0 0 1 0 0)" d="M28.5 28.5L566.25 28.5L566.25 28.5L566.25 813.6151L566.25 813.6151L28.5 813.6151L28.5 813.6151L28.5 28.5z" /></clipPath></defs><g transform="matrix(1.333333 0 0 1.333333 0 0)"><g clip-path="url(#1)"><g clip-path="url(#2)"></g><g clip-path="url(#3)"><g clip-path="url(#4)"></g></g><g clip-path="url(#5)"></g><g clip-path="url(#6)"><g clip-path="url(#7)"></g></g><g clip-path="url(#8)"><g clip-path="url(#9)"><g clip-path="url(#10)"><path id="1" transform="matrix(1 0 0 -1 0 842)" d="M124.7572 376.847L533.985 376.847L533.985 375.2337L124.7572 375.2337z" stroke="none" fill="#37A574" fill-rule="nonzero" /></g></g></g><g clip-path="url(#11)"><g clip-path="url(#12)"><g clip-path="url(#13)"><g clip-path="url(#14)"></g></g></g></g><g clip-path="url(#15)"></g><g clip-path="url(#16)"><g clip-path="url(#17)"></g></g><g clip-path="url(#18)"><g clip-path="url(#19)"><g clip-path="url(#20)"></g></g></g><g clip-path="url(#21)"></g><g clip-path="url(#22)"><g clip-path="url(#23)"></g></g><g clip-path="url(#24)"></g><g clip-path="url(#25)"><g clip-path="url(#26)"></g></g><g clip-path="url(#27)"><g clip-path="url(#28)"><g clip-path="url(#29)"><path id="2" transform="matrix(1 0 0 -1 0 842)" d="M124.7572 589.2582L281.2425 589.2582L281.2425 587.645L124.7572 587.645z" stroke="none" fill="#37A574" fill-rule="nonzero" /></g></g></g><g clip-path="url(#30)"><g clip-path="url(#31)"><g clip-path="url(#32)"><g clip-path="url(#33)"></g></g></g></g><g clip-path="url(#34)"></g><g clip-path="url(#35)"><g clip-path="url(#36)"></g></g><g clip-path="url(#37)"><g clip-path="url(#38)"><g clip-path="url(#39)"></g></g></g><g clip-path="url(#40)"></g><g clip-path="url(#41)"><g clip-path="url(#42)"></g></g><g clip-path="url(#43)"><g clip-path="url(#44)"><g clip-path="url(#45)"></g></g></g><g clip-path="url(#46)"><g clip-path="url(#47)"><g clip-path="url(#48)"><g clip-path="url(#49)"></g></g></g></g><g clip-path="url(#50)"></g><g clip-path="url(#51)"><g clip-path="url(#52)"></g></g><g clip-path="url(#53)"><g clip-path="url(#54)"><g clip-path="url(#55)"></g></g></g><g clip-path="url(#56)"></g><g clip-path="url(#57)"><g clip-path="url(#58)"></g></g><g clip-path="url(#59)"><g clip-path="url(#60)"><g clip-path="url(#61)"></g></g></g><g clip-path="url(#62)"><g clip-path="url(#63)"><g clip-path="url(#64)"><g clip-path="url(#65)"></g></g></g></g><g clip-path="url(#66)"></g><g clip-path="url(#67)"><g clip-path="url(#68)"></g></g><g clip-path="url(#69)"><g clip-path="url(#70)"><g clip-path="url(#71)"></g></g></g><g clip-path="url(#72)"></g><g clip-path="url(#73)"><g clip-path="url(#74)"></g></g><g clip-path="url(#75)"><g clip-path="url(#76)"><g clip-path="url(#77)"></g></g></g><g clip-path="url(#78)"><g clip-path="url(#79)"><g clip-path="url(#80)"><g clip-path="url(#81)"></g></g></g></g><g clip-path="url(#82)"></g><g clip-path="url(#83)"><g clip-path="url(#84)"></g></g><g clip-path="url(#85)"><g clip-path="url(#86)"><g clip-path="url(#87)"></g></g></g><g clip-path="url(#88)"></g><g clip-path="url(#89)"><g clip-path="url(#90)"></g></g><g clip-path="url(#91)"><g clip-path="url(#92)"><g clip-path="url(#93)"><path id="79" transform="matrix(1 0 0 -1 0 842)" d="M377.4998 589.2582L533.985 589.2582L533.985 587.645L377.4998 587.645z" stroke="none" fill="#37A574" fill-rule="nonzero" /></g></g></g><g clip-path="url(#94)"><g clip-path="url(#95)"><g clip-path="url(#96)"><g clip-path="url(#97)"></g></g></g></g><g clip-path="url(#98)"></g><g clip-path="url(#99)"><g clip-path="url(#100)"></g></g><g clip-path="url(#101)"><g clip-path="url(#102)"><g clip-path="url(#103)"></g></g></g><g clip-path="url(#104)"></g><g clip-path="url(#105)"><g clip-path="url(#106)"></g></g><g clip-path="url(#107)"><g clip-path="url(#108)"><g clip-path="url(#109)"></g></g></g><g clip-path="url(#110)"><g clip-path="url(#111)"><g clip-path="url(#112)"><g clip-path="url(#113)"></g></g></g></g><g clip-path="url(#114)"></g><g clip-path="url(#115)"><g clip-path="url(#116)"></g></g><g clip-path="url(#117)"><g clip-path="url(#118)"><g clip-path="url(#119)"></g></g></g><g clip-path="url(#120)"></g><g clip-path="url(#121)"><g clip-path="url(#122)"></g></g><g clip-path="url(#123)"><g clip-path="url(#124)"><g clip-path="url(#125)"></g></g></g><g clip-path="url(#126)"><g clip-path="url(#127)"><g clip-path="url(#128)"><g clip-path="url(#129)"></g></g></g></g><g clip-path="url(#130)"></g><g clip-path="url(#131)"><g clip-path="url(#132)"></g></g><g clip-path="url(#133)"><g clip-path="url(#134)"><g clip-path="url(#135)"></g></g></g><g clip-path="url(#136)"></g><g clip-path="url(#137)"><g clip-path="url(#138)"></g></g><g clip-path="url(#139)"><g clip-path="url(#140)"><g clip-path="url(#141)"></g></g></g><g clip-path="url(#142)"><g clip-path="url(#143)"><g clip-path="url(#144)"><g clip-path="url(#145)"></g></g></g></g><g clip-path="url(#146)"></g><g clip-path="url(#147)"><g clip-path="url(#148)"></g></g><g clip-path="url(#149)"><g clip-path="url(#150)"><g clip-path="url(#151)"></g></g></g><g clip-path="url(#152)"></g><g clip-path="url(#153)"><g clip-path="url(#154)"></g></g><g clip-path="url(#155)"></g><g clip-path="url(#156)"><g clip-path="url(#157)"></g></g><g clip-path="url(#158)"><g clip-path="url(#159)"><g clip-path="url(#160)"></g></g></g><g clip-path="url(#161)"><g clip-path="url(#162)"><g clip-path="url(#163)"><g clip-path="url(#164)"></g></g></g></g><g clip-path="url(#165)"></g><g clip-path="url(#166)"><g clip-path="url(#167)"></g></g><g clip-path="url(#168)"><g clip-path="url(#169)"><g clip-path="url(#170)"></g></g></g><g clip-path="url(#171)"></g><g clip-path="url(#172)"><g clip-path="url(#173)"></g></g><g clip-path="url(#174)"></g><g clip-path="url(#175)"><g clip-path="url(#176)"></g></g><g clip-path="url(#177)"></g><g clip-path="url(#178)"><g clip-path="url(#179)"></g></g><g clip-path="url(#180)"><g clip-path="url(#181)"><g clip-path="url(#182)"></g></g></g><g clip-path="url(#183)"><g clip-path="url(#184)"><g clip-path="url(#185)"><g clip-path="url(#186)"></g></g></g></g><g clip-path="url(#187)"></g><g clip-path="url(#188)"><g clip-path="url(#189)"></g></g><g clip-path="url(#190)"><g clip-path="url(#191)"><g clip-path="url(#192)"></g></g></g><g clip-path="url(#193)"></g><g clip-path="url(#194)"><g clip-path="url(#195)"></g></g><g clip-path="url(#196)"></g><g clip-path="url(#197)"><g clip-path="url(#198)"></g></g><g clip-path="url(#199)"></g><g clip-path="url(#200)"><g clip-path="url(#201)"></g></g><g clip-path="url(#202)"><g clip-path="url(#203)"><g clip-path="url(#204)"></g></g></g><g clip-path="url(#205)"><g clip-path="url(#206)"><g clip-path="url(#207)"><g clip-path="url(#208)"></g></g></g></g><g clip-path="url(#209)"></g><g clip-path="url(#210)"><g clip-path="url(#211)"></g></g><g clip-path="url(#212)"><g clip-path="url(#213)"><g clip-path="url(#214)"></g></g></g><g clip-path="url(#215)"></g><g clip-path="url(#216)"><g clip-path="url(#217)"></g></g><g clip-path="url(#218)"></g><g clip-path="url(#219)"><g clip-path="url(#220)"><g transform="matrix(0.2766203 0 0 0.2767831 28.5 28.5)"><g transform="matrix(1 0 0 1 0 0)"><image x="0" y="0" xlink:href="img_01.png" width="1944" height="680" /></g></g></g></g><g clip-path="url(#221)"></g><g clip-path="url(#222)"><g clip-path="url(#223)"></g></g><g clip-path="url(#224)"><g clip-path="url(#225)"><g clip-path="url(#226)"><g transform="matrix(0.189 0 0 0.1882125 252.204 46.78357)"><g transform="matrix(1 0 0 1 0 0)"><image x="0" y="0" xlink:href="img_02.png" width="478" height="480" /></g></g></g></g></g><g clip-path="url(#227)"></g><g clip-path="url(#228)"><g clip-path="url(#229)"></g></g><g clip-path="url(#230)"></g><g clip-path="url(#231)"><g clip-path="url(#232)"></g></g><g clip-path="url(#233)"></g><g clip-path="url(#234)"><g clip-path="url(#235)"><g transform="matrix(0.2753539 0 0 0.2753539 251.6662 46.78357)"><g transform="matrix(1 0 0 1 0 0)"><image x="0" y="0" xlink:href="img_03.png" width="332" height="332" /></g></g></g></g><g clip-path="url(#236)"></g><g clip-path="url(#237)"><g clip-path="url(#238)"></g></g><g clip-path="url(#239)"></g><g clip-path="url(#240)"><g clip-path="url(#241)"></g></g><g clip-path="url(#242)"><g clip-path="url(#243)"><g clip-path="url(#244)"><path id="262" transform="matrix(1 0 0 -1 0 842)" d="M179.07 349.4218L179.6078 349.4218L179.6078 348.884L179.07 348.884z" stroke="none" fill="#37A574" fill-rule="nonzero" /><path id="263" transform="matrix(1 0 0 -1 0 842)" d="M179.07 237.5698L179.6078 237.5698L179.6078 237.032L179.07 237.032z" stroke="none" fill="#37A574" fill-rule="nonzero" /><path id="264" transform="matrix(1 0 0 -1 0 842)" d="M179.3389 348.884L179.3389 237.5698" stroke="#37A574" stroke-width="0.53775" stroke-dasharray="3,3" fill="none" /></g></g></g><g clip-path="url(#245)"></g><g clip-path="url(#246)"><g clip-path="url(#247)"></g></g><g clip-path="url(#248)"></g><g clip-path="url(#249)"><g clip-path="url(#250)"></g></g><g clip-path="url(#251)"></g><g clip-path="url(#252)"><g clip-path="url(#253)"></g></g><g clip-path="url(#254)"></g><g clip-path="url(#255)"><g clip-path="url(#256)"><path id="374" transform="matrix(1 0 0 -1 0 842)" d="M175.3058 349.4218L186.0607 349.4218L186.0607 338.6667L175.3058 338.6667z" stroke="none" fill="#FFFFFF" fill-rule="nonzero" /></g></g><g clip-path="url(#257)"></g><g clip-path="url(#258)"><g clip-path="url(#259)"><path id="375" transform="matrix(1 0 0 -1 0 842)" d="M179.6078 344.582L180.1455 344.582C 181.6297 344.582 182.8343 343.3774 182.8343 341.8932L182.8343 341.8932L182.8343 341.3555C 182.8343 339.8713 181.6297 338.6667 180.1455 338.6667L180.1455 338.6667L179.6078 338.6667C 178.1236 338.6667 176.919 339.8713 176.919 341.3555L176.919 341.3555L176.919 341.8932C 176.919 343.3774 178.1236 344.582 179.6078 344.582zM179.6078 346.1953L180.1455 346.1953C 182.5202 346.1953 184.4475 344.268 184.4475 341.8932L184.4475 341.8932L184.4475 341.3555C 184.4475 338.9808 182.5202 337.0535 180.1455 337.0535L180.1455 337.0535L179.6078 337.0535C 177.2331 337.0535 175.3058 338.9808 175.3058 341.3555L175.3058 341.3555L175.3058 341.8932C 175.3058 344.268 177.2331 346.1953 179.6078 346.1953z" stroke="none" fill="#37A574" fill-rule="evenodd" /></g></g><g clip-path="url(#260)"></g><g clip-path="url(#261)"><g clip-path="url(#262)"></g></g><g clip-path="url(#263)"></g><g clip-path="url(#264)"><g clip-path="url(#265)"></g></g><g clip-path="url(#266)"><g clip-path="url(#267)"><g clip-path="url(#268)"><path id="376" transform="matrix(1 0 0 -1 0 842)" d="M179.07 237.032L179.6078 237.032L179.6078 236.4943L179.07 236.4943z" stroke="none" fill="#37A574" fill-rule="nonzero" /><path id="377" transform="matrix(1 0 0 -1 0 842)" d="M179.07 105.821L179.6078 105.821L179.6078 105.2833L179.07 105.2833z" stroke="none" fill="#37A574" fill-rule="nonzero" /><path id="378" transform="matrix(1 0 0 -1 0 842)" d="M179.3389 236.4943L179.3389 105.821" stroke="#37A574" stroke-width="0.53775" stroke-dasharray="3,3" fill="none" /></g></g></g><g clip-path="url(#269)"></g><g clip-path="url(#270)"><g clip-path="url(#271)"></g></g><g clip-path="url(#272)"></g><g clip-path="url(#273)"><g clip-path="url(#274)"></g></g><g clip-path="url(#275)"></g><g clip-path="url(#276)"><g clip-path="url(#277)"></g></g><g clip-path="url(#278)"></g><g clip-path="url(#279)"><g clip-path="url(#280)"><path id="526" transform="matrix(1 0 0 -1 0 842)" d="M175.3058 237.032L186.0607 237.032L186.0607 226.277L175.3058 226.277z" stroke="none" fill="#FFFFFF" fill-rule="nonzero" /></g></g><g clip-path="url(#281)"></g><g clip-path="url(#282)"><g clip-path="url(#283)"><path id="527" transform="matrix(1 0 0 -1 0 842)" d="M179.6078 232.1923L180.1455 232.1923C 181.6297 232.1923 182.8343 230.9877 182.8343 229.5035L182.8343 229.5035L182.8343 228.9657C 182.8343 227.4816 181.6297 226.277 180.1455 226.277L180.1455 226.277L179.6078 226.277C 178.1236 226.277 176.919 227.4816 176.919 228.9657L176.919 228.9657L176.919 229.5035C 176.919 230.9877 178.1236 232.1923 179.6078 232.1923zM179.6078 233.8055L180.1455 233.8055C 182.5202 233.8055 184.4475 231.8782 184.4475 229.5035L184.4475 229.5035L184.4475 228.9657C 184.4475 226.5911 182.5202 224.6638 180.1455 224.6638L180.1455 224.6638L179.6078 224.6638C 177.2331 224.6638 175.3058 226.5911 175.3058 228.9657L175.3058 228.9657L175.3058 229.5035C 175.3058 231.8782 177.2331 233.8055 179.6078 233.8055z" stroke="none" fill="#37A574" fill-rule="evenodd" /></g></g><g clip-path="url(#284)"></g><g clip-path="url(#285)"><g clip-path="url(#286)"></g></g><g clip-path="url(#287)"></g><g clip-path="url(#288)"><g clip-path="url(#289)"></g></g><g clip-path="url(#290)"><g clip-path="url(#291)"><g clip-path="url(#292)"><path id="528" transform="matrix(1 0 0 -1 0 842)" d="M179.07 105.2833L179.6078 105.2833L179.6078 104.7455L179.07 104.7455z" stroke="none" fill="#37A574" fill-rule="nonzero" /><path id="530" transform="matrix(1 0 0 -1 0 842)" d="M179.3389 104.7455L179.3389 -27.54102" stroke="#37A574" stroke-width="0.53775" stroke-dasharray="3,3" fill="none" /></g></g></g><g clip-path="url(#293)"></g><g clip-path="url(#294)"><g clip-path="url(#295)"></g></g><g clip-path="url(#296)"></g><g clip-path="url(#297)"><g clip-path="url(#298)"></g></g><g clip-path="url(#299)"></g><g clip-path="url(#300)"><g clip-path="url(#301)"></g></g><g clip-path="url(#302)"></g><g clip-path="url(#303)"><g clip-path="url(#304)"><path id="608" transform="matrix(1 0 0 -1 0 842)" d="M175.3058 105.2833L186.0607 105.2833L186.0607 94.52826L175.3058 94.52826z" stroke="none" fill="#FFFFFF" fill-rule="nonzero" /></g></g><g clip-path="url(#305)"></g><g clip-path="url(#306)"><g clip-path="url(#307)"><path id="609" transform="matrix(1 0 0 -1 0 842)" d="M179.6078 100.4435L180.1455 100.4435C 181.6297 100.4435 182.8343 99.23895 182.8343 97.75476L182.8343 97.75476L182.8343 97.21698C 182.8343 95.73279 181.6297 94.5282 180.1455 94.5282L180.1455 94.5282L179.6078 94.5282C 178.1236 94.5282 176.919 95.73279 176.919 97.21698L176.919 97.21698L176.919 97.75476C 176.919 99.23895 178.1236 100.4435 179.6078 100.4435zM179.6078 102.0568L180.1455 102.0568C 182.5202 102.0568 184.4475 100.1295 184.4475 97.75476L184.4475 97.75476L184.4475 97.21698C 184.4475 94.84229 182.5202 92.91498 180.1455 92.91498L180.1455 92.91498L179.6078 92.91498C 177.2331 92.91498 175.3058 94.84229 175.3058 97.21698L175.3058 97.21698L175.3058 97.75476C 175.3058 100.1295 177.2331 102.0568 179.6078 102.0568z" stroke="none" fill="#37A574" fill-rule="evenodd" /></g></g><g clip-path="url(#308)"></g><g clip-path="url(#309)"><g clip-path="url(#310)"></g></g><g clip-path="url(#311)"></g><g clip-path="url(#312)"><g clip-path="url(#313)"></g></g><g clip-path="url(#314)"></g><g clip-path="url(#315)"><g clip-path="url(#316)"></g></g><g clip-path="url(#317)"></g></g></g></svg>