<svg xmlns="http://www.w3.org/2000/svg" xmlns:xlink="http://www.w3.org/1999/xlink" id="body_2" preserveAspectRatio="xMinYMin meet" viewBox="0 0 793 1123"><defs><clipPath id="1"><path id="" clip-rule="evenodd" transform="matrix(1 0 0 1 0 0)" d="M0 842L0 0L0 0L595 0L595 0L595 842L595 842L0 842z" /></clipPath><clipPath id="2"><path id="" clip-rule="evenodd" transform="matrix(1 0 0 1 0 0)" d="M28.5 28.5L566.25 28.5L566.25 28.5L566.25 813.6151L566.25 813.6151L28.5 813.6151L28.5 813.6151L28.5 28.5z" /></clipPath><clipPath id="3"><path id="" clip-rule="evenodd" transform="matrix(1 0 0 1 0 0)" d="M28.5 28.5L566.25 28.5L566.25 28.5L566.25 813.6151L566.25 813.6151L28.5 813.6151L28.5 813.6151L28.5 28.5z" /></clipPath><clipPath id="4"><path id="" clip-rule="evenodd" transform="matrix(1 0 0 1 0 0)" d="M28.5 -359.7555L566.25 -359.7555L566.25 -359.7555L566.25 253.2795L566.25 253.2795L28.5 253.2795L28.5 253.2795L28.5 -359.7555z" /></clipPath><clipPath id="5"><path id="" clip-rule="evenodd" transform="matrix(1 0 0 1 0 0)" d="M28.5 28.5L566.25 28.5L566.25 28.5L566.25 813.6151L566.25 813.6151L28.5 813.6151L28.5 813.6151L28.5 28.5z" /></clipPath><clipPath id="6"><path id="" clip-rule="evenodd" transform="matrix(1 0 0 1 0 0)" d="M28.5 28.5L566.25 28.5L566.25 28.5L566.25 813.6151L566.25 813.6151L28.5 813.6151L28.5 813.6151L28.5 28.5z" /></clipPath><clipPath id="7"><path id="" clip-rule="evenodd" transform="matrix(1 0 0 1 0 0)" d="M28.5 253.2795L566.25 253.2795L566.25 253.2795L566.25 339.3195L566.25 339.3195L28.5 339.3195L28.5 339.3195L28.5 253.2795z" /></clipPath><clipPath id="8"><path id="" clip-rule="evenodd" transform="matrix(1 0 0 1 0 0)" d="M28.5 28.5L566.25 28.5L566.25 28.5L566.25 813.6151L566.25 813.6151L28.5 813.6151L28.5 813.6151L28.5 28.5z" /></clipPath><clipPath id="9"><path id="" clip-rule="evenodd" transform="matrix(1 0 0 1 0 0)" d="M28.5 253.2795L566.25 253.2795L566.25 253.2795L566.25 339.3195L566.25 339.3195L28.5 339.3195L28.5 339.3195L28.5 253.2795z" /></clipPath><clipPath id="10"><path id="" clip-rule="evenodd" transform="matrix(1 0 0 1 0 0)" d="M60.765 285.5445L533.985 285.5445L533.985 285.5445L533.985 304.3657L533.985 304.3657L60.765 304.3657L60.765 304.3657L60.765 285.5445z" /></clipPath><clipPath id="11"><path id="" clip-rule="evenodd" transform="matrix(1 0 0 1 0 0)" d="M28.5 28.5L566.25 28.5L566.25 28.5L566.25 813.6151L566.25 813.6151L28.5 813.6151L28.5 813.6151L28.5 28.5z" /></clipPath><clipPath id="12"><path id="" clip-rule="evenodd" transform="matrix(1 0 0 1 0 0)" d="M28.5 253.2795L566.25 253.2795L566.25 253.2795L566.25 339.3195L566.25 339.3195L28.5 339.3195L28.5 339.3195L28.5 253.2795z" /></clipPath><clipPath id="13"><path id="" clip-rule="evenodd" transform="matrix(1 0 0 1 0 0)" d="M60.765 285.5445L533.985 285.5445L533.985 285.5445L533.985 304.3657L533.985 304.3657L60.765 304.3657L60.765 304.3657L60.765 285.5445z" /></clipPath><clipPath id="14"><path id="" clip-rule="evenodd" transform="matrix(1 0 0 1 0 0)" d="M124.7572 293.073L533.985 293.073L533.985 293.073L533.985 294.6863L533.985 294.6863L124.7572 294.6863L124.7572 294.6863L124.7572 293.073z" /></clipPath><clipPath id="15"><path id="" clip-rule="evenodd" transform="matrix(1 0 0 1 0 0)" d="M28.5 28.5L566.25 28.5L566.25 28.5L566.25 813.6151L566.25 813.6151L28.5 813.6151L28.5 813.6151L28.5 28.5z" /></clipPath><clipPath id="16"><path id="" clip-rule="evenodd" transform="matrix(1 0 0 1 0 0)" d="M28.5 28.5L566.25 28.5L566.25 28.5L566.25 813.6151L566.25 813.6151L28.5 813.6151L28.5 813.6151L28.5 28.5z" /></clipPath><clipPath id="17"><path id="" clip-rule="evenodd" transform="matrix(1 0 0 1 0 0)" d="M28.5 253.2795L566.25 253.2795L566.25 253.2795L566.25 339.3195L566.25 339.3195L28.5 339.3195L28.5 339.3195L28.5 253.2795z" /></clipPath><clipPath id="18"><path id="" clip-rule="evenodd" transform="matrix(1 0 0 1 0 0)" d="M28.5 28.5L566.25 28.5L566.25 28.5L566.25 813.6151L566.25 813.6151L28.5 813.6151L28.5 813.6151L28.5 28.5z" /></clipPath><clipPath id="19"><path id="" clip-rule="evenodd" transform="matrix(1 0 0 1 0 0)" d="M28.5 253.2795L566.25 253.2795L566.25 253.2795L566.25 339.3195L566.25 339.3195L28.5 339.3195L28.5 339.3195L28.5 253.2795z" /></clipPath><clipPath id="20"><path id="" clip-rule="evenodd" transform="matrix(1 0 0 1 0 0)" d="M60.765 285.5445L533.985 285.5445L533.985 285.5445L533.985 304.3657L533.985 304.3657L60.765 304.3657L60.765 304.3657L60.765 285.5445z" /></clipPath><clipPath id="21"><path id="" clip-rule="evenodd" transform="matrix(1 0 0 1 0 0)" d="M28.5 28.5L566.25 28.5L566.25 28.5L566.25 813.6151L566.25 813.6151L28.5 813.6151L28.5 813.6151L28.5 28.5z" /></clipPath><clipPath id="22"><path id="" clip-rule="evenodd" transform="matrix(1 0 0 1 0 0)" d="M28.5 28.5L566.25 28.5L566.25 28.5L566.25 813.6151L566.25 813.6151L28.5 813.6151L28.5 813.6151L28.5 28.5z" /></clipPath><clipPath id="23"><path id="" clip-rule="evenodd" transform="matrix(1 0 0 1 0 0)" d="M28.5 253.2795L566.25 253.2795L566.25 253.2795L566.25 339.3195L566.25 339.3195L28.5 339.3195L28.5 339.3195L28.5 253.2795z" /></clipPath><clipPath id="24"><path id="" clip-rule="evenodd" transform="matrix(1 0 0 1 0 0)" d="M28.5 28.5L566.25 28.5L566.25 28.5L566.25 813.6151L566.25 813.6151L28.5 813.6151L28.5 813.6151L28.5 28.5z" /></clipPath><clipPath id="25"><path id="" clip-rule="evenodd" transform="matrix(1 0 0 1 0 0)" d="M28.5 28.5L566.25 28.5L566.25 28.5L566.25 813.6151L566.25 813.6151L28.5 813.6151L28.5 813.6151L28.5 28.5z" /></clipPath><clipPath id="26"><path id="" clip-rule="evenodd" transform="matrix(1 0 0 1 0 0)" d="M28.5 339.3195L566.25 339.3195L566.25 339.3195L566.25 2708.646L566.25 2708.646L28.5 2708.646L28.5 2708.646L28.5 339.3195z" /></clipPath><clipPath id="27"><path id="" clip-rule="evenodd" transform="matrix(1 0 0 1 0 0)" d="M28.5 28.5L566.25 28.5L566.25 28.5L566.25 813.6151L566.25 813.6151L28.5 813.6151L28.5 813.6151L28.5 28.5z" /></clipPath><clipPath id="28"><path id="" clip-rule="evenodd" transform="matrix(1 0 0 1 0 0)" d="M28.5 339.3195L566.25 339.3195L566.25 339.3195L566.25 2708.646L566.25 2708.646L28.5 2708.646L28.5 2708.646L28.5 339.3195z" /></clipPath><clipPath id="29"><path id="" clip-rule="evenodd" transform="matrix(1 0 0 1 0 0)" d="M60.765 371.5845L533.985 371.5845L533.985 371.5845L533.985 390.4058L533.985 390.4058L60.765 390.4058L60.765 390.4058L60.765 371.5845z" /></clipPath><clipPath id="30"><path id="" clip-rule="evenodd" transform="matrix(1 0 0 1 0 0)" d="M28.5 28.5L566.25 28.5L566.25 28.5L566.25 813.6151L566.25 813.6151L28.5 813.6151L28.5 813.6151L28.5 28.5z" /></clipPath><clipPath id="31"><path id="" clip-rule="evenodd" transform="matrix(1 0 0 1 0 0)" d="M28.5 339.3195L566.25 339.3195L566.25 339.3195L566.25 2708.646L566.25 2708.646L28.5 2708.646L28.5 2708.646L28.5 339.3195z" /></clipPath><clipPath id="32"><path id="" clip-rule="evenodd" transform="matrix(1 0 0 1 0 0)" d="M60.765 371.5845L533.985 371.5845L533.985 371.5845L533.985 390.4058L533.985 390.4058L60.765 390.4058L60.765 390.4058L60.765 371.5845z" /></clipPath><clipPath id="33"><path id="" clip-rule="evenodd" transform="matrix(1 0 0 1 0 0)" d="M124.7572 379.113L533.985 379.113L533.985 379.113L533.985 380.7263L533.985 380.7263L124.7572 380.7263L124.7572 380.7263L124.7572 379.113z" /></clipPath><clipPath id="34"><path id="" clip-rule="evenodd" transform="matrix(1 0 0 1 0 0)" d="M28.5 28.5L566.25 28.5L566.25 28.5L566.25 813.6151L566.25 813.6151L28.5 813.6151L28.5 813.6151L28.5 28.5z" /></clipPath><clipPath id="35"><path id="" clip-rule="evenodd" transform="matrix(1 0 0 1 0 0)" d="M28.5 28.5L566.25 28.5L566.25 28.5L566.25 813.6151L566.25 813.6151L28.5 813.6151L28.5 813.6151L28.5 28.5z" /></clipPath><clipPath id="36"><path id="" clip-rule="evenodd" transform="matrix(1 0 0 1 0 0)" d="M28.5 339.3195L566.25 339.3195L566.25 339.3195L566.25 2708.646L566.25 2708.646L28.5 2708.646L28.5 2708.646L28.5 339.3195z" /></clipPath><clipPath id="37"><path id="" clip-rule="evenodd" transform="matrix(1 0 0 1 0 0)" d="M28.5 28.5L566.25 28.5L566.25 28.5L566.25 813.6151L566.25 813.6151L28.5 813.6151L28.5 813.6151L28.5 28.5z" /></clipPath><clipPath id="38"><path id="" clip-rule="evenodd" transform="matrix(1 0 0 1 0 0)" d="M28.5 339.3195L566.25 339.3195L566.25 339.3195L566.25 2708.646L566.25 2708.646L28.5 2708.646L28.5 2708.646L28.5 339.3195z" /></clipPath><clipPath id="39"><path id="" clip-rule="evenodd" transform="matrix(1 0 0 1 0 0)" d="M60.765 371.5845L533.985 371.5845L533.985 371.5845L533.985 390.4058L533.985 390.4058L60.765 390.4058L60.765 390.4058L60.765 371.5845z" /></clipPath><clipPath id="40"><path id="" clip-rule="evenodd" transform="matrix(1 0 0 1 0 0)" d="M28.5 28.5L566.25 28.5L566.25 28.5L566.25 813.6151L566.25 813.6151L28.5 813.6151L28.5 813.6151L28.5 28.5z" /></clipPath><clipPath id="41"><path id="" clip-rule="evenodd" transform="matrix(1 0 0 1 0 0)" d="M28.5 28.5L566.25 28.5L566.25 28.5L566.25 813.6151L566.25 813.6151L28.5 813.6151L28.5 813.6151L28.5 28.5z" /></clipPath><clipPath id="42"><path id="" clip-rule="evenodd" transform="matrix(1 0 0 1 0 0)" d="M28.5 339.3195L566.25 339.3195L566.25 339.3195L566.25 2708.646L566.25 2708.646L28.5 2708.646L28.5 2708.646L28.5 339.3195z" /></clipPath><clipPath id="43"><path id="" clip-rule="evenodd" transform="matrix(1 0 0 1 0 0)" d="M28.5 28.5L566.25 28.5L566.25 28.5L566.25 813.6151L566.25 813.6151L28.5 813.6151L28.5 813.6151L28.5 28.5z" /></clipPath><clipPath id="44"><path id="" clip-rule="evenodd" transform="matrix(1 0 0 1 0 0)" d="M28.5 28.5L566.25 28.5L566.25 28.5L566.25 813.6151L566.25 813.6151L28.5 813.6151L28.5 813.6151L28.5 28.5z" /></clipPath><clipPath id="45"><path id="" clip-rule="evenodd" transform="matrix(1 0 0 1 0 0)" d="M28.5 -359.7555L566.25 -359.7555L566.25 -359.7555L566.25 253.2795L566.25 253.2795L28.5 253.2795L28.5 253.2795L28.5 -359.7555z" /></clipPath><clipPath id="46"><path id="" clip-rule="evenodd" transform="matrix(1 0 0 1 0 0)" d="M28.5 28.5L566.25 28.5L566.25 28.5L566.25 813.6151L566.25 813.6151L28.5 813.6151L28.5 813.6151L28.5 28.5z" /></clipPath><clipPath id="47"><path id="" clip-rule="evenodd" transform="matrix(1 0 0 1 0 0)" d="M28.5 28.5L566.25 28.5L566.25 28.5L566.25 813.6151L566.25 813.6151L28.5 813.6151L28.5 813.6151L28.5 28.5z" /></clipPath><clipPath id="48"><path id="" clip-rule="evenodd" transform="matrix(1 0 0 1 0 0)" d="M28.5 253.2795L566.25 253.2795L566.25 253.2795L566.25 339.3195L566.25 339.3195L28.5 339.3195L28.5 339.3195L28.5 253.2795z" /></clipPath><clipPath id="49"><path id="" clip-rule="evenodd" transform="matrix(1 0 0 1 0 0)" d="M28.5 28.5L566.25 28.5L566.25 28.5L566.25 813.6151L566.25 813.6151L28.5 813.6151L28.5 813.6151L28.5 28.5z" /></clipPath><clipPath id="50"><path id="" clip-rule="evenodd" transform="matrix(1 0 0 1 0 0)" d="M28.5 253.2795L566.25 253.2795L566.25 253.2795L566.25 339.3195L566.25 339.3195L28.5 339.3195L28.5 339.3195L28.5 253.2795z" /></clipPath><clipPath id="51"><path id="" clip-rule="evenodd" transform="matrix(1 0 0 1 0 0)" d="M60.765 285.5445L533.985 285.5445L533.985 285.5445L533.985 304.3657L533.985 304.3657L60.765 304.3657L60.765 304.3657L60.765 285.5445z" /></clipPath><clipPath id="52"><path id="" clip-rule="evenodd" transform="matrix(1 0 0 1 0 0)" d="M28.5 28.5L566.25 28.5L566.25 28.5L566.25 813.6151L566.25 813.6151L28.5 813.6151L28.5 813.6151L28.5 28.5z" /></clipPath><clipPath id="53"><path id="" clip-rule="evenodd" transform="matrix(1 0 0 1 0 0)" d="M28.5 253.2795L566.25 253.2795L566.25 253.2795L566.25 339.3195L566.25 339.3195L28.5 339.3195L28.5 339.3195L28.5 253.2795z" /></clipPath><clipPath id="54"><path id="" clip-rule="evenodd" transform="matrix(1 0 0 1 0 0)" d="M60.765 285.5445L533.985 285.5445L533.985 285.5445L533.985 304.3657L533.985 304.3657L60.765 304.3657L60.765 304.3657L60.765 285.5445z" /></clipPath><clipPath id="55"><path id="" clip-rule="evenodd" transform="matrix(1 0 0 1 0 0)" d="M124.7572 293.073L533.985 293.073L533.985 293.073L533.985 294.6863L533.985 294.6863L124.7572 294.6863L124.7572 294.6863L124.7572 293.073z" /></clipPath><clipPath id="56"><path id="" clip-rule="evenodd" transform="matrix(1 0 0 1 0 0)" d="M28.5 28.5L566.25 28.5L566.25 28.5L566.25 813.6151L566.25 813.6151L28.5 813.6151L28.5 813.6151L28.5 28.5z" /></clipPath><clipPath id="57"><path id="" clip-rule="evenodd" transform="matrix(1 0 0 1 0 0)" d="M28.5 28.5L566.25 28.5L566.25 28.5L566.25 813.6151L566.25 813.6151L28.5 813.6151L28.5 813.6151L28.5 28.5z" /></clipPath><clipPath id="58"><path id="" clip-rule="evenodd" transform="matrix(1 0 0 1 0 0)" d="M28.5 253.2795L566.25 253.2795L566.25 253.2795L566.25 339.3195L566.25 339.3195L28.5 339.3195L28.5 339.3195L28.5 253.2795z" /></clipPath><clipPath id="59"><path id="" clip-rule="evenodd" transform="matrix(1 0 0 1 0 0)" d="M28.5 28.5L566.25 28.5L566.25 28.5L566.25 813.6151L566.25 813.6151L28.5 813.6151L28.5 813.6151L28.5 28.5z" /></clipPath><clipPath id="60"><path id="" clip-rule="evenodd" transform="matrix(1 0 0 1 0 0)" d="M28.5 253.2795L566.25 253.2795L566.25 253.2795L566.25 339.3195L566.25 339.3195L28.5 339.3195L28.5 339.3195L28.5 253.2795z" /></clipPath><clipPath id="61"><path id="" clip-rule="evenodd" transform="matrix(1 0 0 1 0 0)" d="M60.765 285.5445L533.985 285.5445L533.985 285.5445L533.985 304.3657L533.985 304.3657L60.765 304.3657L60.765 304.3657L60.765 285.5445z" /></clipPath><clipPath id="62"><path id="" clip-rule="evenodd" transform="matrix(1 0 0 1 0 0)" d="M28.5 28.5L566.25 28.5L566.25 28.5L566.25 813.6151L566.25 813.6151L28.5 813.6151L28.5 813.6151L28.5 28.5z" /></clipPath><clipPath id="63"><path id="" clip-rule="evenodd" transform="matrix(1 0 0 1 0 0)" d="M28.5 28.5L566.25 28.5L566.25 28.5L566.25 813.6151L566.25 813.6151L28.5 813.6151L28.5 813.6151L28.5 28.5z" /></clipPath><clipPath id="64"><path id="" clip-rule="evenodd" transform="matrix(1 0 0 1 0 0)" d="M28.5 253.2795L566.25 253.2795L566.25 253.2795L566.25 339.3195L566.25 339.3195L28.5 339.3195L28.5 339.3195L28.5 253.2795z" /></clipPath><clipPath id="65"><path id="" clip-rule="evenodd" transform="matrix(1 0 0 1 0 0)" d="M28.5 28.5L566.25 28.5L566.25 28.5L566.25 813.6151L566.25 813.6151L28.5 813.6151L28.5 813.6151L28.5 28.5z" /></clipPath><clipPath id="66"><path id="" clip-rule="evenodd" transform="matrix(1 0 0 1 0 0)" d="M28.5 28.5L566.25 28.5L566.25 28.5L566.25 813.6151L566.25 813.6151L28.5 813.6151L28.5 813.6151L28.5 28.5z" /></clipPath><clipPath id="67"><path id="" clip-rule="evenodd" transform="matrix(1 0 0 1 0 0)" d="M28.5 339.3195L566.25 339.3195L566.25 339.3195L566.25 2708.646L566.25 2708.646L28.5 2708.646L28.5 2708.646L28.5 339.3195z" /></clipPath><clipPath id="68"><path id="" clip-rule="evenodd" transform="matrix(1 0 0 1 0 0)" d="M28.5 28.5L566.25 28.5L566.25 28.5L566.25 813.6151L566.25 813.6151L28.5 813.6151L28.5 813.6151L28.5 28.5z" /></clipPath><clipPath id="69"><path id="" clip-rule="evenodd" transform="matrix(1 0 0 1 0 0)" d="M28.5 339.3195L566.25 339.3195L566.25 339.3195L566.25 2708.646L566.25 2708.646L28.5 2708.646L28.5 2708.646L28.5 339.3195z" /></clipPath><clipPath id="70"><path id="" clip-rule="evenodd" transform="matrix(1 0 0 1 0 0)" d="M60.765 371.5845L533.985 371.5845L533.985 371.5845L533.985 390.4058L533.985 390.4058L60.765 390.4058L60.765 390.4058L60.765 371.5845z" /></clipPath><clipPath id="71"><path id="" clip-rule="evenodd" transform="matrix(1 0 0 1 0 0)" d="M28.5 28.5L566.25 28.5L566.25 28.5L566.25 813.6151L566.25 813.6151L28.5 813.6151L28.5 813.6151L28.5 28.5z" /></clipPath><clipPath id="72"><path id="" clip-rule="evenodd" transform="matrix(1 0 0 1 0 0)" d="M28.5 339.3195L566.25 339.3195L566.25 339.3195L566.25 2708.646L566.25 2708.646L28.5 2708.646L28.5 2708.646L28.5 339.3195z" /></clipPath><clipPath id="73"><path id="" clip-rule="evenodd" transform="matrix(1 0 0 1 0 0)" d="M60.765 371.5845L533.985 371.5845L533.985 371.5845L533.985 390.4058L533.985 390.4058L60.765 390.4058L60.765 390.4058L60.765 371.5845z" /></clipPath><clipPath id="74"><path id="" clip-rule="evenodd" transform="matrix(1 0 0 1 0 0)" d="M124.7572 379.113L533.985 379.113L533.985 379.113L533.985 380.7263L533.985 380.7263L124.7572 380.7263L124.7572 380.7263L124.7572 379.113z" /></clipPath><clipPath id="75"><path id="" clip-rule="evenodd" transform="matrix(1 0 0 1 0 0)" d="M28.5 28.5L566.25 28.5L566.25 28.5L566.25 813.6151L566.25 813.6151L28.5 813.6151L28.5 813.6151L28.5 28.5z" /></clipPath><clipPath id="76"><path id="" clip-rule="evenodd" transform="matrix(1 0 0 1 0 0)" d="M28.5 28.5L566.25 28.5L566.25 28.5L566.25 813.6151L566.25 813.6151L28.5 813.6151L28.5 813.6151L28.5 28.5z" /></clipPath><clipPath id="77"><path id="" clip-rule="evenodd" transform="matrix(1 0 0 1 0 0)" d="M28.5 339.3195L566.25 339.3195L566.25 339.3195L566.25 2708.646L566.25 2708.646L28.5 2708.646L28.5 2708.646L28.5 339.3195z" /></clipPath><clipPath id="78"><path id="" clip-rule="evenodd" transform="matrix(1 0 0 1 0 0)" d="M28.5 28.5L566.25 28.5L566.25 28.5L566.25 813.6151L566.25 813.6151L28.5 813.6151L28.5 813.6151L28.5 28.5z" /></clipPath><clipPath id="79"><path id="" clip-rule="evenodd" transform="matrix(1 0 0 1 0 0)" d="M28.5 339.3195L566.25 339.3195L566.25 339.3195L566.25 2708.646L566.25 2708.646L28.5 2708.646L28.5 2708.646L28.5 339.3195z" /></clipPath><clipPath id="80"><path id="" clip-rule="evenodd" transform="matrix(1 0 0 1 0 0)" d="M60.765 371.5845L533.985 371.5845L533.985 371.5845L533.985 390.4058L533.985 390.4058L60.765 390.4058L60.765 390.4058L60.765 371.5845z" /></clipPath><clipPath id="81"><path id="" clip-rule="evenodd" transform="matrix(1 0 0 1 0 0)" d="M28.5 28.5L566.25 28.5L566.25 28.5L566.25 813.6151L566.25 813.6151L28.5 813.6151L28.5 813.6151L28.5 28.5z" /></clipPath><clipPath id="82"><path id="" clip-rule="evenodd" transform="matrix(1 0 0 1 0 0)" d="M28.5 28.5L566.25 28.5L566.25 28.5L566.25 813.6151L566.25 813.6151L28.5 813.6151L28.5 813.6151L28.5 28.5z" /></clipPath><clipPath id="83"><path id="" clip-rule="evenodd" transform="matrix(1 0 0 1 0 0)" d="M28.5 339.3195L566.25 339.3195L566.25 339.3195L566.25 2708.646L566.25 2708.646L28.5 2708.646L28.5 2708.646L28.5 339.3195z" /></clipPath><clipPath id="84"><path id="" clip-rule="evenodd" transform="matrix(1 0 0 1 0 0)" d="M28.5 28.5L566.25 28.5L566.25 28.5L566.25 813.6151L566.25 813.6151L28.5 813.6151L28.5 813.6151L28.5 28.5z" /></clipPath><clipPath id="85"><path id="" clip-rule="evenodd" transform="matrix(1 0 0 1 0 0)" d="M28.5 28.5L566.25 28.5L566.25 28.5L566.25 813.6151L566.25 813.6151L28.5 813.6151L28.5 813.6151L28.5 28.5z" /></clipPath><clipPath id="86"><path id="" clip-rule="evenodd" transform="matrix(1 0 0 1 0 0)" d="M28.5 -359.7555L566.25 -359.7555L566.25 -359.7555L566.25 253.2795L566.25 253.2795L28.5 253.2795L28.5 253.2795L28.5 -359.7555z" /></clipPath><clipPath id="87"><path id="" clip-rule="evenodd" transform="matrix(1 0 0 1 0 0)" d="M28.5 28.5L566.25 28.5L566.25 28.5L566.25 813.6151L566.25 813.6151L28.5 813.6151L28.5 813.6151L28.5 28.5z" /></clipPath><clipPath id="88"><path id="" clip-rule="evenodd" transform="matrix(1 0 0 1 0 0)" d="M28.5 28.5L566.25 28.5L566.25 28.5L566.25 813.6151L566.25 813.6151L28.5 813.6151L28.5 813.6151L28.5 28.5z" /></clipPath><clipPath id="89"><path id="" clip-rule="evenodd" transform="matrix(1 0 0 1 0 0)" d="M28.5 253.2795L566.25 253.2795L566.25 253.2795L566.25 339.3195L566.25 339.3195L28.5 339.3195L28.5 339.3195L28.5 253.2795z" /></clipPath><clipPath id="90"><path id="" clip-rule="evenodd" transform="matrix(1 0 0 1 0 0)" d="M28.5 28.5L566.25 28.5L566.25 28.5L566.25 813.6151L566.25 813.6151L28.5 813.6151L28.5 813.6151L28.5 28.5z" /></clipPath><clipPath id="91"><path id="" clip-rule="evenodd" transform="matrix(1 0 0 1 0 0)" d="M28.5 253.2795L566.25 253.2795L566.25 253.2795L566.25 339.3195L566.25 339.3195L28.5 339.3195L28.5 339.3195L28.5 253.2795z" /></clipPath><clipPath id="92"><path id="" clip-rule="evenodd" transform="matrix(1 0 0 1 0 0)" d="M60.765 285.5445L533.985 285.5445L533.985 285.5445L533.985 304.3657L533.985 304.3657L60.765 304.3657L60.765 304.3657L60.765 285.5445z" /></clipPath><clipPath id="93"><path id="" clip-rule="evenodd" transform="matrix(1 0 0 1 0 0)" d="M28.5 28.5L566.25 28.5L566.25 28.5L566.25 813.6151L566.25 813.6151L28.5 813.6151L28.5 813.6151L28.5 28.5z" /></clipPath><clipPath id="94"><path id="" clip-rule="evenodd" transform="matrix(1 0 0 1 0 0)" d="M28.5 253.2795L566.25 253.2795L566.25 253.2795L566.25 339.3195L566.25 339.3195L28.5 339.3195L28.5 339.3195L28.5 253.2795z" /></clipPath><clipPath id="95"><path id="" clip-rule="evenodd" transform="matrix(1 0 0 1 0 0)" d="M60.765 285.5445L533.985 285.5445L533.985 285.5445L533.985 304.3657L533.985 304.3657L60.765 304.3657L60.765 304.3657L60.765 285.5445z" /></clipPath><clipPath id="96"><path id="" clip-rule="evenodd" transform="matrix(1 0 0 1 0 0)" d="M124.7572 293.073L533.985 293.073L533.985 293.073L533.985 294.6863L533.985 294.6863L124.7572 294.6863L124.7572 294.6863L124.7572 293.073z" /></clipPath><clipPath id="97"><path id="" clip-rule="evenodd" transform="matrix(1 0 0 1 0 0)" d="M28.5 28.5L566.25 28.5L566.25 28.5L566.25 813.6151L566.25 813.6151L28.5 813.6151L28.5 813.6151L28.5 28.5z" /></clipPath><clipPath id="98"><path id="" clip-rule="evenodd" transform="matrix(1 0 0 1 0 0)" d="M28.5 28.5L566.25 28.5L566.25 28.5L566.25 813.6151L566.25 813.6151L28.5 813.6151L28.5 813.6151L28.5 28.5z" /></clipPath><clipPath id="99"><path id="" clip-rule="evenodd" transform="matrix(1 0 0 1 0 0)" d="M28.5 253.2795L566.25 253.2795L566.25 253.2795L566.25 339.3195L566.25 339.3195L28.5 339.3195L28.5 339.3195L28.5 253.2795z" /></clipPath><clipPath id="100"><path id="" clip-rule="evenodd" transform="matrix(1 0 0 1 0 0)" d="M28.5 28.5L566.25 28.5L566.25 28.5L566.25 813.6151L566.25 813.6151L28.5 813.6151L28.5 813.6151L28.5 28.5z" /></clipPath><clipPath id="101"><path id="" clip-rule="evenodd" transform="matrix(1 0 0 1 0 0)" d="M28.5 253.2795L566.25 253.2795L566.25 253.2795L566.25 339.3195L566.25 339.3195L28.5 339.3195L28.5 339.3195L28.5 253.2795z" /></clipPath><clipPath id="102"><path id="" clip-rule="evenodd" transform="matrix(1 0 0 1 0 0)" d="M60.765 285.5445L533.985 285.5445L533.985 285.5445L533.985 304.3657L533.985 304.3657L60.765 304.3657L60.765 304.3657L60.765 285.5445z" /></clipPath><clipPath id="103"><path id="" clip-rule="evenodd" transform="matrix(1 0 0 1 0 0)" d="M28.5 28.5L566.25 28.5L566.25 28.5L566.25 813.6151L566.25 813.6151L28.5 813.6151L28.5 813.6151L28.5 28.5z" /></clipPath><clipPath id="104"><path id="" clip-rule="evenodd" transform="matrix(1 0 0 1 0 0)" d="M28.5 28.5L566.25 28.5L566.25 28.5L566.25 813.6151L566.25 813.6151L28.5 813.6151L28.5 813.6151L28.5 28.5z" /></clipPath><clipPath id="105"><path id="" clip-rule="evenodd" transform="matrix(1 0 0 1 0 0)" d="M28.5 253.2795L566.25 253.2795L566.25 253.2795L566.25 339.3195L566.25 339.3195L28.5 339.3195L28.5 339.3195L28.5 253.2795z" /></clipPath><clipPath id="106"><path id="" clip-rule="evenodd" transform="matrix(1 0 0 1 0 0)" d="M28.5 28.5L566.25 28.5L566.25 28.5L566.25 813.6151L566.25 813.6151L28.5 813.6151L28.5 813.6151L28.5 28.5z" /></clipPath><clipPath id="107"><path id="" clip-rule="evenodd" transform="matrix(1 0 0 1 0 0)" d="M28.5 28.5L566.25 28.5L566.25 28.5L566.25 813.6151L566.25 813.6151L28.5 813.6151L28.5 813.6151L28.5 28.5z" /></clipPath><clipPath id="108"><path id="" clip-rule="evenodd" transform="matrix(1 0 0 1 0 0)" d="M28.5 339.3195L566.25 339.3195L566.25 339.3195L566.25 2708.646L566.25 2708.646L28.5 2708.646L28.5 2708.646L28.5 339.3195z" /></clipPath><clipPath id="109"><path id="" clip-rule="evenodd" transform="matrix(1 0 0 1 0 0)" d="M28.5 28.5L566.25 28.5L566.25 28.5L566.25 813.6151L566.25 813.6151L28.5 813.6151L28.5 813.6151L28.5 28.5z" /></clipPath><clipPath id="110"><path id="" clip-rule="evenodd" transform="matrix(1 0 0 1 0 0)" d="M28.5 339.3195L566.25 339.3195L566.25 339.3195L566.25 2708.646L566.25 2708.646L28.5 2708.646L28.5 2708.646L28.5 339.3195z" /></clipPath><clipPath id="111"><path id="" clip-rule="evenodd" transform="matrix(1 0 0 1 0 0)" d="M60.765 371.5845L533.985 371.5845L533.985 371.5845L533.985 390.4058L533.985 390.4058L60.765 390.4058L60.765 390.4058L60.765 371.5845z" /></clipPath><clipPath id="112"><path id="" clip-rule="evenodd" transform="matrix(1 0 0 1 0 0)" d="M28.5 28.5L566.25 28.5L566.25 28.5L566.25 813.6151L566.25 813.6151L28.5 813.6151L28.5 813.6151L28.5 28.5z" /></clipPath><clipPath id="113"><path id="" clip-rule="evenodd" transform="matrix(1 0 0 1 0 0)" d="M28.5 339.3195L566.25 339.3195L566.25 339.3195L566.25 2708.646L566.25 2708.646L28.5 2708.646L28.5 2708.646L28.5 339.3195z" /></clipPath><clipPath id="114"><path id="" clip-rule="evenodd" transform="matrix(1 0 0 1 0 0)" d="M60.765 371.5845L533.985 371.5845L533.985 371.5845L533.985 390.4058L533.985 390.4058L60.765 390.4058L60.765 390.4058L60.765 371.5845z" /></clipPath><clipPath id="115"><path id="" clip-rule="evenodd" transform="matrix(1 0 0 1 0 0)" d="M124.7572 379.113L533.985 379.113L533.985 379.113L533.985 380.7263L533.985 380.7263L124.7572 380.7263L124.7572 380.7263L124.7572 379.113z" /></clipPath><clipPath id="116"><path id="" clip-rule="evenodd" transform="matrix(1 0 0 1 0 0)" d="M28.5 28.5L566.25 28.5L566.25 28.5L566.25 813.6151L566.25 813.6151L28.5 813.6151L28.5 813.6151L28.5 28.5z" /></clipPath><clipPath id="117"><path id="" clip-rule="evenodd" transform="matrix(1 0 0 1 0 0)" d="M28.5 28.5L566.25 28.5L566.25 28.5L566.25 813.6151L566.25 813.6151L28.5 813.6151L28.5 813.6151L28.5 28.5z" /></clipPath><clipPath id="118"><path id="" clip-rule="evenodd" transform="matrix(1 0 0 1 0 0)" d="M28.5 339.3195L566.25 339.3195L566.25 339.3195L566.25 2708.646L566.25 2708.646L28.5 2708.646L28.5 2708.646L28.5 339.3195z" /></clipPath><clipPath id="119"><path id="" clip-rule="evenodd" transform="matrix(1 0 0 1 0 0)" d="M28.5 28.5L566.25 28.5L566.25 28.5L566.25 813.6151L566.25 813.6151L28.5 813.6151L28.5 813.6151L28.5 28.5z" /></clipPath><clipPath id="120"><path id="" clip-rule="evenodd" transform="matrix(1 0 0 1 0 0)" d="M28.5 339.3195L566.25 339.3195L566.25 339.3195L566.25 2708.646L566.25 2708.646L28.5 2708.646L28.5 2708.646L28.5 339.3195z" /></clipPath><clipPath id="121"><path id="" clip-rule="evenodd" transform="matrix(1 0 0 1 0 0)" d="M60.765 371.5845L533.985 371.5845L533.985 371.5845L533.985 390.4058L533.985 390.4058L60.765 390.4058L60.765 390.4058L60.765 371.5845z" /></clipPath><clipPath id="122"><path id="" clip-rule="evenodd" transform="matrix(1 0 0 1 0 0)" d="M28.5 28.5L566.25 28.5L566.25 28.5L566.25 813.6151L566.25 813.6151L28.5 813.6151L28.5 813.6151L28.5 28.5z" /></clipPath><clipPath id="123"><path id="" clip-rule="evenodd" transform="matrix(1 0 0 1 0 0)" d="M28.5 28.5L566.25 28.5L566.25 28.5L566.25 813.6151L566.25 813.6151L28.5 813.6151L28.5 813.6151L28.5 28.5z" /></clipPath><clipPath id="124"><path id="" clip-rule="evenodd" transform="matrix(1 0 0 1 0 0)" d="M28.5 339.3195L566.25 339.3195L566.25 339.3195L566.25 2708.646L566.25 2708.646L28.5 2708.646L28.5 2708.646L28.5 339.3195z" /></clipPath><clipPath id="125"><path id="" clip-rule="evenodd" transform="matrix(1 0 0 1 0 0)" d="M28.5 28.5L566.25 28.5L566.25 28.5L566.25 813.6151L566.25 813.6151L28.5 813.6151L28.5 813.6151L28.5 28.5z" /></clipPath><clipPath id="126"><path id="" clip-rule="evenodd" transform="matrix(1 0 0 1 0 0)" d="M28.5 28.5L566.25 28.5L566.25 28.5L566.25 813.6151L566.25 813.6151L28.5 813.6151L28.5 813.6151L28.5 28.5z" /></clipPath><clipPath id="127"><path id="" clip-rule="evenodd" transform="matrix(1 0 0 1 0 0)" d="M28.5 -359.7555L566.25 -359.7555L566.25 -359.7555L566.25 253.2795L566.25 253.2795L28.5 253.2795L28.5 253.2795L28.5 -359.7555z" /></clipPath><clipPath id="128"><path id="" clip-rule="evenodd" transform="matrix(1 0 0 1 0 0)" d="M28.5 28.5L566.25 28.5L566.25 28.5L566.25 813.6151L566.25 813.6151L28.5 813.6151L28.5 813.6151L28.5 28.5z" /></clipPath><clipPath id="129"><path id="" clip-rule="evenodd" transform="matrix(1 0 0 1 0 0)" d="M28.5 28.5L566.25 28.5L566.25 28.5L566.25 813.6151L566.25 813.6151L28.5 813.6151L28.5 813.6151L28.5 28.5z" /></clipPath><clipPath id="130"><path id="" clip-rule="evenodd" transform="matrix(1 0 0 1 0 0)" d="M28.5 253.2795L566.25 253.2795L566.25 253.2795L566.25 339.3195L566.25 339.3195L28.5 339.3195L28.5 339.3195L28.5 253.2795z" /></clipPath><clipPath id="131"><path id="" clip-rule="evenodd" transform="matrix(1 0 0 1 0 0)" d="M28.5 28.5L566.25 28.5L566.25 28.5L566.25 813.6151L566.25 813.6151L28.5 813.6151L28.5 813.6151L28.5 28.5z" /></clipPath><clipPath id="132"><path id="" clip-rule="evenodd" transform="matrix(1 0 0 1 0 0)" d="M28.5 253.2795L566.25 253.2795L566.25 253.2795L566.25 339.3195L566.25 339.3195L28.5 339.3195L28.5 339.3195L28.5 253.2795z" /></clipPath><clipPath id="133"><path id="" clip-rule="evenodd" transform="matrix(1 0 0 1 0 0)" d="M60.765 285.5445L533.985 285.5445L533.985 285.5445L533.985 304.3657L533.985 304.3657L60.765 304.3657L60.765 304.3657L60.765 285.5445z" /></clipPath><clipPath id="134"><path id="" clip-rule="evenodd" transform="matrix(1 0 0 1 0 0)" d="M28.5 28.5L566.25 28.5L566.25 28.5L566.25 813.6151L566.25 813.6151L28.5 813.6151L28.5 813.6151L28.5 28.5z" /></clipPath><clipPath id="135"><path id="" clip-rule="evenodd" transform="matrix(1 0 0 1 0 0)" d="M28.5 253.2795L566.25 253.2795L566.25 253.2795L566.25 339.3195L566.25 339.3195L28.5 339.3195L28.5 339.3195L28.5 253.2795z" /></clipPath><clipPath id="136"><path id="" clip-rule="evenodd" transform="matrix(1 0 0 1 0 0)" d="M60.765 285.5445L533.985 285.5445L533.985 285.5445L533.985 304.3657L533.985 304.3657L60.765 304.3657L60.765 304.3657L60.765 285.5445z" /></clipPath><clipPath id="137"><path id="" clip-rule="evenodd" transform="matrix(1 0 0 1 0 0)" d="M124.7572 293.073L533.985 293.073L533.985 293.073L533.985 294.6863L533.985 294.6863L124.7572 294.6863L124.7572 294.6863L124.7572 293.073z" /></clipPath><clipPath id="138"><path id="" clip-rule="evenodd" transform="matrix(1 0 0 1 0 0)" d="M28.5 28.5L566.25 28.5L566.25 28.5L566.25 813.6151L566.25 813.6151L28.5 813.6151L28.5 813.6151L28.5 28.5z" /></clipPath><clipPath id="139"><path id="" clip-rule="evenodd" transform="matrix(1 0 0 1 0 0)" d="M28.5 28.5L566.25 28.5L566.25 28.5L566.25 813.6151L566.25 813.6151L28.5 813.6151L28.5 813.6151L28.5 28.5z" /></clipPath><clipPath id="140"><path id="" clip-rule="evenodd" transform="matrix(1 0 0 1 0 0)" d="M28.5 253.2795L566.25 253.2795L566.25 253.2795L566.25 339.3195L566.25 339.3195L28.5 339.3195L28.5 339.3195L28.5 253.2795z" /></clipPath><clipPath id="141"><path id="" clip-rule="evenodd" transform="matrix(1 0 0 1 0 0)" d="M28.5 28.5L566.25 28.5L566.25 28.5L566.25 813.6151L566.25 813.6151L28.5 813.6151L28.5 813.6151L28.5 28.5z" /></clipPath><clipPath id="142"><path id="" clip-rule="evenodd" transform="matrix(1 0 0 1 0 0)" d="M28.5 253.2795L566.25 253.2795L566.25 253.2795L566.25 339.3195L566.25 339.3195L28.5 339.3195L28.5 339.3195L28.5 253.2795z" /></clipPath><clipPath id="143"><path id="" clip-rule="evenodd" transform="matrix(1 0 0 1 0 0)" d="M60.765 285.5445L533.985 285.5445L533.985 285.5445L533.985 304.3657L533.985 304.3657L60.765 304.3657L60.765 304.3657L60.765 285.5445z" /></clipPath><clipPath id="144"><path id="" clip-rule="evenodd" transform="matrix(1 0 0 1 0 0)" d="M28.5 28.5L566.25 28.5L566.25 28.5L566.25 813.6151L566.25 813.6151L28.5 813.6151L28.5 813.6151L28.5 28.5z" /></clipPath><clipPath id="145"><path id="" clip-rule="evenodd" transform="matrix(1 0 0 1 0 0)" d="M28.5 28.5L566.25 28.5L566.25 28.5L566.25 813.6151L566.25 813.6151L28.5 813.6151L28.5 813.6151L28.5 28.5z" /></clipPath><clipPath id="146"><path id="" clip-rule="evenodd" transform="matrix(1 0 0 1 0 0)" d="M28.5 253.2795L566.25 253.2795L566.25 253.2795L566.25 339.3195L566.25 339.3195L28.5 339.3195L28.5 339.3195L28.5 253.2795z" /></clipPath><clipPath id="147"><path id="" clip-rule="evenodd" transform="matrix(1 0 0 1 0 0)" d="M28.5 28.5L566.25 28.5L566.25 28.5L566.25 813.6151L566.25 813.6151L28.5 813.6151L28.5 813.6151L28.5 28.5z" /></clipPath><clipPath id="148"><path id="" clip-rule="evenodd" transform="matrix(1 0 0 1 0 0)" d="M28.5 28.5L566.25 28.5L566.25 28.5L566.25 813.6151L566.25 813.6151L28.5 813.6151L28.5 813.6151L28.5 28.5z" /></clipPath><clipPath id="149"><path id="" clip-rule="evenodd" transform="matrix(1 0 0 1 0 0)" d="M28.5 339.3195L566.25 339.3195L566.25 339.3195L566.25 2708.646L566.25 2708.646L28.5 2708.646L28.5 2708.646L28.5 339.3195z" /></clipPath><clipPath id="150"><path id="" clip-rule="evenodd" transform="matrix(1 0 0 1 0 0)" d="M28.5 28.5L566.25 28.5L566.25 28.5L566.25 813.6151L566.25 813.6151L28.5 813.6151L28.5 813.6151L28.5 28.5z" /></clipPath><clipPath id="151"><path id="" clip-rule="evenodd" transform="matrix(1 0 0 1 0 0)" d="M28.5 339.3195L566.25 339.3195L566.25 339.3195L566.25 2708.646L566.25 2708.646L28.5 2708.646L28.5 2708.646L28.5 339.3195z" /></clipPath><clipPath id="152"><path id="" clip-rule="evenodd" transform="matrix(1 0 0 1 0 0)" d="M60.765 371.5845L533.985 371.5845L533.985 371.5845L533.985 390.4058L533.985 390.4058L60.765 390.4058L60.765 390.4058L60.765 371.5845z" /></clipPath><clipPath id="153"><path id="" clip-rule="evenodd" transform="matrix(1 0 0 1 0 0)" d="M28.5 28.5L566.25 28.5L566.25 28.5L566.25 813.6151L566.25 813.6151L28.5 813.6151L28.5 813.6151L28.5 28.5z" /></clipPath><clipPath id="154"><path id="" clip-rule="evenodd" transform="matrix(1 0 0 1 0 0)" d="M28.5 339.3195L566.25 339.3195L566.25 339.3195L566.25 2708.646L566.25 2708.646L28.5 2708.646L28.5 2708.646L28.5 339.3195z" /></clipPath><clipPath id="155"><path id="" clip-rule="evenodd" transform="matrix(1 0 0 1 0 0)" d="M60.765 371.5845L533.985 371.5845L533.985 371.5845L533.985 390.4058L533.985 390.4058L60.765 390.4058L60.765 390.4058L60.765 371.5845z" /></clipPath><clipPath id="156"><path id="" clip-rule="evenodd" transform="matrix(1 0 0 1 0 0)" d="M124.7572 379.113L533.985 379.113L533.985 379.113L533.985 380.7263L533.985 380.7263L124.7572 380.7263L124.7572 380.7263L124.7572 379.113z" /></clipPath><clipPath id="157"><path id="" clip-rule="evenodd" transform="matrix(1 0 0 1 0 0)" d="M28.5 28.5L566.25 28.5L566.25 28.5L566.25 813.6151L566.25 813.6151L28.5 813.6151L28.5 813.6151L28.5 28.5z" /></clipPath><clipPath id="158"><path id="" clip-rule="evenodd" transform="matrix(1 0 0 1 0 0)" d="M28.5 28.5L566.25 28.5L566.25 28.5L566.25 813.6151L566.25 813.6151L28.5 813.6151L28.5 813.6151L28.5 28.5z" /></clipPath><clipPath id="159"><path id="" clip-rule="evenodd" transform="matrix(1 0 0 1 0 0)" d="M28.5 339.3195L566.25 339.3195L566.25 339.3195L566.25 2708.646L566.25 2708.646L28.5 2708.646L28.5 2708.646L28.5 339.3195z" /></clipPath><clipPath id="160"><path id="" clip-rule="evenodd" transform="matrix(1 0 0 1 0 0)" d="M28.5 28.5L566.25 28.5L566.25 28.5L566.25 813.6151L566.25 813.6151L28.5 813.6151L28.5 813.6151L28.5 28.5z" /></clipPath><clipPath id="161"><path id="" clip-rule="evenodd" transform="matrix(1 0 0 1 0 0)" d="M28.5 339.3195L566.25 339.3195L566.25 339.3195L566.25 2708.646L566.25 2708.646L28.5 2708.646L28.5 2708.646L28.5 339.3195z" /></clipPath><clipPath id="162"><path id="" clip-rule="evenodd" transform="matrix(1 0 0 1 0 0)" d="M60.765 371.5845L533.985 371.5845L533.985 371.5845L533.985 390.4058L533.985 390.4058L60.765 390.4058L60.765 390.4058L60.765 371.5845z" /></clipPath><clipPath id="163"><path id="" clip-rule="evenodd" transform="matrix(1 0 0 1 0 0)" d="M28.5 28.5L566.25 28.5L566.25 28.5L566.25 813.6151L566.25 813.6151L28.5 813.6151L28.5 813.6151L28.5 28.5z" /></clipPath><clipPath id="164"><path id="" clip-rule="evenodd" transform="matrix(1 0 0 1 0 0)" d="M28.5 28.5L566.25 28.5L566.25 28.5L566.25 813.6151L566.25 813.6151L28.5 813.6151L28.5 813.6151L28.5 28.5z" /></clipPath><clipPath id="165"><path id="" clip-rule="evenodd" transform="matrix(1 0 0 1 0 0)" d="M28.5 339.3195L566.25 339.3195L566.25 339.3195L566.25 2708.646L566.25 2708.646L28.5 2708.646L28.5 2708.646L28.5 339.3195z" /></clipPath><clipPath id="166"><path id="" clip-rule="evenodd" transform="matrix(1 0 0 1 0 0)" d="M28.5 28.5L566.25 28.5L566.25 28.5L566.25 813.6151L566.25 813.6151L28.5 813.6151L28.5 813.6151L28.5 28.5z" /></clipPath><clipPath id="167"><path id="" clip-rule="evenodd" transform="matrix(1 0 0 1 0 0)" d="M28.5 28.5L566.25 28.5L566.25 28.5L566.25 813.6151L566.25 813.6151L28.5 813.6151L28.5 813.6151L28.5 28.5z" /></clipPath><clipPath id="168"><path id="" clip-rule="evenodd" transform="matrix(1 0 0 1 0 0)" d="M28.5 28.5L566.25 28.5L566.25 28.5L566.25 253.2795L566.25 253.2795L28.5 253.2795L28.5 253.2795L28.5 28.5z" /></clipPath><clipPath id="169"><path id="" clip-rule="evenodd" transform="matrix(1 0 0 1 0 0)" d="M28.5 28.5L566.25 28.5L566.25 28.5L566.25 813.6151L566.25 813.6151L28.5 813.6151L28.5 813.6151L28.5 28.5z" /></clipPath><clipPath id="170"><path id="" clip-rule="evenodd" transform="matrix(1 0 0 1 0 0)" d="M28.5 28.5L566.25 28.5L566.25 28.5L566.25 813.6151L566.25 813.6151L28.5 813.6151L28.5 813.6151L28.5 28.5z" /></clipPath><clipPath id="171"><path id="" clip-rule="evenodd" transform="matrix(1 0 0 1 0 0)" d="M28.5 28.5L566.25 28.5L566.25 28.5L566.25 253.2795L566.25 253.2795L28.5 253.2795L28.5 253.2795L28.5 28.5z" /></clipPath><clipPath id="172"><path id="" clip-rule="evenodd" transform="matrix(1 0 0 1 0 0)" d="M28.5 28.5L566.25 28.5L566.25 28.5L566.25 813.6151L566.25 813.6151L28.5 813.6151L28.5 813.6151L28.5 28.5z" /></clipPath><clipPath id="173"><path id="" clip-rule="evenodd" transform="matrix(1 0 0 1 0 0)" d="M28.5 28.5L566.25 28.5L566.25 28.5L566.25 813.6151L566.25 813.6151L28.5 813.6151L28.5 813.6151L28.5 28.5z" /></clipPath><clipPath id="174"><path id="" clip-rule="evenodd" transform="matrix(1 0 0 1 0 0)" d="M28.5 28.5L566.25 28.5L566.25 28.5L566.25 253.2795L566.25 253.2795L28.5 253.2795L28.5 253.2795L28.5 28.5z" /></clipPath><clipPath id="175"><path id="" clip-rule="evenodd" transform="matrix(1 0 0 1 0 0)" d="M28.5 28.5L566.25 28.5L566.25 28.5L566.25 813.6151L566.25 813.6151L28.5 813.6151L28.5 813.6151L28.5 28.5z" /></clipPath><clipPath id="176"><path id="" clip-rule="evenodd" transform="matrix(1 0 0 1 0 0)" d="M28.5 28.5L566.25 28.5L566.25 28.5L566.25 813.6151L566.25 813.6151L28.5 813.6151L28.5 813.6151L28.5 28.5z" /></clipPath><clipPath id="177"><path id="" clip-rule="evenodd" transform="matrix(1 0 0 1 0 0)" d="M28.5 28.5L566.25 28.5L566.25 28.5L566.25 253.2795L566.25 253.2795L28.5 253.2795L28.5 253.2795L28.5 28.5z" /></clipPath><clipPath id="178"><path id="" clip-rule="evenodd" transform="matrix(1 0 0 1 0 0)" d="M28.5 28.5L566.25 28.5L566.25 28.5L566.25 813.6151L566.25 813.6151L28.5 813.6151L28.5 813.6151L28.5 28.5z" /></clipPath><clipPath id="179"><path id="" clip-rule="evenodd" transform="matrix(1 0 0 1 0 0)" d="M28.5 28.5L566.25 28.5L566.25 28.5L566.25 813.6151L566.25 813.6151L28.5 813.6151L28.5 813.6151L28.5 28.5z" /></clipPath><clipPath id="180"><path id="" clip-rule="evenodd" transform="matrix(1 0 0 1 0 0)" d="M28.5 28.5L566.25 28.5L566.25 28.5L566.25 253.2795L566.25 253.2795L28.5 253.2795L28.5 253.2795L28.5 28.5z" /></clipPath><clipPath id="181"><path id="" clip-rule="evenodd" transform="matrix(1 0 0 1 0 0)" d="M28.5 28.5L566.25 28.5L566.25 28.5L566.25 813.6151L566.25 813.6151L28.5 813.6151L28.5 813.6151L28.5 28.5z" /></clipPath><clipPath id="182"><path id="" clip-rule="evenodd" transform="matrix(1 0 0 1 0 0)" d="M28.5 28.5L566.25 28.5L566.25 28.5L566.25 253.2795L566.25 253.2795L28.5 253.2795L28.5 253.2795L28.5 28.5z" /></clipPath><clipPath id="183"><path id="" clip-rule="evenodd" transform="matrix(1 0 0 1 0 0)" d="M179.07 -48.39825L179.6078 -48.39825L179.6078 -48.39825L179.6078 84.96375L179.6078 84.96375L179.07 84.96375" /></clipPath><clipPath id="184"><path id="" clip-rule="evenodd" transform="matrix(1 0 0 1 0 0)" d="M28.5 28.5L566.25 28.5L566.25 28.5L566.25 813.6151L566.25 813.6151L28.5 813.6151L28.5 813.6151L28.5 28.5z" /></clipPath><clipPath id="185"><path id="" clip-rule="evenodd" transform="matrix(1 0 0 1 0 0)" d="M28.5 28.5L566.25 28.5L566.25 28.5L566.25 813.6151L566.25 813.6151L28.5 813.6151L28.5 813.6151L28.5 28.5z" /></clipPath><clipPath id="186"><path id="" clip-rule="evenodd" transform="matrix(1 0 0 1 0 0)" d="M28.5 28.5L566.25 28.5L566.25 28.5L566.25 253.2795L566.25 253.2795L28.5 253.2795L28.5 253.2795L28.5 28.5z" /></clipPath><clipPath id="187"><path id="" clip-rule="evenodd" transform="matrix(1 0 0 1 0 0)" d="M28.5 28.5L566.25 28.5L566.25 28.5L566.25 813.6151L566.25 813.6151L28.5 813.6151L28.5 813.6151L28.5 28.5z" /></clipPath><clipPath id="188"><path id="" clip-rule="evenodd" transform="matrix(1 0 0 1 0 0)" d="M28.5 28.5L566.25 28.5L566.25 28.5L566.25 813.6151L566.25 813.6151L28.5 813.6151L28.5 813.6151L28.5 28.5z" /></clipPath><clipPath id="189"><path id="" clip-rule="evenodd" transform="matrix(1 0 0 1 0 0)" d="M28.5 28.5L566.25 28.5L566.25 28.5L566.25 253.2795L566.25 253.2795L28.5 253.2795L28.5 253.2795L28.5 28.5z" /></clipPath><clipPath id="190"><path id="" clip-rule="evenodd" transform="matrix(1 0 0 1 0 0)" d="M28.5 28.5L566.25 28.5L566.25 28.5L566.25 813.6151L566.25 813.6151L28.5 813.6151L28.5 813.6151L28.5 28.5z" /></clipPath><clipPath id="191"><path id="" clip-rule="evenodd" transform="matrix(1 0 0 1 0 0)" d="M28.5 28.5L566.25 28.5L566.25 28.5L566.25 813.6151L566.25 813.6151L28.5 813.6151L28.5 813.6151L28.5 28.5z" /></clipPath><clipPath id="192"><path id="" clip-rule="evenodd" transform="matrix(1 0 0 1 0 0)" d="M28.5 28.5L566.25 28.5L566.25 28.5L566.25 253.2795L566.25 253.2795L28.5 253.2795L28.5 253.2795L28.5 28.5z" /></clipPath><clipPath id="193"><path id="" clip-rule="evenodd" transform="matrix(1 0 0 1 0 0)" d="M28.5 28.5L566.25 28.5L566.25 28.5L566.25 813.6151L566.25 813.6151L28.5 813.6151L28.5 813.6151L28.5 28.5z" /></clipPath><clipPath id="194"><path id="" clip-rule="evenodd" transform="matrix(1 0 0 1 0 0)" d="M28.5 28.5L566.25 28.5L566.25 28.5L566.25 813.6151L566.25 813.6151L28.5 813.6151L28.5 813.6151L28.5 28.5z" /></clipPath><clipPath id="195"><path id="" clip-rule="evenodd" transform="matrix(1 0 0 1 0 0)" d="M28.5 28.5L566.25 28.5L566.25 28.5L566.25 253.2795L566.25 253.2795L28.5 253.2795L28.5 253.2795L28.5 28.5z" /></clipPath><clipPath id="196"><path id="" clip-rule="evenodd" transform="matrix(1 0 0 1 0 0)" d="M28.5 28.5L566.25 28.5L566.25 28.5L566.25 813.6151L566.25 813.6151L28.5 813.6151L28.5 813.6151L28.5 28.5z" /></clipPath><clipPath id="197"><path id="" clip-rule="evenodd" transform="matrix(1 0 0 1 0 0)" d="M28.5 28.5L566.25 28.5L566.25 28.5L566.25 813.6151L566.25 813.6151L28.5 813.6151L28.5 813.6151L28.5 28.5z" /></clipPath><clipPath id="198"><path id="" clip-rule="evenodd" transform="matrix(1 0 0 1 0 0)" d="M28.5 28.5L566.25 28.5L566.25 28.5L566.25 253.2795L566.25 253.2795L28.5 253.2795L28.5 253.2795L28.5 28.5z" /></clipPath><clipPath id="199"><path id="" clip-rule="evenodd" transform="matrix(1 0 0 1 0 0)" d="M28.5 28.5L566.25 28.5L566.25 28.5L566.25 813.6151L566.25 813.6151L28.5 813.6151L28.5 813.6151L28.5 28.5z" /></clipPath><clipPath id="200"><path id="" clip-rule="evenodd" transform="matrix(1 0 0 1 0 0)" d="M28.5 28.5L566.25 28.5L566.25 28.5L566.25 253.2795L566.25 253.2795L28.5 253.2795L28.5 253.2795L28.5 28.5z" /></clipPath><clipPath id="201"><path id="" clip-rule="evenodd" transform="matrix(1 0 0 1 0 0)" d="M179.07 84.96375L179.6078 84.96375L179.6078 84.96375L179.6078 253.2795L179.6078 253.2795L179.07 253.2795" /></clipPath><clipPath id="202"><path id="" clip-rule="evenodd" transform="matrix(1 0 0 1 0 0)" d="M28.5 28.5L566.25 28.5L566.25 28.5L566.25 813.6151L566.25 813.6151L28.5 813.6151L28.5 813.6151L28.5 28.5z" /></clipPath><clipPath id="203"><path id="" clip-rule="evenodd" transform="matrix(1 0 0 1 0 0)" d="M28.5 28.5L566.25 28.5L566.25 28.5L566.25 813.6151L566.25 813.6151L28.5 813.6151L28.5 813.6151L28.5 28.5z" /></clipPath><clipPath id="204"><path id="" clip-rule="evenodd" transform="matrix(1 0 0 1 0 0)" d="M28.5 28.5L566.25 28.5L566.25 28.5L566.25 253.2795L566.25 253.2795L28.5 253.2795L28.5 253.2795L28.5 28.5z" /></clipPath><clipPath id="205"><path id="" clip-rule="evenodd" transform="matrix(1 0 0 1 0 0)" d="M28.5 28.5L566.25 28.5L566.25 28.5L566.25 813.6151L566.25 813.6151L28.5 813.6151L28.5 813.6151L28.5 28.5z" /></clipPath><clipPath id="206"><path id="" clip-rule="evenodd" transform="matrix(1 0 0 1 0 0)" d="M28.5 28.5L566.25 28.5L566.25 28.5L566.25 813.6151L566.25 813.6151L28.5 813.6151L28.5 813.6151L28.5 28.5z" /></clipPath><clipPath id="207"><path id="" clip-rule="evenodd" transform="matrix(1 0 0 1 0 0)" d="M28.5 28.5L566.25 28.5L566.25 28.5L566.25 253.2795L566.25 253.2795L28.5 253.2795L28.5 253.2795L28.5 28.5z" /></clipPath><clipPath id="208"><path id="" clip-rule="evenodd" transform="matrix(1 0 0 1 0 0)" d="M28.5 28.5L566.25 28.5L566.25 28.5L566.25 813.6151L566.25 813.6151L28.5 813.6151L28.5 813.6151L28.5 28.5z" /></clipPath><clipPath id="209"><path id="" clip-rule="evenodd" transform="matrix(1 0 0 1 0 0)" d="M28.5 28.5L566.25 28.5L566.25 28.5L566.25 813.6151L566.25 813.6151L28.5 813.6151L28.5 813.6151L28.5 28.5z" /></clipPath><clipPath id="210"><path id="" clip-rule="evenodd" transform="matrix(1 0 0 1 0 0)" d="M28.5 28.5L566.25 28.5L566.25 28.5L566.25 253.2795L566.25 253.2795L28.5 253.2795L28.5 253.2795L28.5 28.5z" /></clipPath><clipPath id="211"><path id="" clip-rule="evenodd" transform="matrix(1 0 0 1 0 0)" d="M28.5 28.5L566.25 28.5L566.25 28.5L566.25 813.6151L566.25 813.6151L28.5 813.6151L28.5 813.6151L28.5 28.5z" /></clipPath><clipPath id="212"><path id="" clip-rule="evenodd" transform="matrix(1 0 0 1 0 0)" d="M28.5 28.5L566.25 28.5L566.25 28.5L566.25 813.6151L566.25 813.6151L28.5 813.6151L28.5 813.6151L28.5 28.5z" /></clipPath><clipPath id="213"><path id="" clip-rule="evenodd" transform="matrix(1 0 0 1 0 0)" d="M28.5 28.5L566.25 28.5L566.25 28.5L566.25 253.2795L566.25 253.2795L28.5 253.2795L28.5 253.2795L28.5 28.5z" /></clipPath><clipPath id="214"><path id="" clip-rule="evenodd" transform="matrix(1 0 0 1 0 0)" d="M28.5 28.5L566.25 28.5L566.25 28.5L566.25 813.6151L566.25 813.6151L28.5 813.6151L28.5 813.6151L28.5 28.5z" /></clipPath><clipPath id="215"><path id="" clip-rule="evenodd" transform="matrix(1 0 0 1 0 0)" d="M28.5 28.5L566.25 28.5L566.25 28.5L566.25 813.6151L566.25 813.6151L28.5 813.6151L28.5 813.6151L28.5 28.5z" /></clipPath><clipPath id="216"><path id="" clip-rule="evenodd" transform="matrix(1 0 0 1 0 0)" d="M28.5 28.5L566.25 28.5L566.25 28.5L566.25 253.2795L566.25 253.2795L28.5 253.2795L28.5 253.2795L28.5 28.5z" /></clipPath><clipPath id="217"><path id="" clip-rule="evenodd" transform="matrix(1 0 0 1 0 0)" d="M28.5 28.5L566.25 28.5L566.25 28.5L566.25 813.6151L566.25 813.6151L28.5 813.6151L28.5 813.6151L28.5 28.5z" /></clipPath><clipPath id="218"><path id="" clip-rule="evenodd" transform="matrix(1 0 0 1 0 0)" d="M28.5 28.5L566.25 28.5L566.25 28.5L566.25 813.6151L566.25 813.6151L28.5 813.6151L28.5 813.6151L28.5 28.5z" /></clipPath><clipPath id="219"><path id="" clip-rule="evenodd" transform="matrix(1 0 0 1 0 0)" d="M28.5 28.5L566.25 28.5L566.25 28.5L566.25 253.2795L566.25 253.2795L28.5 253.2795L28.5 253.2795L28.5 28.5z" /></clipPath><clipPath id="220"><path id="" clip-rule="evenodd" transform="matrix(1 0 0 1 0 0)" d="M28.5 28.5L566.25 28.5L566.25 28.5L566.25 813.6151L566.25 813.6151L28.5 813.6151L28.5 813.6151L28.5 28.5z" /></clipPath><clipPath id="221"><path id="" clip-rule="evenodd" transform="matrix(1 0 0 1 0 0)" d="M28.5 28.5L566.25 28.5L566.25 28.5L566.25 813.6151L566.25 813.6151L28.5 813.6151L28.5 813.6151L28.5 28.5z" /></clipPath><clipPath id="222"><path id="" clip-rule="evenodd" transform="matrix(1 0 0 1 0 0)" d="M28.5 253.2795L566.25 253.2795L566.25 253.2795L566.25 339.3195L566.25 339.3195L28.5 339.3195L28.5 339.3195L28.5 253.2795z" /></clipPath><clipPath id="223"><path id="" clip-rule="evenodd" transform="matrix(1 0 0 1 0 0)" d="M28.5 28.5L566.25 28.5L566.25 28.5L566.25 813.6151L566.25 813.6151L28.5 813.6151L28.5 813.6151L28.5 28.5z" /></clipPath><clipPath id="224"><path id="" clip-rule="evenodd" transform="matrix(1 0 0 1 0 0)" d="M28.5 253.2795L566.25 253.2795L566.25 253.2795L566.25 339.3195L566.25 339.3195L28.5 339.3195L28.5 339.3195L28.5 253.2795z" /></clipPath><clipPath id="225"><path id="" clip-rule="evenodd" transform="matrix(1 0 0 1 0 0)" d="M179.07 320.4982L179.6078 320.4982L179.6078 320.4982L179.6078 339.3195L179.6078 339.3195L179.07 339.3195" /></clipPath><clipPath id="226"><path id="" clip-rule="evenodd" transform="matrix(1 0 0 1 0 0)" d="M28.5 28.5L566.25 28.5L566.25 28.5L566.25 813.6151L566.25 813.6151L28.5 813.6151L28.5 813.6151L28.5 28.5z" /></clipPath><clipPath id="227"><path id="" clip-rule="evenodd" transform="matrix(1 0 0 1 0 0)" d="M28.5 28.5L566.25 28.5L566.25 28.5L566.25 813.6151L566.25 813.6151L28.5 813.6151L28.5 813.6151L28.5 28.5z" /></clipPath><clipPath id="228"><path id="" clip-rule="evenodd" transform="matrix(1 0 0 1 0 0)" d="M28.5 253.2795L566.25 253.2795L566.25 253.2795L566.25 339.3195L566.25 339.3195L28.5 339.3195L28.5 339.3195L28.5 253.2795z" /></clipPath><clipPath id="229"><path id="" clip-rule="evenodd" transform="matrix(1 0 0 1 0 0)" d="M28.5 28.5L566.25 28.5L566.25 28.5L566.25 813.6151L566.25 813.6151L28.5 813.6151L28.5 813.6151L28.5 28.5z" /></clipPath><clipPath id="230"><path id="" clip-rule="evenodd" transform="matrix(1 0 0 1 0 0)" d="M28.5 28.5L566.25 28.5L566.25 28.5L566.25 813.6151L566.25 813.6151L28.5 813.6151L28.5 813.6151L28.5 28.5z" /></clipPath><clipPath id="231"><path id="" clip-rule="evenodd" transform="matrix(1 0 0 1 0 0)" d="M28.5 253.2795L566.25 253.2795L566.25 253.2795L566.25 339.3195L566.25 339.3195L28.5 339.3195L28.5 339.3195L28.5 253.2795z" /></clipPath><clipPath id="232"><path id="" clip-rule="evenodd" transform="matrix(1 0 0 1 0 0)" d="M28.5 28.5L566.25 28.5L566.25 28.5L566.25 813.6151L566.25 813.6151L28.5 813.6151L28.5 813.6151L28.5 28.5z" /></clipPath><clipPath id="233"><path id="" clip-rule="evenodd" transform="matrix(1 0 0 1 0 0)" d="M28.5 28.5L566.25 28.5L566.25 28.5L566.25 813.6151L566.25 813.6151L28.5 813.6151L28.5 813.6151L28.5 28.5z" /></clipPath><clipPath id="234"><path id="" clip-rule="evenodd" transform="matrix(1 0 0 1 0 0)" d="M28.5 253.2795L566.25 253.2795L566.25 253.2795L566.25 339.3195L566.25 339.3195L28.5 339.3195L28.5 339.3195L28.5 253.2795z" /></clipPath><clipPath id="235"><path id="" clip-rule="evenodd" transform="matrix(1 0 0 1 0 0)" d="M28.5 28.5L566.25 28.5L566.25 28.5L566.25 813.6151L566.25 813.6151L28.5 813.6151L28.5 813.6151L28.5 28.5z" /></clipPath><clipPath id="236"><path id="" clip-rule="evenodd" transform="matrix(1 0 0 1 0 0)" d="M28.5 28.5L566.25 28.5L566.25 28.5L566.25 813.6151L566.25 813.6151L28.5 813.6151L28.5 813.6151L28.5 28.5z" /></clipPath><clipPath id="237"><path id="" clip-rule="evenodd" transform="matrix(1 0 0 1 0 0)" d="M28.5 253.2795L566.25 253.2795L566.25 253.2795L566.25 339.3195L566.25 339.3195L28.5 339.3195L28.5 339.3195L28.5 253.2795z" /></clipPath><clipPath id="238"><path id="" clip-rule="evenodd" transform="matrix(1 0 0 1 0 0)" d="M28.5 28.5L566.25 28.5L566.25 28.5L566.25 813.6151L566.25 813.6151L28.5 813.6151L28.5 813.6151L28.5 28.5z" /></clipPath><clipPath id="239"><path id="" clip-rule="evenodd" transform="matrix(1 0 0 1 0 0)" d="M28.5 28.5L566.25 28.5L566.25 28.5L566.25 813.6151L566.25 813.6151L28.5 813.6151L28.5 813.6151L28.5 28.5z" /></clipPath><clipPath id="240"><path id="" clip-rule="evenodd" transform="matrix(1 0 0 1 0 0)" d="M28.5 253.2795L566.25 253.2795L566.25 253.2795L566.25 339.3195L566.25 339.3195L28.5 339.3195L28.5 339.3195L28.5 253.2795z" /></clipPath><clipPath id="241"><path id="" clip-rule="evenodd" transform="matrix(1 0 0 1 0 0)" d="M28.5 28.5L566.25 28.5L566.25 28.5L566.25 813.6151L566.25 813.6151L28.5 813.6151L28.5 813.6151L28.5 28.5z" /></clipPath><clipPath id="242"><path id="" clip-rule="evenodd" transform="matrix(1 0 0 1 0 0)" d="M28.5 28.5L566.25 28.5L566.25 28.5L566.25 813.6151L566.25 813.6151L28.5 813.6151L28.5 813.6151L28.5 28.5z" /></clipPath><clipPath id="243"><path id="" clip-rule="evenodd" transform="matrix(1 0 0 1 0 0)" d="M28.5 253.2795L566.25 253.2795L566.25 253.2795L566.25 339.3195L566.25 339.3195L28.5 339.3195L28.5 339.3195L28.5 253.2795z" /></clipPath><clipPath id="244"><path id="" clip-rule="evenodd" transform="matrix(1 0 0 1 0 0)" d="M28.5 28.5L566.25 28.5L566.25 28.5L566.25 813.6151L566.25 813.6151L28.5 813.6151L28.5 813.6151L28.5 28.5z" /></clipPath><clipPath id="245"><path id="" clip-rule="evenodd" transform="matrix(1 0 0 1 0 0)" d="M28.5 28.5L566.25 28.5L566.25 28.5L566.25 813.6151L566.25 813.6151L28.5 813.6151L28.5 813.6151L28.5 28.5z" /></clipPath><clipPath id="246"><path id="" clip-rule="evenodd" transform="matrix(1 0 0 1 0 0)" d="M28.5 339.3195L566.25 339.3195L566.25 339.3195L566.25 813.6151L566.25 813.6151L28.5 813.6151L28.5 813.6151L28.5 339.3195z" /></clipPath><clipPath id="247"><path id="" clip-rule="evenodd" transform="matrix(1 0 0 1 0 0)" d="M28.5 28.5L566.25 28.5L566.25 28.5L566.25 813.6151L566.25 813.6151L28.5 813.6151L28.5 813.6151L28.5 28.5z" /></clipPath><clipPath id="248"><path id="" clip-rule="evenodd" transform="matrix(1 0 0 1 0 0)" d="M28.5 339.3195L566.25 339.3195L566.25 339.3195L566.25 813.6151L566.25 813.6151L28.5 813.6151L28.5 813.6151L28.5 339.3195z" /></clipPath><clipPath id="249"><path id="" clip-rule="evenodd" transform="matrix(1 0 0 1 0 0)" d="M179.07 406.5382L179.6078 406.5382L179.6078 406.5382L179.6078 595.2885L179.6078 595.2885L179.07 595.2885" /></clipPath><clipPath id="250"><path id="" clip-rule="evenodd" transform="matrix(1 0 0 1 0 0)" d="M28.5 28.5L566.25 28.5L566.25 28.5L566.25 813.6151L566.25 813.6151L28.5 813.6151L28.5 813.6151L28.5 28.5z" /></clipPath><clipPath id="251"><path id="" clip-rule="evenodd" transform="matrix(1 0 0 1 0 0)" d="M28.5 28.5L566.25 28.5L566.25 28.5L566.25 813.6151L566.25 813.6151L28.5 813.6151L28.5 813.6151L28.5 28.5z" /></clipPath><clipPath id="252"><path id="" clip-rule="evenodd" transform="matrix(1 0 0 1 0 0)" d="M28.5 339.3195L566.25 339.3195L566.25 339.3195L566.25 813.6151L566.25 813.6151L28.5 813.6151L28.5 813.6151L28.5 339.3195z" /></clipPath><clipPath id="253"><path id="" clip-rule="evenodd" transform="matrix(1 0 0 1 0 0)" d="M28.5 28.5L566.25 28.5L566.25 28.5L566.25 813.6151L566.25 813.6151L28.5 813.6151L28.5 813.6151L28.5 28.5z" /></clipPath><clipPath id="254"><path id="" clip-rule="evenodd" transform="matrix(1 0 0 1 0 0)" d="M28.5 28.5L566.25 28.5L566.25 28.5L566.25 813.6151L566.25 813.6151L28.5 813.6151L28.5 813.6151L28.5 28.5z" /></clipPath><clipPath id="255"><path id="" clip-rule="evenodd" transform="matrix(1 0 0 1 0 0)" d="M28.5 339.3195L566.25 339.3195L566.25 339.3195L566.25 813.6151L566.25 813.6151L28.5 813.6151L28.5 813.6151L28.5 339.3195z" /></clipPath><clipPath id="256"><path id="" clip-rule="evenodd" transform="matrix(1 0 0 1 0 0)" d="M28.5 28.5L566.25 28.5L566.25 28.5L566.25 813.6151L566.25 813.6151L28.5 813.6151L28.5 813.6151L28.5 28.5z" /></clipPath><clipPath id="257"><path id="" clip-rule="evenodd" transform="matrix(1 0 0 1 0 0)" d="M28.5 28.5L566.25 28.5L566.25 28.5L566.25 813.6151L566.25 813.6151L28.5 813.6151L28.5 813.6151L28.5 28.5z" /></clipPath><clipPath id="258"><path id="" clip-rule="evenodd" transform="matrix(1 0 0 1 0 0)" d="M28.5 339.3195L566.25 339.3195L566.25 339.3195L566.25 813.6151L566.25 813.6151L28.5 813.6151L28.5 813.6151L28.5 339.3195z" /></clipPath><clipPath id="259"><path id="" clip-rule="evenodd" transform="matrix(1 0 0 1 0 0)" d="M28.5 28.5L566.25 28.5L566.25 28.5L566.25 813.6151L566.25 813.6151L28.5 813.6151L28.5 813.6151L28.5 28.5z" /></clipPath><clipPath id="260"><path id="" clip-rule="evenodd" transform="matrix(1 0 0 1 0 0)" d="M28.5 28.5L566.25 28.5L566.25 28.5L566.25 813.6151L566.25 813.6151L28.5 813.6151L28.5 813.6151L28.5 28.5z" /></clipPath><clipPath id="261"><path id="" clip-rule="evenodd" transform="matrix(1 0 0 1 0 0)" d="M28.5 339.3195L566.25 339.3195L566.25 339.3195L566.25 813.6151L566.25 813.6151L28.5 813.6151L28.5 813.6151L28.5 339.3195z" /></clipPath><clipPath id="262"><path id="" clip-rule="evenodd" transform="matrix(1 0 0 1 0 0)" d="M28.5 28.5L566.25 28.5L566.25 28.5L566.25 813.6151L566.25 813.6151L28.5 813.6151L28.5 813.6151L28.5 28.5z" /></clipPath><clipPath id="263"><path id="" clip-rule="evenodd" transform="matrix(1 0 0 1 0 0)" d="M28.5 28.5L566.25 28.5L566.25 28.5L566.25 813.6151L566.25 813.6151L28.5 813.6151L28.5 813.6151L28.5 28.5z" /></clipPath><clipPath id="264"><path id="" clip-rule="evenodd" transform="matrix(1 0 0 1 0 0)" d="M28.5 339.3195L566.25 339.3195L566.25 339.3195L566.25 813.6151L566.25 813.6151L28.5 813.6151L28.5 813.6151L28.5 339.3195z" /></clipPath><clipPath id="265"><path id="" clip-rule="evenodd" transform="matrix(1 0 0 1 0 0)" d="M28.5 28.5L566.25 28.5L566.25 28.5L566.25 813.6151L566.25 813.6151L28.5 813.6151L28.5 813.6151L28.5 28.5z" /></clipPath><clipPath id="266"><path id="" clip-rule="evenodd" transform="matrix(1 0 0 1 0 0)" d="M28.5 28.5L566.25 28.5L566.25 28.5L566.25 813.6151L566.25 813.6151L28.5 813.6151L28.5 813.6151L28.5 28.5z" /></clipPath><clipPath id="267"><path id="" clip-rule="evenodd" transform="matrix(1 0 0 1 0 0)" d="M28.5 339.3195L566.25 339.3195L566.25 339.3195L566.25 813.6151L566.25 813.6151L28.5 813.6151L28.5 813.6151L28.5 339.3195z" /></clipPath><clipPath id="268"><path id="" clip-rule="evenodd" transform="matrix(1 0 0 1 0 0)" d="M28.5 28.5L566.25 28.5L566.25 28.5L566.25 813.6151L566.25 813.6151L28.5 813.6151L28.5 813.6151L28.5 28.5z" /></clipPath><clipPath id="269"><path id="" clip-rule="evenodd" transform="matrix(1 0 0 1 0 0)" d="M28.5 28.5L566.25 28.5L566.25 28.5L566.25 813.6151L566.25 813.6151L28.5 813.6151L28.5 813.6151L28.5 28.5z" /></clipPath><clipPath id="270"><path id="" clip-rule="evenodd" transform="matrix(1 0 0 1 0 0)" d="M28.5 339.3195L566.25 339.3195L566.25 339.3195L566.25 813.6151L566.25 813.6151L28.5 813.6151L28.5 813.6151L28.5 339.3195z" /></clipPath><clipPath id="271"><path id="" clip-rule="evenodd" transform="matrix(1 0 0 1 0 0)" d="M28.5 28.5L566.25 28.5L566.25 28.5L566.25 813.6151L566.25 813.6151L28.5 813.6151L28.5 813.6151L28.5 28.5z" /></clipPath><clipPath id="272"><path id="" clip-rule="evenodd" transform="matrix(1 0 0 1 0 0)" d="M28.5 339.3195L566.25 339.3195L566.25 339.3195L566.25 813.6151L566.25 813.6151L28.5 813.6151L28.5 813.6151L28.5 339.3195z" /></clipPath><clipPath id="273"><path id="" clip-rule="evenodd" transform="matrix(1 0 0 1 0 0)" d="M179.07 595.2885L179.6078 595.2885L179.6078 595.2885L179.6078 850.7197L179.6078 850.7197L179.07 850.7197" /></clipPath><clipPath id="274"><path id="" clip-rule="evenodd" transform="matrix(1 0 0 1 0 0)" d="M28.5 28.5L566.25 28.5L566.25 28.5L566.25 813.6151L566.25 813.6151L28.5 813.6151L28.5 813.6151L28.5 28.5z" /></clipPath><clipPath id="275"><path id="" clip-rule="evenodd" transform="matrix(1 0 0 1 0 0)" d="M28.5 28.5L566.25 28.5L566.25 28.5L566.25 813.6151L566.25 813.6151L28.5 813.6151L28.5 813.6151L28.5 28.5z" /></clipPath><clipPath id="276"><path id="" clip-rule="evenodd" transform="matrix(1 0 0 1 0 0)" d="M28.5 339.3195L566.25 339.3195L566.25 339.3195L566.25 813.6151L566.25 813.6151L28.5 813.6151L28.5 813.6151L28.5 339.3195z" /></clipPath><clipPath id="277"><path id="" clip-rule="evenodd" transform="matrix(1 0 0 1 0 0)" d="M28.5 28.5L566.25 28.5L566.25 28.5L566.25 813.6151L566.25 813.6151L28.5 813.6151L28.5 813.6151L28.5 28.5z" /></clipPath><clipPath id="278"><path id="" clip-rule="evenodd" transform="matrix(1 0 0 1 0 0)" d="M28.5 28.5L566.25 28.5L566.25 28.5L566.25 813.6151L566.25 813.6151L28.5 813.6151L28.5 813.6151L28.5 28.5z" /></clipPath><clipPath id="279"><path id="" clip-rule="evenodd" transform="matrix(1 0 0 1 0 0)" d="M28.5 339.3195L566.25 339.3195L566.25 339.3195L566.25 813.6151L566.25 813.6151L28.5 813.6151L28.5 813.6151L28.5 339.3195z" /></clipPath><clipPath id="280"><path id="" clip-rule="evenodd" transform="matrix(1 0 0 1 0 0)" d="M28.5 28.5L566.25 28.5L566.25 28.5L566.25 813.6151L566.25 813.6151L28.5 813.6151L28.5 813.6151L28.5 28.5z" /></clipPath><clipPath id="281"><path id="" clip-rule="evenodd" transform="matrix(1 0 0 1 0 0)" d="M28.5 28.5L566.25 28.5L566.25 28.5L566.25 813.6151L566.25 813.6151L28.5 813.6151L28.5 813.6151L28.5 28.5z" /></clipPath><clipPath id="282"><path id="" clip-rule="evenodd" transform="matrix(1 0 0 1 0 0)" d="M28.5 339.3195L566.25 339.3195L566.25 339.3195L566.25 813.6151L566.25 813.6151L28.5 813.6151L28.5 813.6151L28.5 339.3195z" /></clipPath><clipPath id="283"><path id="" clip-rule="evenodd" transform="matrix(1 0 0 1 0 0)" d="M28.5 28.5L566.25 28.5L566.25 28.5L566.25 813.6151L566.25 813.6151L28.5 813.6151L28.5 813.6151L28.5 28.5z" /></clipPath><clipPath id="284"><path id="" clip-rule="evenodd" transform="matrix(1 0 0 1 0 0)" d="M28.5 28.5L566.25 28.5L566.25 28.5L566.25 813.6151L566.25 813.6151L28.5 813.6151L28.5 813.6151L28.5 28.5z" /></clipPath><clipPath id="285"><path id="" clip-rule="evenodd" transform="matrix(1 0 0 1 0 0)" d="M28.5 339.3195L566.25 339.3195L566.25 339.3195L566.25 813.6151L566.25 813.6151L28.5 813.6151L28.5 813.6151L28.5 339.3195z" /></clipPath><clipPath id="286"><path id="" clip-rule="evenodd" transform="matrix(1 0 0 1 0 0)" d="M28.5 28.5L566.25 28.5L566.25 28.5L566.25 813.6151L566.25 813.6151L28.5 813.6151L28.5 813.6151L28.5 28.5z" /></clipPath><clipPath id="287"><path id="" clip-rule="evenodd" transform="matrix(1 0 0 1 0 0)" d="M28.5 28.5L566.25 28.5L566.25 28.5L566.25 813.6151L566.25 813.6151L28.5 813.6151L28.5 813.6151L28.5 28.5z" /></clipPath><clipPath id="288"><path id="" clip-rule="evenodd" transform="matrix(1 0 0 1 0 0)" d="M28.5 339.3195L566.25 339.3195L566.25 339.3195L566.25 813.6151L566.25 813.6151L28.5 813.6151L28.5 813.6151L28.5 339.3195z" /></clipPath><clipPath id="289"><path id="" clip-rule="evenodd" transform="matrix(1 0 0 1 0 0)" d="M28.5 28.5L566.25 28.5L566.25 28.5L566.25 813.6151L566.25 813.6151L28.5 813.6151L28.5 813.6151L28.5 28.5z" /></clipPath><clipPath id="290"><path id="" clip-rule="evenodd" transform="matrix(1 0 0 1 0 0)" d="M28.5 28.5L566.25 28.5L566.25 28.5L566.25 813.6151L566.25 813.6151L28.5 813.6151L28.5 813.6151L28.5 28.5z" /></clipPath><clipPath id="291"><path id="" clip-rule="evenodd" transform="matrix(1 0 0 1 0 0)" d="M28.5 339.3195L566.25 339.3195L566.25 339.3195L566.25 813.6151L566.25 813.6151L28.5 813.6151L28.5 813.6151L28.5 339.3195z" /></clipPath><clipPath id="292"><path id="" clip-rule="evenodd" transform="matrix(1 0 0 1 0 0)" d="M28.5 28.5L566.25 28.5L566.25 28.5L566.25 813.6151L566.25 813.6151L28.5 813.6151L28.5 813.6151L28.5 28.5z" /></clipPath><clipPath id="293"><path id="" clip-rule="evenodd" transform="matrix(1 0 0 1 0 0)" d="M28.5 28.5L566.25 28.5L566.25 28.5L566.25 813.6151L566.25 813.6151L28.5 813.6151L28.5 813.6151L28.5 28.5z" /></clipPath><clipPath id="294"><path id="" clip-rule="evenodd" transform="matrix(1 0 0 1 0 0)" d="M28.5 339.3195L566.25 339.3195L566.25 339.3195L566.25 813.6151L566.25 813.6151L28.5 813.6151L28.5 813.6151L28.5 339.3195z" /></clipPath><clipPath id="295"><path id="" clip-rule="evenodd" transform="matrix(1 0 0 1 0 0)" d="M28.5 28.5L566.25 28.5L566.25 28.5L566.25 813.6151L566.25 813.6151L28.5 813.6151L28.5 813.6151L28.5 28.5z" /></clipPath><clipPath id="296"><path id="" clip-rule="evenodd" transform="matrix(1 0 0 1 0 0)" d="M28.5 28.5L566.25 28.5L566.25 28.5L566.25 813.6151L566.25 813.6151L28.5 813.6151L28.5 813.6151L28.5 28.5z" /></clipPath><clipPath id="297"><path id="" clip-rule="evenodd" transform="matrix(1 0 0 1 0 0)" d="M28.5 339.3195L566.25 339.3195L566.25 339.3195L566.25 813.6151L566.25 813.6151L28.5 813.6151L28.5 813.6151L28.5 339.3195z" /></clipPath><clipPath id="298"><path id="" clip-rule="evenodd" transform="matrix(1 0 0 1 0 0)" d="M28.5 28.5L566.25 28.5L566.25 28.5L566.25 813.6151L566.25 813.6151L28.5 813.6151L28.5 813.6151L28.5 28.5z" /></clipPath><clipPath id="299"><path id="" clip-rule="evenodd" transform="matrix(1 0 0 1 0 0)" d="M28.5 28.5L566.25 28.5L566.25 28.5L566.25 813.6151L566.25 813.6151L28.5 813.6151L28.5 813.6151L28.5 28.5z" /></clipPath><clipPath id="300"><path id="" clip-rule="evenodd" transform="matrix(1 0 0 1 0 0)" d="M28.5 339.3195L566.25 339.3195L566.25 339.3195L566.25 813.6151L566.25 813.6151L28.5 813.6151L28.5 813.6151L28.5 339.3195z" /></clipPath><clipPath id="301"><path id="" clip-rule="evenodd" transform="matrix(1 0 0 1 0 0)" d="M28.5 28.5L566.25 28.5L566.25 28.5L566.25 813.6151L566.25 813.6151L28.5 813.6151L28.5 813.6151L28.5 28.5z" /></clipPath><clipPath id="302"><path id="" clip-rule="evenodd" transform="matrix(1 0 0 1 0 0)" d="M28.5 28.5L566.25 28.5L566.25 28.5L566.25 813.6151L566.25 813.6151L28.5 813.6151L28.5 813.6151L28.5 28.5z" /></clipPath><clipPath id="303"><path id="" clip-rule="evenodd" transform="matrix(1 0 0 1 0 0)" d="M28.5 339.3195L566.25 339.3195L566.25 339.3195L566.25 813.6151L566.25 813.6151L28.5 813.6151L28.5 813.6151L28.5 339.3195z" /></clipPath><clipPath id="304"><path id="" clip-rule="evenodd" transform="matrix(1 0 0 1 0 0)" d="M28.5 28.5L566.25 28.5L566.25 28.5L566.25 813.6151L566.25 813.6151L28.5 813.6151L28.5 813.6151L28.5 28.5z" /></clipPath><clipPath id="305"><path id="" clip-rule="evenodd" transform="matrix(1 0 0 1 0 0)" d="M28.5 28.5L566.25 28.5L566.25 28.5L566.25 813.6151L566.25 813.6151L28.5 813.6151L28.5 813.6151L28.5 28.5z" /></clipPath><clipPath id="306"><path id="" clip-rule="evenodd" transform="matrix(1 0 0 1 0 0)" d="M28.5 339.3195L566.25 339.3195L566.25 339.3195L566.25 813.6151L566.25 813.6151L28.5 813.6151L28.5 813.6151L28.5 339.3195z" /></clipPath><clipPath id="307"><path id="" clip-rule="evenodd" transform="matrix(1 0 0 1 0 0)" d="M28.5 28.5L566.25 28.5L566.25 28.5L566.25 813.6151L566.25 813.6151L28.5 813.6151L28.5 813.6151L28.5 28.5z" /></clipPath><clipPath id="308"><path id="" clip-rule="evenodd" transform="matrix(1 0 0 1 0 0)" d="M28.5 28.5L566.25 28.5L566.25 28.5L566.25 813.6151L566.25 813.6151L28.5 813.6151L28.5 813.6151L28.5 28.5z" /></clipPath><clipPath id="309"><path id="" clip-rule="evenodd" transform="matrix(1 0 0 1 0 0)" d="M28.5 339.3195L566.25 339.3195L566.25 339.3195L566.25 813.6151L566.25 813.6151L28.5 813.6151L28.5 813.6151L28.5 339.3195z" /></clipPath><clipPath id="310"><path id="" clip-rule="evenodd" transform="matrix(1 0 0 1 0 0)" d="M28.5 28.5L566.25 28.5L566.25 28.5L566.25 813.6151L566.25 813.6151L28.5 813.6151L28.5 813.6151L28.5 28.5z" /></clipPath><clipPath id="311"><path id="" clip-rule="evenodd" transform="matrix(1 0 0 1 0 0)" d="M28.5 28.5L566.25 28.5L566.25 28.5L566.25 813.6151L566.25 813.6151L28.5 813.6151L28.5 813.6151L28.5 28.5z" /></clipPath><clipPath id="312"><path id="" clip-rule="evenodd" transform="matrix(1 0 0 1 0 0)" d="M28.5 339.3195L566.25 339.3195L566.25 339.3195L566.25 813.6151L566.25 813.6151L28.5 813.6151L28.5 813.6151L28.5 339.3195z" /></clipPath><clipPath id="313"><path id="" clip-rule="evenodd" transform="matrix(1 0 0 1 0 0)" d="M28.5 28.5L566.25 28.5L566.25 28.5L566.25 813.6151L566.25 813.6151L28.5 813.6151L28.5 813.6151L28.5 28.5z" /></clipPath><clipPath id="314"><path id="" clip-rule="evenodd" transform="matrix(1 0 0 1 0 0)" d="M28.5 28.5L566.25 28.5L566.25 28.5L566.25 813.6151L566.25 813.6151L28.5 813.6151L28.5 813.6151L28.5 28.5z" /></clipPath><clipPath id="315"><path id="" clip-rule="evenodd" transform="matrix(1 0 0 1 0 0)" d="M28.5 339.3195L566.25 339.3195L566.25 339.3195L566.25 813.6151L566.25 813.6151L28.5 813.6151L28.5 813.6151L28.5 339.3195z" /></clipPath><clipPath id="316"><path id="" clip-rule="evenodd" transform="matrix(1 0 0 1 0 0)" d="M28.5 28.5L566.25 28.5L566.25 28.5L566.25 813.6151L566.25 813.6151L28.5 813.6151L28.5 813.6151L28.5 28.5z" /></clipPath><clipPath id="317"><path id="" clip-rule="evenodd" transform="matrix(1 0 0 1 0 0)" d="M28.5 28.5L566.25 28.5L566.25 28.5L566.25 813.6151L566.25 813.6151L28.5 813.6151L28.5 813.6151L28.5 28.5z" /></clipPath><clipPath id="318"><path id="" clip-rule="evenodd" transform="matrix(1 0 0 1 0 0)" d="M28.5 339.3195L566.25 339.3195L566.25 339.3195L566.25 813.6151L566.25 813.6151L28.5 813.6151L28.5 813.6151L28.5 339.3195z" /></clipPath><clipPath id="319"><path id="" clip-rule="evenodd" transform="matrix(1 0 0 1 0 0)" d="M28.5 28.5L566.25 28.5L566.25 28.5L566.25 813.6151L566.25 813.6151L28.5 813.6151L28.5 813.6151L28.5 28.5z" /></clipPath><clipPath id="320"><path id="" clip-rule="evenodd" transform="matrix(1 0 0 1 0 0)" d="M28.5 28.5L566.25 28.5L566.25 28.5L566.25 813.6151L566.25 813.6151L28.5 813.6151L28.5 813.6151L28.5 28.5z" /></clipPath><clipPath id="321"><path id="" clip-rule="evenodd" transform="matrix(1 0 0 1 0 0)" d="M28.5 339.3195L566.25 339.3195L566.25 339.3195L566.25 813.6151L566.25 813.6151L28.5 813.6151L28.5 813.6151L28.5 339.3195z" /></clipPath><clipPath id="322"><path id="" clip-rule="evenodd" transform="matrix(1 0 0 1 0 0)" d="M28.5 28.5L566.25 28.5L566.25 28.5L566.25 813.6151L566.25 813.6151L28.5 813.6151L28.5 813.6151L28.5 28.5z" /></clipPath><clipPath id="323"><path id="" clip-rule="evenodd" transform="matrix(1 0 0 1 0 0)" d="M28.5 28.5L566.25 28.5L566.25 28.5L566.25 813.6151L566.25 813.6151L28.5 813.6151L28.5 813.6151L28.5 28.5z" /></clipPath><clipPath id="324"><path id="" clip-rule="evenodd" transform="matrix(1 0 0 1 0 0)" d="M28.5 339.3195L566.25 339.3195L566.25 339.3195L566.25 813.6151L566.25 813.6151L28.5 813.6151L28.5 813.6151L28.5 339.3195z" /></clipPath><clipPath id="325"><path id="" clip-rule="evenodd" transform="matrix(1 0 0 1 0 0)" d="M28.5 28.5L566.25 28.5L566.25 28.5L566.25 813.6151L566.25 813.6151L28.5 813.6151L28.5 813.6151L28.5 28.5z" /></clipPath><clipPath id="326"><path id="" clip-rule="evenodd" transform="matrix(1 0 0 1 0 0)" d="M28.5 28.5L566.25 28.5L566.25 28.5L566.25 813.6151L566.25 813.6151L28.5 813.6151L28.5 813.6151L28.5 28.5z" /></clipPath><clipPath id="327"><path id="" clip-rule="evenodd" transform="matrix(1 0 0 1 0 0)" d="M28.5 339.3195L566.25 339.3195L566.25 339.3195L566.25 813.6151L566.25 813.6151L28.5 813.6151L28.5 813.6151L28.5 339.3195z" /></clipPath><clipPath id="328"><path id="" clip-rule="evenodd" transform="matrix(1 0 0 1 0 0)" d="M28.5 28.5L566.25 28.5L566.25 28.5L566.25 813.6151L566.25 813.6151L28.5 813.6151L28.5 813.6151L28.5 28.5z" /></clipPath><clipPath id="329"><path id="" clip-rule="evenodd" transform="matrix(1 0 0 1 0 0)" d="M28.5 28.5L566.25 28.5L566.25 28.5L566.25 813.6151L566.25 813.6151L28.5 813.6151L28.5 813.6151L28.5 28.5z" /></clipPath><clipPath id="330"><path id="" clip-rule="evenodd" transform="matrix(1 0 0 1 0 0)" d="M28.5 339.3195L566.25 339.3195L566.25 339.3195L566.25 813.6151L566.25 813.6151L28.5 813.6151L28.5 813.6151L28.5 339.3195z" /></clipPath><clipPath id="331"><path id="" clip-rule="evenodd" transform="matrix(1 0 0 1 0 0)" d="M28.5 28.5L566.25 28.5L566.25 28.5L566.25 813.6151L566.25 813.6151L28.5 813.6151L28.5 813.6151L28.5 28.5z" /></clipPath><clipPath id="332"><path id="" clip-rule="evenodd" transform="matrix(1 0 0 1 0 0)" d="M28.5 28.5L566.25 28.5L566.25 28.5L566.25 813.6151L566.25 813.6151L28.5 813.6151L28.5 813.6151L28.5 28.5z" /></clipPath><clipPath id="333"><path id="" clip-rule="evenodd" transform="matrix(1 0 0 1 0 0)" d="M28.5 339.3195L566.25 339.3195L566.25 339.3195L566.25 813.6151L566.25 813.6151L28.5 813.6151L28.5 813.6151L28.5 339.3195z" /></clipPath><clipPath id="334"><path id="" clip-rule="evenodd" transform="matrix(1 0 0 1 0 0)" d="M28.5 28.5L566.25 28.5L566.25 28.5L566.25 813.6151L566.25 813.6151L28.5 813.6151L28.5 813.6151L28.5 28.5z" /></clipPath><clipPath id="335"><path id="" clip-rule="evenodd" transform="matrix(1 0 0 1 0 0)" d="M28.5 28.5L566.25 28.5L566.25 28.5L566.25 813.6151L566.25 813.6151L28.5 813.6151L28.5 813.6151L28.5 28.5z" /></clipPath><clipPath id="336"><path id="" clip-rule="evenodd" transform="matrix(1 0 0 1 0 0)" d="M28.5 339.3195L566.25 339.3195L566.25 339.3195L566.25 813.6151L566.25 813.6151L28.5 813.6151L28.5 813.6151L28.5 339.3195z" /></clipPath><clipPath id="337"><path id="" clip-rule="evenodd" transform="matrix(1 0 0 1 0 0)" d="M28.5 28.5L566.25 28.5L566.25 28.5L566.25 813.6151L566.25 813.6151L28.5 813.6151L28.5 813.6151L28.5 28.5z" /></clipPath><clipPath id="338"><path id="" clip-rule="evenodd" transform="matrix(1 0 0 1 0 0)" d="M28.5 28.5L566.25 28.5L566.25 28.5L566.25 813.6151L566.25 813.6151L28.5 813.6151L28.5 813.6151L28.5 28.5z" /></clipPath><clipPath id="339"><path id="" clip-rule="evenodd" transform="matrix(1 0 0 1 0 0)" d="M28.5 339.3195L566.25 339.3195L566.25 339.3195L566.25 813.6151L566.25 813.6151L28.5 813.6151L28.5 813.6151L28.5 339.3195z" /></clipPath><clipPath id="340"><path id="" clip-rule="evenodd" transform="matrix(1 0 0 1 0 0)" d="M28.5 28.5L566.25 28.5L566.25 28.5L566.25 813.6151L566.25 813.6151L28.5 813.6151L28.5 813.6151L28.5 28.5z" /></clipPath></defs><g transform="matrix(1.333333 0 0 1.333333 0 0)"><g clip-path="url(#1)"><g clip-path="url(#2)"></g><g clip-path="url(#3)"><g clip-path="url(#4)"></g></g><g clip-path="url(#5)"></g><g clip-path="url(#6)"><g clip-path="url(#7)"></g></g><g clip-path="url(#8)"><g clip-path="url(#9)"><g clip-path="url(#10)"><path id="1" transform="matrix(1 0 0 -1 0 842)" d="M124.7572 548.927L533.985 548.927L533.985 547.3137L124.7572 547.3137z" stroke="none" fill="#37A574" fill-rule="nonzero" /></g></g></g><g clip-path="url(#11)"><g clip-path="url(#12)"><g clip-path="url(#13)"><g clip-path="url(#14)"></g></g></g></g><g clip-path="url(#15)"></g><g clip-path="url(#16)"><g clip-path="url(#17)"></g></g><g clip-path="url(#18)"><g clip-path="url(#19)"><g clip-path="url(#20)"></g></g></g><g clip-path="url(#21)"></g><g clip-path="url(#22)"><g clip-path="url(#23)"></g></g><g clip-path="url(#24)"></g><g clip-path="url(#25)"><g clip-path="url(#26)"></g></g><g clip-path="url(#27)"><g clip-path="url(#28)"><g clip-path="url(#29)"><path id="2" transform="matrix(1 0 0 -1 0 842)" d="M124.7572 462.887L533.985 462.887L533.985 461.2737L124.7572 461.2737z" stroke="none" fill="#37A574" fill-rule="nonzero" /></g></g></g><g clip-path="url(#30)"><g clip-path="url(#31)"><g clip-path="url(#32)"><g clip-path="url(#33)"></g></g></g></g><g clip-path="url(#34)"></g><g clip-path="url(#35)"><g clip-path="url(#36)"></g></g><g clip-path="url(#37)"><g clip-path="url(#38)"><g clip-path="url(#39)"></g></g></g><g clip-path="url(#40)"></g><g clip-path="url(#41)"><g clip-path="url(#42)"></g></g><g clip-path="url(#43)"></g><g clip-path="url(#44)"><g clip-path="url(#45)"></g></g><g clip-path="url(#46)"></g><g clip-path="url(#47)"><g clip-path="url(#48)"></g></g><g clip-path="url(#49)"><g clip-path="url(#50)"><g clip-path="url(#51)"></g></g></g><g clip-path="url(#52)"><g clip-path="url(#53)"><g clip-path="url(#54)"><g clip-path="url(#55)"></g></g></g></g><g clip-path="url(#56)"></g><g clip-path="url(#57)"><g clip-path="url(#58)"></g></g><g clip-path="url(#59)"><g clip-path="url(#60)"><g clip-path="url(#61)"></g></g></g><g clip-path="url(#62)"></g><g clip-path="url(#63)"><g clip-path="url(#64)"></g></g><g clip-path="url(#65)"></g><g clip-path="url(#66)"><g clip-path="url(#67)"></g></g><g clip-path="url(#68)"><g clip-path="url(#69)"><g clip-path="url(#70)"></g></g></g><g clip-path="url(#71)"><g clip-path="url(#72)"><g clip-path="url(#73)"><g clip-path="url(#74)"></g></g></g></g><g clip-path="url(#75)"></g><g clip-path="url(#76)"><g clip-path="url(#77)"></g></g><g clip-path="url(#78)"><g clip-path="url(#79)"><g clip-path="url(#80)"></g></g></g><g clip-path="url(#81)"></g><g clip-path="url(#82)"><g clip-path="url(#83)"></g></g><g clip-path="url(#84)"></g><g clip-path="url(#85)"><g clip-path="url(#86)"></g></g><g clip-path="url(#87)"></g><g clip-path="url(#88)"><g clip-path="url(#89)"></g></g><g clip-path="url(#90)"><g clip-path="url(#91)"><g clip-path="url(#92)"></g></g></g><g clip-path="url(#93)"><g clip-path="url(#94)"><g clip-path="url(#95)"><g clip-path="url(#96)"></g></g></g></g><g clip-path="url(#97)"></g><g clip-path="url(#98)"><g clip-path="url(#99)"></g></g><g clip-path="url(#100)"><g clip-path="url(#101)"><g clip-path="url(#102)"></g></g></g><g clip-path="url(#103)"></g><g clip-path="url(#104)"><g clip-path="url(#105)"></g></g><g clip-path="url(#106)"></g><g clip-path="url(#107)"><g clip-path="url(#108)"></g></g><g clip-path="url(#109)"><g clip-path="url(#110)"><g clip-path="url(#111)"></g></g></g><g clip-path="url(#112)"><g clip-path="url(#113)"><g clip-path="url(#114)"><g clip-path="url(#115)"></g></g></g></g><g clip-path="url(#116)"></g><g clip-path="url(#117)"><g clip-path="url(#118)"></g></g><g clip-path="url(#119)"><g clip-path="url(#120)"><g clip-path="url(#121)"></g></g></g><g clip-path="url(#122)"></g><g clip-path="url(#123)"><g clip-path="url(#124)"></g></g><g clip-path="url(#125)"></g><g clip-path="url(#126)"><g clip-path="url(#127)"></g></g><g clip-path="url(#128)"></g><g clip-path="url(#129)"><g clip-path="url(#130)"></g></g><g clip-path="url(#131)"><g clip-path="url(#132)"><g clip-path="url(#133)"></g></g></g><g clip-path="url(#134)"><g clip-path="url(#135)"><g clip-path="url(#136)"><g clip-path="url(#137)"></g></g></g></g><g clip-path="url(#138)"></g><g clip-path="url(#139)"><g clip-path="url(#140)"></g></g><g clip-path="url(#141)"><g clip-path="url(#142)"><g clip-path="url(#143)"></g></g></g><g clip-path="url(#144)"></g><g clip-path="url(#145)"><g clip-path="url(#146)"></g></g><g clip-path="url(#147)"></g><g clip-path="url(#148)"><g clip-path="url(#149)"></g></g><g clip-path="url(#150)"><g clip-path="url(#151)"><g clip-path="url(#152)"></g></g></g><g clip-path="url(#153)"><g clip-path="url(#154)"><g clip-path="url(#155)"><g clip-path="url(#156)"></g></g></g></g><g clip-path="url(#157)"></g><g clip-path="url(#158)"><g clip-path="url(#159)"></g></g><g clip-path="url(#160)"><g clip-path="url(#161)"><g clip-path="url(#162)"></g></g></g><g clip-path="url(#163)"></g><g clip-path="url(#164)"><g clip-path="url(#165)"></g></g><g clip-path="url(#166)"></g><g clip-path="url(#167)"><g clip-path="url(#168)"></g></g><g clip-path="url(#169)"></g><g clip-path="url(#170)"><g clip-path="url(#171)"></g></g><g clip-path="url(#172)"></g><g clip-path="url(#173)"><g clip-path="url(#174)"></g></g><g clip-path="url(#175)"></g><g clip-path="url(#176)"><g clip-path="url(#177)"></g></g><g clip-path="url(#178)"></g><g clip-path="url(#179)"><g clip-path="url(#180)"></g></g><g clip-path="url(#181)"><g clip-path="url(#182)"><g clip-path="url(#183)"><path id="76" transform="matrix(1 0 0 -1 0 842)" d="M179.07 757.574L179.6078 757.574L179.6078 757.0363L179.07 757.0363z" stroke="none" fill="#37A574" fill-rule="nonzero" /><path id="77" transform="matrix(1 0 0 -1 0 842)" d="M179.3389 889.8605L179.3389 757.574" stroke="#37A574" stroke-width="0.53775" stroke-dasharray="3,3" fill="none" /></g></g></g><g clip-path="url(#184)"></g><g clip-path="url(#185)"><g clip-path="url(#186)"></g></g><g clip-path="url(#187)"></g><g clip-path="url(#188)"><g clip-path="url(#189)"></g></g><g clip-path="url(#190)"></g><g clip-path="url(#191)"><g clip-path="url(#192)"></g></g><g clip-path="url(#193)"></g><g clip-path="url(#194)"><g clip-path="url(#195)"></g></g><g clip-path="url(#196)"></g><g clip-path="url(#197)"><g clip-path="url(#198)"></g></g><g clip-path="url(#199)"><g clip-path="url(#200)"><g clip-path="url(#201)"><path id="132" transform="matrix(1 0 0 -1 0 842)" d="M179.07 757.0363L179.6078 757.0363L179.6078 756.4985L179.07 756.4985z" stroke="none" fill="#37A574" fill-rule="nonzero" /><path id="133" transform="matrix(1 0 0 -1 0 842)" d="M179.07 589.2582L179.6078 589.2582L179.6078 588.7205L179.07 588.7205z" stroke="none" fill="#37A574" fill-rule="nonzero" /><path id="134" transform="matrix(1 0 0 -1 0 842)" d="M179.3389 756.4985L179.3389 589.2582" stroke="#37A574" stroke-width="0.53775" stroke-dasharray="3,3" fill="none" /></g></g></g><g clip-path="url(#202)"></g><g clip-path="url(#203)"><g clip-path="url(#204)"></g></g><g clip-path="url(#205)"></g><g clip-path="url(#206)"><g clip-path="url(#207)"></g></g><g clip-path="url(#208)"></g><g clip-path="url(#209)"><g clip-path="url(#210)"></g></g><g clip-path="url(#211)"></g><g clip-path="url(#212)"><g clip-path="url(#213)"><path id="396" transform="matrix(1 0 0 -1 0 842)" d="M175.3058 757.0363L186.0607 757.0363L186.0607 746.2813L175.3058 746.2813z" stroke="none" fill="#FFFFFF" fill-rule="nonzero" /></g></g><g clip-path="url(#214)"></g><g clip-path="url(#215)"><g clip-path="url(#216)"><path id="397" transform="matrix(1 0 0 -1 0 842)" d="M179.6078 752.1965L180.1455 752.1965C 181.6297 752.1965 182.8343 750.9919 182.8343 749.5078L182.8343 749.5078L182.8343 748.97C 182.8343 747.4858 181.6297 746.2813 180.1455 746.2813L180.1455 746.2813L179.6078 746.2813C 178.1236 746.2813 176.919 747.4858 176.919 748.97L176.919 748.97L176.919 749.5078C 176.919 750.9919 178.1236 752.1965 179.6078 752.1965zM179.6078 753.8098L180.1455 753.8098C 182.5202 753.8098 184.4475 751.8824 184.4475 749.5078L184.4475 749.5078L184.4475 748.97C 184.4475 746.5953 182.5202 744.668 180.1455 744.668L180.1455 744.668L179.6078 744.668C 177.2331 744.668 175.3058 746.5953 175.3058 748.97L175.3058 748.97L175.3058 749.5078C 175.3058 751.8824 177.2331 753.8098 179.6078 753.8098z" stroke="none" fill="#37A574" fill-rule="evenodd" /></g></g><g clip-path="url(#217)"></g><g clip-path="url(#218)"><g clip-path="url(#219)"></g></g><g clip-path="url(#220)"></g><g clip-path="url(#221)"><g clip-path="url(#222)"></g></g><g clip-path="url(#223)"><g clip-path="url(#224)"><g clip-path="url(#225)"><path id="398" transform="matrix(1 0 0 -1 0 842)" d="M179.07 521.5017L179.6078 521.5017L179.6078 520.964L179.07 520.964z" stroke="none" fill="#37A574" fill-rule="nonzero" /><path id="399" transform="matrix(1 0 0 -1 0 842)" d="M179.07 503.2183L179.6078 503.2183L179.6078 502.6804L179.07 502.6804z" stroke="none" fill="#37A574" fill-rule="nonzero" /><path id="400" transform="matrix(1 0 0 -1 0 842)" d="M179.3389 520.964L179.3389 503.2183" stroke="#37A574" stroke-width="0.53775" stroke-dasharray="3,3" fill="none" /></g></g></g><g clip-path="url(#226)"></g><g clip-path="url(#227)"><g clip-path="url(#228)"></g></g><g clip-path="url(#229)"></g><g clip-path="url(#230)"><g clip-path="url(#231)"></g></g><g clip-path="url(#232)"></g><g clip-path="url(#233)"><g clip-path="url(#234)"></g></g><g clip-path="url(#235)"></g><g clip-path="url(#236)"><g clip-path="url(#237)"><path id="421" transform="matrix(1 0 0 -1 0 842)" d="M175.3058 521.5017L186.0607 521.5017L186.0607 510.7467L175.3058 510.7467z" stroke="none" fill="#FFFFFF" fill-rule="nonzero" /></g></g><g clip-path="url(#238)"></g><g clip-path="url(#239)"><g clip-path="url(#240)"><path id="422" transform="matrix(1 0 0 -1 0 842)" d="M179.6078 516.662L180.1455 516.662C 181.6297 516.662 182.8343 515.4575 182.8343 513.9733L182.8343 513.9733L182.8343 513.4355C 182.8343 511.9513 181.6297 510.7468 180.1455 510.7468L180.1455 510.7468L179.6078 510.7468C 178.1236 510.7468 176.919 511.9513 176.919 513.4355L176.919 513.4355L176.919 513.9733C 176.919 515.4575 178.1236 516.662 179.6078 516.662zM179.6078 518.2753L180.1455 518.2753C 182.5202 518.2753 184.4475 516.348 184.4475 513.9733L184.4475 513.9733L184.4475 513.4355C 184.4475 511.0608 182.5202 509.1335 180.1455 509.1335L180.1455 509.1335L179.6078 509.1335C 177.2331 509.1335 175.3058 511.0608 175.3058 513.4355L175.3058 513.4355L175.3058 513.9733C 175.3058 516.348 177.2331 518.2753 179.6078 518.2753z" stroke="none" fill="#37A574" fill-rule="evenodd" /></g></g><g clip-path="url(#241)"></g><g clip-path="url(#242)"><g clip-path="url(#243)"></g></g><g clip-path="url(#244)"></g><g clip-path="url(#245)"><g clip-path="url(#246)"></g></g><g clip-path="url(#247)"><g clip-path="url(#248)"><g clip-path="url(#249)"><path id="423" transform="matrix(1 0 0 -1 0 842)" d="M179.07 435.4617L179.6078 435.4617L179.6078 434.924L179.07 434.924z" stroke="none" fill="#37A574" fill-rule="nonzero" /><path id="424" transform="matrix(1 0 0 -1 0 842)" d="M179.07 247.2493L179.6078 247.2493L179.6078 246.7114L179.07 246.7114z" stroke="none" fill="#37A574" fill-rule="nonzero" /><path id="425" transform="matrix(1 0 0 -1 0 842)" d="M179.3389 434.924L179.3389 247.2493" stroke="#37A574" stroke-width="0.53775" stroke-dasharray="3,3" fill="none" /></g></g></g><g clip-path="url(#250)"></g><g clip-path="url(#251)"><g clip-path="url(#252)"></g></g><g clip-path="url(#253)"></g><g clip-path="url(#254)"><g clip-path="url(#255)"></g></g><g clip-path="url(#256)"></g><g clip-path="url(#257)"><g clip-path="url(#258)"></g></g><g clip-path="url(#259)"></g><g clip-path="url(#260)"><g clip-path="url(#261)"><path id="584" transform="matrix(1 0 0 -1 0 842)" d="M175.3058 435.4617L186.0607 435.4617L186.0607 424.7068L175.3058 424.7068z" stroke="none" fill="#FFFFFF" fill-rule="nonzero" /></g></g><g clip-path="url(#262)"></g><g clip-path="url(#263)"><g clip-path="url(#264)"><path id="585" transform="matrix(1 0 0 -1 0 842)" d="M179.6078 430.622L180.1455 430.622C 181.6297 430.622 182.8343 429.4174 182.8343 427.9333L182.8343 427.9333L182.8343 427.3955C 182.8343 425.9113 181.6297 424.7068 180.1455 424.7068L180.1455 424.7068L179.6078 424.7068C 178.1236 424.7068 176.919 425.9113 176.919 427.3955L176.919 427.3955L176.919 427.9333C 176.919 429.4174 178.1236 430.622 179.6078 430.622zM179.6078 432.2353L180.1455 432.2353C 182.5202 432.2353 184.4475 430.308 184.4475 427.9333L184.4475 427.9333L184.4475 427.3955C 184.4475 425.0208 182.5202 423.0935 180.1455 423.0935L180.1455 423.0935L179.6078 423.0935C 177.2331 423.0935 175.3058 425.0208 175.3058 427.3955L175.3058 427.3955L175.3058 427.9333C 175.3058 430.308 177.2331 432.2353 179.6078 432.2353z" stroke="none" fill="#37A574" fill-rule="evenodd" /></g></g><g clip-path="url(#265)"></g><g clip-path="url(#266)"><g clip-path="url(#267)"></g></g><g clip-path="url(#268)"></g><g clip-path="url(#269)"><g clip-path="url(#270)"></g></g><g clip-path="url(#271)"><g clip-path="url(#272)"><g clip-path="url(#273)"><path id="586" transform="matrix(1 0 0 -1 0 842)" d="M179.07 246.7114L179.6078 246.7114L179.6078 246.1737L179.07 246.1737z" stroke="none" fill="#37A574" fill-rule="nonzero" /><path id="588" transform="matrix(1 0 0 -1 0 842)" d="M179.3389 246.1737L179.3389 -8.182007" stroke="#37A574" stroke-width="0.53775" stroke-dasharray="3,3" fill="none" /></g></g></g><g clip-path="url(#274)"></g><g clip-path="url(#275)"><g clip-path="url(#276)"></g></g><g clip-path="url(#277)"></g><g clip-path="url(#278)"><g clip-path="url(#279)"></g></g><g clip-path="url(#280)"></g><g clip-path="url(#281)"><g clip-path="url(#282)"></g></g><g clip-path="url(#283)"></g><g clip-path="url(#284)"><g clip-path="url(#285)"><path id="824" transform="matrix(1 0 0 -1 0 842)" d="M175.3058 246.7114L186.0607 246.7114L186.0607 235.9564L175.3058 235.9564z" stroke="none" fill="#FFFFFF" fill-rule="nonzero" /></g></g><g clip-path="url(#286)"></g><g clip-path="url(#287)"><g clip-path="url(#288)"><path id="825" transform="matrix(1 0 0 -1 0 842)" d="M179.6078 241.8717L180.1455 241.8717C 181.6297 241.8717 182.8343 240.6672 182.8343 239.183L182.8343 239.183L182.8343 238.6453C 182.8343 237.161 181.6297 235.9565 180.1455 235.9565L180.1455 235.9565L179.6078 235.9565C 178.1236 235.9565 176.919 237.161 176.919 238.6453L176.919 238.6453L176.919 239.183C 176.919 240.6672 178.1236 241.8717 179.6078 241.8717zM179.6078 243.485L180.1455 243.485C 182.5202 243.485 184.4475 241.5577 184.4475 239.183L184.4475 239.183L184.4475 238.6453C 184.4475 236.2705 182.5202 234.3433 180.1455 234.3433L180.1455 234.3433L179.6078 234.3433C 177.2331 234.3433 175.3058 236.2705 175.3058 238.6453L175.3058 238.6453L175.3058 239.183C 175.3058 241.5577 177.2331 243.485 179.6078 243.485z" stroke="none" fill="#37A574" fill-rule="evenodd" /></g></g><g clip-path="url(#289)"></g><g clip-path="url(#290)"><g clip-path="url(#291)"></g></g><g clip-path="url(#292)"></g><g clip-path="url(#293)"><g clip-path="url(#294)"></g></g><g clip-path="url(#295)"></g><g clip-path="url(#296)"><g clip-path="url(#297)"></g></g><g clip-path="url(#298)"></g><g clip-path="url(#299)"><g clip-path="url(#300)"></g></g><g clip-path="url(#301)"></g><g clip-path="url(#302)"><g clip-path="url(#303)"></g></g><g clip-path="url(#304)"></g><g clip-path="url(#305)"><g clip-path="url(#306)"></g></g><g clip-path="url(#307)"></g><g clip-path="url(#308)"><g clip-path="url(#309)"></g></g><g clip-path="url(#310)"></g><g clip-path="url(#311)"><g clip-path="url(#312)"></g></g><g clip-path="url(#313)"></g><g clip-path="url(#314)"><g clip-path="url(#315)"></g></g><g clip-path="url(#316)"></g><g clip-path="url(#317)"><g clip-path="url(#318)"></g></g><g clip-path="url(#319)"></g><g clip-path="url(#320)"><g clip-path="url(#321)"></g></g><g clip-path="url(#322)"></g><g clip-path="url(#323)"><g clip-path="url(#324)"></g></g><g clip-path="url(#325)"></g><g clip-path="url(#326)"><g clip-path="url(#327)"></g></g><g clip-path="url(#328)"></g><g clip-path="url(#329)"><g clip-path="url(#330)"></g></g><g clip-path="url(#331)"></g><g clip-path="url(#332)"><g clip-path="url(#333)"></g></g><g clip-path="url(#334)"></g><g clip-path="url(#335)"><g clip-path="url(#336)"></g></g><g clip-path="url(#337)"></g><g clip-path="url(#338)"><g clip-path="url(#339)"></g></g><g clip-path="url(#340)"></g></g></g></svg>