<svg xmlns="http://www.w3.org/2000/svg" xmlns:xlink="http://www.w3.org/1999/xlink" id="body_3" preserveAspectRatio="xMinYMin meet" viewBox="0 0 793 1123"><defs><clipPath id="1"><path id="" clip-rule="evenodd" transform="matrix(1 0 0 1 0 0)" d="M0 842L0 0L0 0L595 0L595 0L595 842L595 842L0 842z" /></clipPath><clipPath id="2"><path id="" clip-rule="evenodd" transform="matrix(1 0 0 1 0 0)" d="M28.5 28.5L566.25 28.5L566.25 28.5L566.25 813.6151L566.25 813.6151L28.5 813.6151L28.5 813.6151L28.5 28.5z" /></clipPath><clipPath id="3"><path id="" clip-rule="evenodd" transform="matrix(1 0 0 1 0 0)" d="M28.5 28.5L566.25 28.5L566.25 28.5L566.25 813.6151L566.25 813.6151L28.5 813.6151L28.5 813.6151L28.5 28.5z" /></clipPath><clipPath id="4"><path id="" clip-rule="evenodd" transform="matrix(1 0 0 1 0 0)" d="M28.5 -445.7954L566.25 -445.7954L566.25 -445.7954L566.25 1923.531L566.25 1923.531L28.5 1923.531L28.5 1923.531L28.5 -445.7954z" /></clipPath><clipPath id="5"><path id="" clip-rule="evenodd" transform="matrix(1 0 0 1 0 0)" d="M28.5 28.5L566.25 28.5L566.25 28.5L566.25 813.6151L566.25 813.6151L28.5 813.6151L28.5 813.6151L28.5 28.5z" /></clipPath><clipPath id="6"><path id="" clip-rule="evenodd" transform="matrix(1 0 0 1 0 0)" d="M28.5 28.5L566.25 28.5L566.25 28.5L566.25 813.6151L566.25 813.6151L28.5 813.6151L28.5 813.6151L28.5 28.5z" /></clipPath><clipPath id="7"><path id="" clip-rule="evenodd" transform="matrix(1 0 0 1 0 0)" d="M28.5 -445.7954L566.25 -445.7954L566.25 -445.7954L566.25 1923.531L566.25 1923.531L28.5 1923.531L28.5 1923.531L28.5 -445.7954z" /></clipPath><clipPath id="8"><path id="" clip-rule="evenodd" transform="matrix(1 0 0 1 0 0)" d="M28.5 28.5L566.25 28.5L566.25 28.5L566.25 813.6151L566.25 813.6151L28.5 813.6151L28.5 813.6151L28.5 28.5z" /></clipPath><clipPath id="9"><path id="" clip-rule="evenodd" transform="matrix(1 0 0 1 0 0)" d="M28.5 28.5L566.25 28.5L566.25 28.5L566.25 813.6151L566.25 813.6151L28.5 813.6151L28.5 813.6151L28.5 28.5z" /></clipPath><clipPath id="10"><path id="" clip-rule="evenodd" transform="matrix(1 0 0 1 0 0)" d="M28.5 -445.7954L566.25 -445.7954L566.25 -445.7954L566.25 1923.531L566.25 1923.531L28.5 1923.531L28.5 1923.531L28.5 -445.7954z" /></clipPath><clipPath id="11"><path id="" clip-rule="evenodd" transform="matrix(1 0 0 1 0 0)" d="M28.5 28.5L566.25 28.5L566.25 28.5L566.25 813.6151L566.25 813.6151L28.5 813.6151L28.5 813.6151L28.5 28.5z" /></clipPath><clipPath id="12"><path id="" clip-rule="evenodd" transform="matrix(1 0 0 1 0 0)" d="M28.5 28.5L566.25 28.5L566.25 28.5L566.25 813.6151L566.25 813.6151L28.5 813.6151L28.5 813.6151L28.5 28.5z" /></clipPath><clipPath id="13"><path id="" clip-rule="evenodd" transform="matrix(1 0 0 1 0 0)" d="M28.5 -445.7954L566.25 -445.7954L566.25 -445.7954L566.25 1923.531L566.25 1923.531L28.5 1923.531L28.5 1923.531L28.5 -445.7954z" /></clipPath><clipPath id="14"><path id="" clip-rule="evenodd" transform="matrix(1 0 0 1 0 0)" d="M28.5 28.5L566.25 28.5L566.25 28.5L566.25 813.6151L566.25 813.6151L28.5 813.6151L28.5 813.6151L28.5 28.5z" /></clipPath><clipPath id="15"><path id="" clip-rule="evenodd" transform="matrix(1 0 0 1 0 0)" d="M28.5 28.5L566.25 28.5L566.25 28.5L566.25 813.6151L566.25 813.6151L28.5 813.6151L28.5 813.6151L28.5 28.5z" /></clipPath><clipPath id="16"><path id="" clip-rule="evenodd" transform="matrix(1 0 0 1 0 0)" d="M179.07 -189.8265L179.6078 -189.8265L179.6078 -189.8265L179.6078 65.60474L179.6078 65.60474L179.07 65.60474" /></clipPath><clipPath id="17"><path id="" clip-rule="evenodd" transform="matrix(1 0 0 1 0 0)" d="M28.5 28.5L566.25 28.5L566.25 28.5L566.25 813.6151L566.25 813.6151L28.5 813.6151L28.5 813.6151L28.5 28.5z" /></clipPath><clipPath id="18"><path id="" clip-rule="evenodd" transform="matrix(1 0 0 1 0 0)" d="M28.5 28.5L566.25 28.5L566.25 28.5L566.25 813.6151L566.25 813.6151L28.5 813.6151L28.5 813.6151L28.5 28.5z" /></clipPath><clipPath id="19"><path id="" clip-rule="evenodd" transform="matrix(1 0 0 1 0 0)" d="M179.07 65.60474L179.6078 65.60474L179.6078 65.60474L179.6078 273.714L179.6078 273.714L179.07 273.714" /></clipPath><clipPath id="20"><path id="" clip-rule="evenodd" transform="matrix(1 0 0 1 0 0)" d="M28.5 28.5L566.25 28.5L566.25 28.5L566.25 813.6151L566.25 813.6151L28.5 813.6151L28.5 813.6151L28.5 28.5z" /></clipPath><clipPath id="21"><path id="" clip-rule="evenodd" transform="matrix(1 0 0 1 0 0)" d="M28.5 28.5L566.25 28.5L566.25 28.5L566.25 813.6151L566.25 813.6151L28.5 813.6151L28.5 813.6151L28.5 28.5z" /></clipPath><clipPath id="22"><path id="" clip-rule="evenodd" transform="matrix(1 0 0 1 0 0)" d="M179.07 273.714L179.6078 273.714L179.6078 273.714L179.6078 539.9003L179.6078 539.9003L179.07 539.9003" /></clipPath><clipPath id="23"><path id="" clip-rule="evenodd" transform="matrix(1 0 0 1 0 0)" d="M28.5 28.5L566.25 28.5L566.25 28.5L566.25 813.6151L566.25 813.6151L28.5 813.6151L28.5 813.6151L28.5 28.5z" /></clipPath><clipPath id="24"><path id="" clip-rule="evenodd" transform="matrix(1 0 0 1 0 0)" d="M28.5 28.5L566.25 28.5L566.25 28.5L566.25 813.6151L566.25 813.6151L28.5 813.6151L28.5 813.6151L28.5 28.5z" /></clipPath><clipPath id="25"><path id="" clip-rule="evenodd" transform="matrix(1 0 0 1 0 0)" d="M179.07 539.9003L179.6078 539.9003L179.6078 539.9003L179.6078 806.0865L179.6078 806.0865L179.07 806.0865" /></clipPath><clipPath id="26"><path id="" clip-rule="evenodd" transform="matrix(1 0 0 1 0 0)" d="M28.5 28.5L566.25 28.5L566.25 28.5L566.25 813.6151L566.25 813.6151L28.5 813.6151L28.5 813.6151L28.5 28.5z" /></clipPath></defs><g transform="matrix(1.333333 0 0 1.333333 0 0)"><g clip-path="url(#1)"><g clip-path="url(#2)"></g><g clip-path="url(#3)"><g clip-path="url(#4)"></g></g><g clip-path="url(#5)"></g><g clip-path="url(#6)"><g clip-path="url(#7)"></g></g><g clip-path="url(#8)"></g><g clip-path="url(#9)"><g clip-path="url(#10)"></g></g><g clip-path="url(#11)"></g><g clip-path="url(#12)"><g clip-path="url(#13)"></g></g><g clip-path="url(#14)"></g><g clip-path="url(#15)"><g clip-path="url(#16)"><path id="59" transform="matrix(1 0 0 -1 0 842)" d="M179.07 776.933L179.6078 776.933L179.6078 776.3953L179.07 776.3953z" stroke="none" fill="#37A574" fill-rule="nonzero" /><path id="60" transform="matrix(1 0 0 -1 0 842)" d="M179.3389 1031.289L179.3389 776.933" stroke="#37A574" stroke-width="0.53775" stroke-dasharray="3,3" fill="none" /></g></g><g clip-path="url(#17)"></g><g clip-path="url(#18)"><g clip-path="url(#19)"><path id="74" transform="matrix(1 0 0 -1 0 842)" d="M179.07 776.3953L179.6078 776.3953L179.6078 775.8574L179.07 775.8574z" stroke="none" fill="#37A574" fill-rule="nonzero" /><path id="75" transform="matrix(1 0 0 -1 0 842)" d="M179.07 568.8237L179.6078 568.8237L179.6078 568.286L179.07 568.286z" stroke="none" fill="#37A574" fill-rule="nonzero" /><path id="76" transform="matrix(1 0 0 -1 0 842)" d="M179.3389 775.8574L179.3389 568.8237" stroke="#37A574" stroke-width="0.53775" stroke-dasharray="3,3" fill="none" /></g></g><g clip-path="url(#20)"><path id="309" transform="matrix(1 0 0 -1 0 842)" d="M175.3058 776.3953L186.0607 776.3953L186.0607 765.6403L175.3058 765.6403z" stroke="none" fill="#FFFFFF" fill-rule="nonzero" /><path id="310" transform="matrix(1 0 0 -1 0 842)" d="M179.6078 771.5555L180.1455 771.5555C 181.6297 771.5555 182.8343 770.351 182.8343 768.8668L182.8343 768.8668L182.8343 768.329C 182.8343 766.8448 181.6297 765.6403 180.1455 765.6403L180.1455 765.6403L179.6078 765.6403C 178.1236 765.6403 176.919 766.8448 176.919 768.329L176.919 768.329L176.919 768.8668C 176.919 770.351 178.1236 771.5555 179.6078 771.5555zM179.6078 773.1688L180.1455 773.1688C 182.5202 773.1688 184.4475 771.2415 184.4475 768.8668L184.4475 768.8668L184.4475 768.329C 184.4475 765.9543 182.5202 764.027 180.1455 764.027L180.1455 764.027L179.6078 764.027C 177.2331 764.027 175.3058 765.9543 175.3058 768.329L175.3058 768.329L175.3058 768.8668C 175.3058 771.2415 177.2331 773.1688 179.6078 773.1688z" stroke="none" fill="#37A574" fill-rule="evenodd" /></g><g clip-path="url(#21)"><g clip-path="url(#22)"><path id="311" transform="matrix(1 0 0 -1 0 842)" d="M179.07 568.286L179.6078 568.286L179.6078 567.7482L179.07 567.7482z" stroke="none" fill="#37A574" fill-rule="nonzero" /><path id="312" transform="matrix(1 0 0 -1 0 842)" d="M179.07 302.6375L179.6078 302.6375L179.6078 302.0996L179.07 302.0996z" stroke="none" fill="#37A574" fill-rule="nonzero" /><path id="313" transform="matrix(1 0 0 -1 0 842)" d="M179.3389 567.7482L179.3389 302.6375" stroke="#37A574" stroke-width="0.53775" stroke-dasharray="3,3" fill="none" /></g></g><g clip-path="url(#23)"><path id="647" transform="matrix(1 0 0 -1 0 842)" d="M175.3058 568.286L186.0607 568.286L186.0607 557.531L175.3058 557.531z" stroke="none" fill="#FFFFFF" fill-rule="nonzero" /><path id="648" transform="matrix(1 0 0 -1 0 842)" d="M179.6078 563.4463L180.1455 563.4463C 181.6297 563.4463 182.8343 562.2417 182.8343 560.7575L182.8343 560.7575L182.8343 560.2197C 182.8343 558.7355 181.6297 557.531 180.1455 557.531L180.1455 557.531L179.6078 557.531C 178.1236 557.531 176.919 558.7355 176.919 560.2197L176.919 560.2197L176.919 560.7575C 176.919 562.2417 178.1236 563.4463 179.6078 563.4463zM179.6078 565.0595L180.1455 565.0595C 182.5202 565.0595 184.4475 563.1322 184.4475 560.7575L184.4475 560.7575L184.4475 560.2197C 184.4475 557.845 182.5202 555.9177 180.1455 555.9177L180.1455 555.9177L179.6078 555.9177C 177.2331 555.9177 175.3058 557.845 175.3058 560.2197L175.3058 560.2197L175.3058 560.7575C 175.3058 563.1322 177.2331 565.0595 179.6078 565.0595z" stroke="none" fill="#37A574" fill-rule="evenodd" /></g><g clip-path="url(#24)"><g clip-path="url(#25)"><path id="649" transform="matrix(1 0 0 -1 0 842)" d="M179.07 302.0996L179.6078 302.0996L179.6078 301.562L179.07 301.562z" stroke="none" fill="#37A574" fill-rule="nonzero" /><path id="650" transform="matrix(1 0 0 -1 0 842)" d="M179.07 36.45117L179.6078 36.45117L179.6078 35.91357L179.07 35.91357z" stroke="none" fill="#37A574" fill-rule="nonzero" /><path id="651" transform="matrix(1 0 0 -1 0 842)" d="M179.3389 301.562L179.3389 36.45117" stroke="#37A574" stroke-width="0.53775" stroke-dasharray="3,3" fill="none" /></g></g><g clip-path="url(#26)"><path id="1009" transform="matrix(1 0 0 -1 0 842)" d="M175.3058 302.0996L186.0607 302.0996L186.0607 291.3447L175.3058 291.3447z" stroke="none" fill="#FFFFFF" fill-rule="nonzero" /><path id="1010" transform="matrix(1 0 0 -1 0 842)" d="M179.6078 297.26L180.1455 297.26C 181.6297 297.26 182.8343 296.0554 182.8343 294.5712L182.8343 294.5712L182.8343 294.0335C 182.8343 292.5493 181.6297 291.3447 180.1455 291.3447L180.1455 291.3447L179.6078 291.3447C 178.1236 291.3447 176.919 292.5493 176.919 294.0335L176.919 294.0335L176.919 294.5712C 176.919 296.0554 178.1236 297.26 179.6078 297.26zM179.6078 298.8732L180.1455 298.8732C 182.5202 298.8732 184.4475 296.946 184.4475 294.5712L184.4475 294.5712L184.4475 294.0335C 184.4475 291.6588 182.5202 289.7314 180.1455 289.7314L180.1455 289.7314L179.6078 289.7314C 177.2331 289.7314 175.3058 291.6588 175.3058 294.0335L175.3058 294.0335L175.3058 294.5712C 175.3058 296.946 177.2331 298.8732 179.6078 298.8732z" stroke="none" fill="#37A574" fill-rule="evenodd" /></g></g></g></svg>