<svg xmlns="http://www.w3.org/2000/svg" xmlns:xlink="http://www.w3.org/1999/xlink" id="body_4" preserveAspectRatio="xMinYMin meet" viewBox="0 0 793 1123"><defs><clipPath id="1"><path id="" clip-rule="evenodd" transform="matrix(1 0 0 1 0 0)" d="M0 842L0 0L0 0L595 0L595 0L595 842L595 842L0 842z" /></clipPath><clipPath id="2"><path id="" clip-rule="evenodd" transform="matrix(1 0 0 1 0 0)" d="M28.5 28.5L566.25 28.5L566.25 28.5L566.25 813.6151L566.25 813.6151L28.5 813.6151L28.5 813.6151L28.5 28.5z" /></clipPath><clipPath id="3"><path id="" clip-rule="evenodd" transform="matrix(1 0 0 1 0 0)" d="M28.5 28.5L566.25 28.5L566.25 28.5L566.25 813.6151L566.25 813.6151L28.5 813.6151L28.5 813.6151L28.5 28.5z" /></clipPath><clipPath id="4"><path id="" clip-rule="evenodd" transform="matrix(1 0 0 1 0 0)" d="M28.5 -1230.911L566.25 -1230.911L566.25 -1230.911L566.25 1138.416L566.25 1138.416L28.5 1138.416L28.5 1138.416L28.5 -1230.911z" /></clipPath><clipPath id="5"><path id="" clip-rule="evenodd" transform="matrix(1 0 0 1 0 0)" d="M28.5 28.5L566.25 28.5L566.25 28.5L566.25 813.6151L566.25 813.6151L28.5 813.6151L28.5 813.6151L28.5 28.5z" /></clipPath><clipPath id="6"><path id="" clip-rule="evenodd" transform="matrix(1 0 0 1 0 0)" d="M28.5 28.5L566.25 28.5L566.25 28.5L566.25 813.6151L566.25 813.6151L28.5 813.6151L28.5 813.6151L28.5 28.5z" /></clipPath><clipPath id="7"><path id="" clip-rule="evenodd" transform="matrix(1 0 0 1 0 0)" d="M28.5 -1230.911L566.25 -1230.911L566.25 -1230.911L566.25 1138.416L566.25 1138.416L28.5 1138.416L28.5 1138.416L28.5 -1230.911z" /></clipPath><clipPath id="8"><path id="" clip-rule="evenodd" transform="matrix(1 0 0 1 0 0)" d="M28.5 28.5L566.25 28.5L566.25 28.5L566.25 813.6151L566.25 813.6151L28.5 813.6151L28.5 813.6151L28.5 28.5z" /></clipPath><clipPath id="9"><path id="" clip-rule="evenodd" transform="matrix(1 0 0 1 0 0)" d="M28.5 28.5L566.25 28.5L566.25 28.5L566.25 813.6151L566.25 813.6151L28.5 813.6151L28.5 813.6151L28.5 28.5z" /></clipPath><clipPath id="10"><path id="" clip-rule="evenodd" transform="matrix(1 0 0 1 0 0)" d="M28.5 -1230.911L566.25 -1230.911L566.25 -1230.911L566.25 1138.416L566.25 1138.416L28.5 1138.416L28.5 1138.416L28.5 -1230.911z" /></clipPath><clipPath id="11"><path id="" clip-rule="evenodd" transform="matrix(1 0 0 1 0 0)" d="M28.5 28.5L566.25 28.5L566.25 28.5L566.25 813.6151L566.25 813.6151L28.5 813.6151L28.5 813.6151L28.5 28.5z" /></clipPath><clipPath id="12"><path id="" clip-rule="evenodd" transform="matrix(1 0 0 1 0 0)" d="M28.5 28.5L566.25 28.5L566.25 28.5L566.25 813.6151L566.25 813.6151L28.5 813.6151L28.5 813.6151L28.5 28.5z" /></clipPath><clipPath id="13"><path id="" clip-rule="evenodd" transform="matrix(1 0 0 1 0 0)" d="M28.5 -1230.911L566.25 -1230.911L566.25 -1230.911L566.25 1138.416L566.25 1138.416L28.5 1138.416L28.5 1138.416L28.5 -1230.911z" /></clipPath><clipPath id="14"><path id="" clip-rule="evenodd" transform="matrix(1 0 0 1 0 0)" d="M28.5 28.5L566.25 28.5L566.25 28.5L566.25 813.6151L566.25 813.6151L28.5 813.6151L28.5 813.6151L28.5 28.5z" /></clipPath><clipPath id="15"><path id="" clip-rule="evenodd" transform="matrix(1 0 0 1 0 0)" d="M28.5 28.5L566.25 28.5L566.25 28.5L566.25 813.6151L566.25 813.6151L28.5 813.6151L28.5 813.6151L28.5 28.5z" /></clipPath><clipPath id="16"><path id="" clip-rule="evenodd" transform="matrix(1 0 0 1 0 0)" d="M179.07 28.5L179.6078 28.5L179.6078 28.5L179.6078 255.9683L179.6078 255.9683L179.07 255.9683" /></clipPath><clipPath id="17"><path id="" clip-rule="evenodd" transform="matrix(1 0 0 1 0 0)" d="M28.5 28.5L566.25 28.5L566.25 28.5L566.25 813.6151L566.25 813.6151L28.5 813.6151L28.5 813.6151L28.5 28.5z" /></clipPath><clipPath id="18"><path id="" clip-rule="evenodd" transform="matrix(1 0 0 1 0 0)" d="M28.5 28.5L566.25 28.5L566.25 28.5L566.25 813.6151L566.25 813.6151L28.5 813.6151L28.5 813.6151L28.5 28.5z" /></clipPath><clipPath id="19"><path id="" clip-rule="evenodd" transform="matrix(1 0 0 1 0 0)" d="M179.07 255.9683L179.6078 255.9683L179.6078 255.9683L179.6078 522.1545L179.6078 522.1545L179.07 522.1545" /></clipPath><clipPath id="20"><path id="" clip-rule="evenodd" transform="matrix(1 0 0 1 0 0)" d="M28.5 28.5L566.25 28.5L566.25 28.5L566.25 813.6151L566.25 813.6151L28.5 813.6151L28.5 813.6151L28.5 28.5z" /></clipPath><clipPath id="21"><path id="" clip-rule="evenodd" transform="matrix(1 0 0 1 0 0)" d="M28.5 28.5L566.25 28.5L566.25 28.5L566.25 813.6151L566.25 813.6151L28.5 813.6151L28.5 813.6151L28.5 28.5z" /></clipPath><clipPath id="22"><path id="" clip-rule="evenodd" transform="matrix(1 0 0 1 0 0)" d="M179.07 522.1545L179.6078 522.1545L179.6078 522.1545L179.6078 749.6227L179.6078 749.6227L179.07 749.6227" /></clipPath><clipPath id="23"><path id="" clip-rule="evenodd" transform="matrix(1 0 0 1 0 0)" d="M28.5 28.5L566.25 28.5L566.25 28.5L566.25 813.6151L566.25 813.6151L28.5 813.6151L28.5 813.6151L28.5 28.5z" /></clipPath><clipPath id="24"><path id="" clip-rule="evenodd" transform="matrix(1 0 0 1 0 0)" d="M28.5 28.5L566.25 28.5L566.25 28.5L566.25 813.6151L566.25 813.6151L28.5 813.6151L28.5 813.6151L28.5 28.5z" /></clipPath><clipPath id="25"><path id="" clip-rule="evenodd" transform="matrix(1 0 0 1 0 0)" d="M179.07 749.6227L179.6078 749.6227L179.6078 749.6227L179.6078 957.7319L179.6078 957.7319L179.07 957.7319" /></clipPath><clipPath id="26"><path id="" clip-rule="evenodd" transform="matrix(1 0 0 1 0 0)" d="M28.5 28.5L566.25 28.5L566.25 28.5L566.25 813.6151L566.25 813.6151L28.5 813.6151L28.5 813.6151L28.5 28.5z" /></clipPath></defs><g transform="matrix(1.333333 0 0 1.333333 0 0)"><g clip-path="url(#1)"><g clip-path="url(#2)"></g><g clip-path="url(#3)"><g clip-path="url(#4)"></g></g><g clip-path="url(#5)"></g><g clip-path="url(#6)"><g clip-path="url(#7)"></g></g><g clip-path="url(#8)"></g><g clip-path="url(#9)"><g clip-path="url(#10)"></g></g><g clip-path="url(#11)"></g><g clip-path="url(#12)"><g clip-path="url(#13)"></g></g><g clip-path="url(#14)"></g><g clip-path="url(#15)"><g clip-path="url(#16)"><path id="77" transform="matrix(1 0 0 -1 0 842)" d="M179.07 813.5L179.6078 813.5L179.6078 812.9622L179.07 812.9622z" stroke="none" fill="#37A574" fill-rule="nonzero" /><path id="78" transform="matrix(1 0 0 -1 0 842)" d="M179.07 586.5693L179.6078 586.5693L179.6078 586.0317L179.07 586.0317z" stroke="none" fill="#37A574" fill-rule="nonzero" /><path id="79" transform="matrix(1 0 0 -1 0 842)" d="M179.3389 812.9622L179.3389 586.5693" stroke="#37A574" stroke-width="0.53775" stroke-dasharray="3,3" fill="none" /></g></g><g clip-path="url(#17)"><path id="376" transform="matrix(1 0 0 -1 0 842)" d="M175.3058 813.5L186.0607 813.5L186.0607 802.7449L175.3058 802.7449z" stroke="none" fill="#FFFFFF" fill-rule="nonzero" /><path id="377" transform="matrix(1 0 0 -1 0 842)" d="M179.6078 808.6603L180.1455 808.6603C 181.6297 808.6603 182.8343 807.4556 182.8343 805.9715L182.8343 805.9715L182.8343 805.4338C 182.8343 803.9497 181.6297 802.745 180.1455 802.745L180.1455 802.745L179.6078 802.745C 178.1236 802.745 176.919 803.9497 176.919 805.4338L176.919 805.4338L176.919 805.9715C 176.919 807.4556 178.1236 808.6603 179.6078 808.6603zM179.6078 810.2735L180.1455 810.2735C 182.5202 810.2735 184.4475 808.3462 184.4475 805.9715L184.4475 805.9715L184.4475 805.4338C 184.4475 803.059 182.5202 801.1318 180.1455 801.1318L180.1455 801.1318L179.6078 801.1318C 177.2331 801.1318 175.3058 803.059 175.3058 805.4338L175.3058 805.4338L175.3058 805.9715C 175.3058 808.3462 177.2331 810.2735 179.6078 810.2735z" stroke="none" fill="#37A574" fill-rule="evenodd" /></g><g clip-path="url(#18)"><g clip-path="url(#19)"><path id="378" transform="matrix(1 0 0 -1 0 842)" d="M179.07 586.0317L179.6078 586.0317L179.6078 585.4939L179.07 585.4939z" stroke="none" fill="#37A574" fill-rule="nonzero" /><path id="379" transform="matrix(1 0 0 -1 0 842)" d="M179.07 320.3833L179.6078 320.3833L179.6078 319.8455L179.07 319.8455z" stroke="none" fill="#37A574" fill-rule="nonzero" /><path id="380" transform="matrix(1 0 0 -1 0 842)" d="M179.3389 585.4939L179.3389 320.3833" stroke="#37A574" stroke-width="0.53775" stroke-dasharray="3,3" fill="none" /></g></g><g clip-path="url(#20)"><path id="728" transform="matrix(1 0 0 -1 0 842)" d="M175.3058 586.0317L186.0607 586.0317L186.0607 575.2766L175.3058 575.2766z" stroke="none" fill="#FFFFFF" fill-rule="nonzero" /><path id="729" transform="matrix(1 0 0 -1 0 842)" d="M179.6078 581.192L180.1455 581.192C 181.6297 581.192 182.8343 579.9873 182.8343 578.5032L182.8343 578.5032L182.8343 577.9655C 182.8343 576.4814 181.6297 575.2767 180.1455 575.2767L180.1455 575.2767L179.6078 575.2767C 178.1236 575.2767 176.919 576.4814 176.919 577.9655L176.919 577.9655L176.919 578.5032C 176.919 579.9873 178.1236 581.192 179.6078 581.192zM179.6078 582.8052L180.1455 582.8052C 182.5202 582.8052 184.4475 580.8779 184.4475 578.5032L184.4475 578.5032L184.4475 577.9655C 184.4475 575.5908 182.5202 573.6635 180.1455 573.6635L180.1455 573.6635L179.6078 573.6635C 177.2331 573.6635 175.3058 575.5908 175.3058 577.9655L175.3058 577.9655L175.3058 578.5032C 175.3058 580.8779 177.2331 582.8052 179.6078 582.8052z" stroke="none" fill="#37A574" fill-rule="evenodd" /></g><g clip-path="url(#21)"><g clip-path="url(#22)"><path id="730" transform="matrix(1 0 0 -1 0 842)" d="M179.07 319.8455L179.6078 319.8455L179.6078 319.3076L179.07 319.3076z" stroke="none" fill="#37A574" fill-rule="nonzero" /><path id="731" transform="matrix(1 0 0 -1 0 842)" d="M179.07 92.91504L179.6078 92.91504L179.6078 92.3772L179.07 92.3772z" stroke="none" fill="#37A574" fill-rule="nonzero" /><path id="732" transform="matrix(1 0 0 -1 0 842)" d="M179.3389 319.3076L179.3389 92.91504" stroke="#37A574" stroke-width="0.53775" stroke-dasharray="3,3" fill="none" /></g></g><g clip-path="url(#23)"><path id="979" transform="matrix(1 0 0 -1 0 842)" d="M175.3058 319.8455L186.0607 319.8455L186.0607 309.0903L175.3058 309.0903z" stroke="none" fill="#FFFFFF" fill-rule="nonzero" /><path id="980" transform="matrix(1 0 0 -1 0 842)" d="M179.6078 315.0057L180.1455 315.0057C 181.6297 315.0057 182.8343 313.8011 182.8343 312.317L182.8343 312.317L182.8343 311.7792C 182.8343 310.2952 181.6297 309.0905 180.1455 309.0905L180.1455 309.0905L179.6078 309.0905C 178.1236 309.0905 176.919 310.2952 176.919 311.7792L176.919 311.7792L176.919 312.317C 176.919 313.8011 178.1236 315.0057 179.6078 315.0057zM179.6078 316.619L180.1455 316.619C 182.5202 316.619 184.4475 314.6917 184.4475 312.317L184.4475 312.317L184.4475 311.7792C 184.4475 309.4045 182.5202 307.4772 180.1455 307.4772L180.1455 307.4772L179.6078 307.4772C 177.2331 307.4772 175.3058 309.4045 175.3058 311.7792L175.3058 311.7792L175.3058 312.317C 175.3058 314.6917 177.2331 316.619 179.6078 316.619z" stroke="none" fill="#37A574" fill-rule="evenodd" /></g><g clip-path="url(#24)"><g clip-path="url(#25)"><path id="981" transform="matrix(1 0 0 -1 0 842)" d="M179.07 92.3772L179.6078 92.3772L179.6078 91.83936L179.07 91.83936z" stroke="none" fill="#37A574" fill-rule="nonzero" /><path id="983" transform="matrix(1 0 0 -1 0 842)" d="M179.3389 91.83936L179.3389 -115.1943" stroke="#37A574" stroke-width="0.53775" stroke-dasharray="3,3" fill="none" /></g></g><g clip-path="url(#26)"><path id="1031" transform="matrix(1 0 0 -1 0 842)" d="M175.3058 92.3772L186.0607 92.3772L186.0607 81.62207L175.3058 81.62207z" stroke="none" fill="#FFFFFF" fill-rule="nonzero" /><path id="1032" transform="matrix(1 0 0 -1 0 842)" d="M179.6078 87.53748L180.1455 87.53748C 181.6297 87.53748 182.8343 86.33276 182.8343 84.84875L182.8343 84.84875L182.8343 84.31097C 182.8343 82.8269 181.6297 81.62219 180.1455 81.62219L180.1455 81.62219L179.6078 81.62219C 178.1236 81.62219 176.919 82.8269 176.919 84.31097L176.919 84.31097L176.919 84.84875C 176.919 86.33276 178.1236 87.53748 179.6078 87.53748zM179.6078 89.15076L180.1455 89.15076C 182.5202 89.15076 184.4475 87.22345 184.4475 84.84875L184.4475 84.84875L184.4475 84.31097C 184.4475 81.93628 182.5202 80.00897 180.1455 80.00897L180.1455 80.00897L179.6078 80.00897C 177.2331 80.00897 175.3058 81.93628 175.3058 84.31097L175.3058 84.31097L175.3058 84.84875C 175.3058 87.22345 177.2331 89.15076 179.6078 89.15076z" stroke="none" fill="#37A574" fill-rule="evenodd" /></g></g></g></svg>